<?xml version="1.0" encoding="UTF-8" standalone="no"?>
<!-- Created with Inkscape (http://www.inkscape.org/) -->

<svg
   xmlns:dc="http://purl.org/dc/elements/1.1/"
   xmlns:cc="http://creativecommons.org/ns#"
   xmlns:rdf="http://www.w3.org/1999/02/22-rdf-syntax-ns#"
   xmlns:svg="http://www.w3.org/2000/svg"
   xmlns="http://www.w3.org/2000/svg"
   xmlns:sodipodi="http://sodipodi.sourceforge.net/DTD/sodipodi-0.dtd"
   xmlns:inkscape="http://www.inkscape.org/namespaces/inkscape"
   width="210mm"
   height="297mm"
   viewBox="0 0 210 297"
   version="1.1"
   id="svg8"
   inkscape:version="0.92.4 (5da689c313, 2019-01-14)"
   sodipodi:docname="AbstractHumanoids.svg">
  <defs
     id="defs2" />
  <sodipodi:namedview
     id="base"
     pagecolor="#ffffff"
     bordercolor="#666666"
     borderopacity="1.0"
     inkscape:pageopacity="0.0"
     inkscape:pageshadow="2"
     inkscape:zoom="2.8"
     inkscape:cx="328.96467"
     inkscape:cy="973.64416"
     inkscape:document-units="mm"
     inkscape:current-layer="layer1"
     showgrid="false"
     inkscape:window-width="1920"
     inkscape:window-height="991"
     inkscape:window-x="-9"
     inkscape:window-y="-9"
     inkscape:window-maximized="1"
     inkscape:snap-global="false" />
  <metadata
     id="metadata5">
    <rdf:RDF>
      <cc:Work
         rdf:about="">
        <dc:format>image/svg+xml</dc:format>
        <dc:type
           rdf:resource="http://purl.org/dc/dcmitype/StillImage" />
        <dc:title />
      </cc:Work>
    </rdf:RDF>
  </metadata>
  <g
     inkscape:label="MainLayer"
     inkscape:groupmode="layer"
     id="layer1"
     style="display:inline">
    <path
       style="opacity:0.98999999;fill:#ffffff;fill-opacity:1;fill-rule:nonzero;stroke:#000000;stroke-width:0.26458332;stroke-linecap:butt;stroke-miterlimit:4;stroke-dasharray:none;stroke-dashoffset:0;stroke-opacity:1"
       d="m 71.222662,45.994504 c -4.70807,0.594356 -6.71811,3.931907 -6.88245,5.146536 -0.16433,1.214625 6.26195,1.205598 7.38794,-0.406379 1.12598,-1.611977 2.63719,-3.965774 -0.50549,-4.740157 z"
       id="path977"
       inkscape:connector-curvature="0" />
    <path
       style="opacity:0.98999999;fill:#ffffff;fill-opacity:1;fill-rule:nonzero;stroke:#000000;stroke-width:0.26458332;stroke-linecap:butt;stroke-miterlimit:4;stroke-dasharray:none;stroke-dashoffset:0;stroke-opacity:1"
       d="m 123.07762,35.242907 h 5.93004 c 0,0 -0.23386,-3.87541 -1.98782,-4.911079 -1.75396,-1.035669 -0.21715,2.756217 -3.94222,4.911079 z"
       id="path901"
       inkscape:connector-curvature="0" />
    <path
       style="opacity:0.98999999;fill:#ffffff;fill-opacity:1;fill-rule:nonzero;stroke:#000000;stroke-width:0.26458332;stroke-linecap:butt;stroke-miterlimit:4;stroke-dasharray:none;stroke-dashoffset:0;stroke-opacity:1"
       d="m 126.90551,30.196057 c 0.37797,-1.039434 -1.96076,-2.905694 -2.74033,-2.858445 -0.77958,0.04725 -1.58278,1.110303 -1.34654,1.511903 0.23623,0.401601 2.97656,2.527716 3.35454,2.196987 0.37797,-0.33073 0.73233,-0.850445 0.73233,-0.850445 z"
       id="path907"
       inkscape:connector-curvature="0" />
    <path
       style="opacity:0.98999999;fill:#ffffff;fill-opacity:1;fill-rule:nonzero;stroke:#000000;stroke-width:0.26458332;stroke-linecap:butt;stroke-miterlimit:4;stroke-dasharray:none;stroke-dashoffset:0;stroke-opacity:1"
       d="m 125.48304,21.445117 c -0.93544,-3.30746 -5.84652,-4.84426 -6.71515,-5.211756 -0.86862,-0.367495 -0.80181,5.980156 2.97337,8.753078 3.24065,2.037928 3.74178,-3.541322 3.74178,-3.541322 z"
       id="path899"
       inkscape:connector-curvature="0"
       sodipodi:nodetypes="cccc" />
    <path
       style="opacity:0.98999999;fill:#ffffff;fill-opacity:1;fill-rule:nonzero;stroke:#000000;stroke-width:0.26458332;stroke-linecap:butt;stroke-miterlimit:4;stroke-dasharray:none;stroke-dashoffset:0;stroke-opacity:1"
       d="m 48.776689,29.37968 c -1.219417,-0.785104 -6.715149,0.167044 -6.982417,0.751697 -0.267269,0.584652 -0.751695,1.987817 0.334086,2.12145 1.085784,0.133636 5.462323,-0.701582 6.097088,-1.486686 0.634764,-0.785103 0.551243,-1.386461 0.551243,-1.386461 z"
       id="path863"
       inkscape:connector-curvature="0" />
    <path
       style="opacity:0.98999999;fill:none;fill-opacity:1;fill-rule:nonzero;stroke:#000000;stroke-width:0.26458332;stroke-linecap:butt;stroke-miterlimit:4;stroke-dasharray:none;stroke-dashoffset:0;stroke-opacity:1"
       d="m 71.561414,20.376039 c 1.102487,-0.902035 5.111804,0.958153 3.875411,4.84426 -0.797062,2.505245 -2.336525,3.415673 -2.904471,3.482491 -1.035669,-1.469983 -5.013394,-3.415673 -0.97094,-8.326751 z"
       id="path844"
       inkscape:connector-curvature="0"
       sodipodi:nodetypes="cscc" />
    <path
       style="opacity:0.98999999;fill:#ffffff;fill-opacity:1;fill-rule:nonzero;stroke:#000000;stroke-width:0.26458332;stroke-linecap:butt;stroke-miterlimit:4;stroke-dasharray:none;stroke-dashoffset:0;stroke-opacity:1"
       d="m 77.407936,21.745795 c -2.138156,-0.133635 -4.242903,2.873148 -4.242903,3.374278 0,0.50113 0.23386,2.438834 1.570209,2.305198 1.336347,-0.133633 3.073599,-3.073598 2.672694,-5.679476 z"
       id="path850"
       inkscape:connector-curvature="0" />
    <path
       sodipodi:nodetypes="ccsc"
       style="opacity:0.98999999;fill:#ffffff;fill-opacity:1;fill-rule:nonzero;stroke:#000000;stroke-width:0.26458332;stroke-linecap:butt;stroke-miterlimit:4;stroke-dasharray:none;stroke-dashoffset:0;stroke-opacity:1"
       d="m 73.438057,28.880212 4.139271,-0.100226 c 1.417411,-4.181361 -0.04069,-7.839025 -0.242783,-6.838132 -0.737296,3.651565 -3.896488,6.938358 -3.896488,6.938358 z"
       id="path848"
       inkscape:connector-curvature="0" />
    <path
       style="opacity:0.98999999;fill:#ffffff;fill-opacity:1;fill-rule:nonzero;stroke:#000000;stroke-width:0.26458332;stroke-linecap:butt;stroke-miterlimit:4;stroke-dasharray:none;stroke-dashoffset:0;stroke-opacity:1"
       d="m 22.367118,31.91874 c 0.300679,-0.400904 1.052374,-3.00678 0.501131,-3.524617 -0.551244,-0.517835 -2.255087,-0.46772 -2.271791,0 -0.01671,0.467722 -0.217157,3.023489 0.467722,3.658253 0.684878,0.634765 1.336347,-0.06682 1.336347,-0.06682 z"
       id="path4618"
       inkscape:connector-curvature="0" />
    <path
       inkscape:connector-curvature="0"
       id="path4604"
       d="m 16.557786,35.205209 h 5.901489 c 1.399562,-4.128707 -1.11965,-3.965425 -2.845778,-2.892427 -1.726127,1.072998 -3.055711,2.892427 -3.055711,2.892427 z"
       style="opacity:0.98999999;fill:#ffffff;fill-opacity:1;fill-rule:nonzero;stroke:#000000;stroke-width:0.2612516;stroke-linecap:butt;stroke-miterlimit:4;stroke-dasharray:none;stroke-dashoffset:0;stroke-opacity:1" />
    <path
       style="opacity:0.98999999;fill:#ffffff;fill-opacity:1;fill-rule:nonzero;stroke:#000000;stroke-width:0.26458332;stroke-linecap:butt;stroke-miterlimit:4;stroke-dasharray:none;stroke-dashoffset:0;stroke-opacity:1"
       d="m 21.147701,32.069079 c 0.701583,-0.618061 0.567948,-3.69166 0.100226,-4.009043 -0.467721,-0.317381 -2.438834,0.100227 -2.405425,0.517834 0.03341,0.417611 0.868625,3.040192 1.353052,3.390985 0.484425,0.35079 0.952147,0.100224 0.952147,0.100224 z"
       id="path4616"
       inkscape:connector-curvature="0" />
    <path
       style="opacity:0.98999999;fill:#ffffff;fill-opacity:1;fill-rule:nonzero;stroke:#000000;stroke-width:0.26458332;stroke-linecap:butt;stroke-miterlimit:4;stroke-dasharray:none;stroke-dashoffset:0;stroke-opacity:1"
       d="m 20.479578,22.781523 c 2.706053,-0.06688 5.078071,0.334028 5.445568,7.884392 -5.512435,-1.904296 -5.712888,-4.309721 -5.712888,-4.309721 -1.737252,-1.770661 0.26732,-3.574671 0.26732,-3.574671 z"
       id="path4562"
       inkscape:connector-curvature="0"
       sodipodi:nodetypes="cccc" />
    <circle
       style="opacity:0.98999999;fill:#ffffff;fill-opacity:1;fill-rule:nonzero;stroke:#000000;stroke-width:0.26458332;stroke-linecap:butt;stroke-miterlimit:4;stroke-dasharray:none;stroke-dashoffset:0;stroke-opacity:1"
       id="path4528"
       cx="21.130884"
       cy="21.208641"
       r="1.7953868" />
    <path
       style="display:inline;opacity:0.98999999;fill:#ffffff;fill-opacity:1;fill-rule:nonzero;stroke:#000000;stroke-width:0.26458332;stroke-linecap:butt;stroke-miterlimit:4;stroke-dasharray:none;stroke-dashoffset:0;stroke-opacity:1"
       d="m 20.479578,22.781523 c -3.173877,-0.768459 -6.581563,6.314183 -5.980207,8.920061 6.982421,-0.233727 9.855666,-8.385463 5.980207,-8.920061 z"
       id="path4559"
       inkscape:connector-curvature="0" />
    <path
       style="opacity:0.98999999;fill:#ffffff;fill-opacity:1;fill-rule:nonzero;stroke:#000000;stroke-width:0.26458332;stroke-linecap:butt;stroke-miterlimit:4;stroke-dasharray:none;stroke-dashoffset:0;stroke-opacity:1"
       d="M 16.169806,35.109271 Z"
       id="path4574"
       inkscape:connector-curvature="0" />
    <path
       style="opacity:0.98999999;fill:#ffffff;fill-opacity:1;fill-rule:nonzero;stroke:#000000;stroke-width:0.26458332;stroke-linecap:butt;stroke-miterlimit:4;stroke-dasharray:none;stroke-dashoffset:0;stroke-opacity:1"
       d="m 15.106481,35.227863 h 5.976749 c 1.417411,-4.181361 -1.372265,-4.800974 -2.330826,-2.979428 -0.879514,1.671334 -3.645923,2.979428 -3.645923,2.979428 z"
       id="path4600"
       inkscape:connector-curvature="0"
       sodipodi:nodetypes="ccsc" />
    <circle
       r="1.7953868"
       cy="18.880682"
       cx="71.940392"
       id="circle836"
       style="opacity:0.98999999;fill:#ffffff;fill-opacity:1;fill-rule:nonzero;stroke:#000000;stroke-width:0.26458332;stroke-linecap:butt;stroke-miterlimit:4;stroke-dasharray:none;stroke-dashoffset:0;stroke-opacity:1" />
    <path
       style="opacity:0.98999999;fill:#ffffff;fill-opacity:1;fill-rule:nonzero;stroke:#000000;stroke-width:0.26458332;stroke-linecap:butt;stroke-miterlimit:4;stroke-dasharray:none;stroke-dashoffset:0;stroke-opacity:1"
       d="m 72.697312,31.167047 c 2.422129,-3.558026 1.971112,-4.710627 1.369756,-5.345392 -0.601358,-0.634765 -3.57473,-0.06682 -3.474506,0.701583 0.312592,2.330371 1.736854,6.190621 2.10475,4.643809 z"
       id="path852"
       inkscape:connector-curvature="0"
       sodipodi:nodetypes="cccc" />
    <path
       style="opacity:0.98999999;fill:#ffffff;fill-opacity:1;fill-rule:nonzero;stroke:#000000;stroke-width:0.26458332;stroke-linecap:butt;stroke-miterlimit:4;stroke-dasharray:none;stroke-dashoffset:0;stroke-opacity:1"
       d="m 71.494599,20.509673 c -2.839738,1.002261 -5.779704,4.276313 -6.180608,9.755339 5.913338,1.169304 8.118312,-3.207235 8.619442,-4.810852 0.501131,-1.603617 0.567948,-5.245166 -2.438834,-4.944487 z"
       id="path842"
       inkscape:connector-curvature="0" />
    <path
       inkscape:connector-curvature="0"
       id="path846"
       d="m 66.221779,35.227863 h 5.976749 c 1.417411,-4.181361 0.456755,-6.188177 -0.81073,-4.566341 -2.196987,2.811198 -5.166019,4.566341 -5.166019,4.566341 z"
       style="opacity:0.98999999;fill:#ffffff;fill-opacity:1;fill-rule:nonzero;stroke:#000000;stroke-width:0.26458332;stroke-linecap:butt;stroke-miterlimit:4;stroke-dasharray:none;stroke-dashoffset:0;stroke-opacity:1"
       sodipodi:nodetypes="ccsc" />
    <circle
       r="1.7953868"
       cy="24.704922"
       cx="49.300182"
       id="circle854"
       style="opacity:0.98999999;fill:#ffffff;fill-opacity:1;fill-rule:nonzero;stroke:#000000;stroke-width:0.26458332;stroke-linecap:butt;stroke-miterlimit:4;stroke-dasharray:none;stroke-dashoffset:0;stroke-opacity:1" />
    <path
       style="opacity:0.98999999;fill:#ffffff;fill-opacity:1;fill-rule:nonzero;stroke:#000000;stroke-width:0.26458332;stroke-linecap:butt;stroke-miterlimit:4;stroke-dasharray:none;stroke-dashoffset:0;stroke-opacity:1"
       d="m 40.691785,35.242907 h 7.583773 c 0,0 2.130362,-3.953969 0.868627,-5.579253 -0.985557,-1.269529 -1.703844,1.737254 -8.4524,5.579253 z"
       id="path859"
       inkscape:connector-curvature="0"
       sodipodi:nodetypes="ccsc" />
    <path
       style="opacity:0.98999999;fill:#ffffff;fill-opacity:1;fill-rule:nonzero;stroke:#000000;stroke-width:0.26458332;stroke-linecap:butt;stroke-miterlimit:4;stroke-dasharray:none;stroke-dashoffset:0;stroke-opacity:1"
       d="m 47.373524,24.852803 c 1.403165,2.305199 0.267269,5.545843 -4.009043,6.247425 -4.276312,0.701582 -7.750818,-0.267269 -7.750818,-0.267269 0,0 3.474506,-8.719668 11.759861,-5.980156 z"
       id="path861"
       inkscape:connector-curvature="0" />
    <path
       style="display:inline;opacity:0.98999999;fill:#ffffff;fill-opacity:1;fill-rule:nonzero;stroke:#000000;stroke-width:0.26458332;stroke-linecap:butt;stroke-miterlimit:4;stroke-dasharray:none;stroke-dashoffset:0;stroke-opacity:1"
       d="m 98.132068,19.069382 c -0.826823,-0.732329 -5.693267,-2.598586 -7.039808,-2.527716 -1.346539,0.07087 0.968565,6.236607 4.275857,7.181548 3.307291,0.94494 4.937313,-2.031622 2.763951,-4.653832 z"
       id="path873"
       inkscape:connector-curvature="0" />
    <circle
       style="opacity:0.98999999;fill:#ffffff;fill-opacity:1;fill-rule:nonzero;stroke:#000000;stroke-width:0.26458332;stroke-linecap:butt;stroke-miterlimit:4;stroke-dasharray:none;stroke-dashoffset:0;stroke-opacity:1"
       id="circle865"
       cx="98.433067"
       cy="17.447178"
       r="1.7953868" />
    <path
       style="opacity:0.98999999;fill:#ffffff;fill-opacity:1;fill-rule:nonzero;stroke:#000000;stroke-width:0.26458332;stroke-linecap:butt;stroke-miterlimit:4;stroke-dasharray:none;stroke-dashoffset:0;stroke-opacity:1"
       d="m 106.76128,24.103362 v 4.200355 c -1.38903,-1.946133 -2.91716,-1.756856 -4.15774,-3.113673 -1.19896,-1.311295 0.82682,-2.905692 4.15774,-1.086682 z"
       id="path885"
       inkscape:connector-curvature="0"
       sodipodi:nodetypes="ccsc" />
    <path
       style="opacity:0.98999999;fill:#ffffff;fill-opacity:1;fill-rule:nonzero;stroke:#000000;stroke-width:0.26458332;stroke-linecap:butt;stroke-miterlimit:4;stroke-dasharray:none;stroke-dashoffset:0;stroke-opacity:1"
       d="m 102.58138,23.349412 c -1.91319,-0.671794 -4.092561,-0.100226 -4.460057,1.069078 -0.367495,1.169305 0.540917,1.927333 1.536802,1.887591 3.079585,-0.122894 4.570655,-2.378205 2.923255,-2.956669 z"
       id="path883"
       inkscape:connector-curvature="0"
       sodipodi:nodetypes="scss" />
    <path
       style="opacity:0.98999999;fill:#ffffff;fill-opacity:1;fill-rule:nonzero;stroke:#000000;stroke-width:0.26458332;stroke-linecap:butt;stroke-miterlimit:4;stroke-dasharray:none;stroke-dashoffset:0;stroke-opacity:1"
       d="m 95.949758,27.425271 c 1.737254,0.56795 3.507915,-1.369755 3.140419,-2.372015 -0.367496,-1.002261 -2.438836,-0.400905 -2.873147,-0.06682 -0.434314,0.334087 -1.369759,1.302939 -1.269532,1.937705 0.100227,0.634764 1.00226,0.501128 1.00226,0.501128 z"
       id="path881"
       inkscape:connector-curvature="0" />
    <path
       style="display:inline;opacity:0.98999999;fill:#ffffff;fill-opacity:1;fill-rule:nonzero;stroke:#000000;stroke-width:0.26458332;stroke-linecap:butt;stroke-miterlimit:4;stroke-dasharray:none;stroke-dashoffset:0;stroke-opacity:1"
       d="m 97.052245,18.839239 c 3.289955,0.434099 4.595165,4.638076 2.151012,6.096186 -4.05042,2.416359 -12.141193,-4.142677 -12.308237,-5.011303 -0.167042,-0.868626 7.562095,-1.427302 10.157225,-1.084883 z"
       id="path871"
       inkscape:connector-curvature="0"
       sodipodi:nodetypes="sscs" />
    <path
       style="opacity:0.98999999;fill:#ffffff;fill-opacity:1;fill-rule:nonzero;stroke:#000000;stroke-width:0.26458332;stroke-linecap:butt;stroke-miterlimit:4;stroke-dasharray:none;stroke-dashoffset:0;stroke-opacity:1"
       d="m 88.264081,27.360133 v -4.810851 c 3.625452,3.767602 7.851044,3.975635 7.784227,4.710626 -0.06682,0.734991 -2.739513,1.637026 -7.784227,0.100225 z"
       id="path877"
       inkscape:connector-curvature="0"
       sodipodi:nodetypes="cccc" />
    <circle
       r="1.7953868"
       cy="20.320326"
       cx="126.76363"
       id="circle887"
       style="opacity:0.98999999;fill:#ffffff;fill-opacity:1;fill-rule:nonzero;stroke:#000000;stroke-width:0.26458332;stroke-linecap:butt;stroke-miterlimit:4;stroke-dasharray:none;stroke-dashoffset:0;stroke-opacity:1" />
    <path
       style="opacity:0.98999999;fill:#ffffff;fill-opacity:1;fill-rule:nonzero;stroke:#000000;stroke-width:0.26458332;stroke-linecap:butt;stroke-miterlimit:4;stroke-dasharray:none;stroke-dashoffset:0;stroke-opacity:1"
       d="m 118.24808,27.815567 c 0.44884,1.393788 5.57515,2.267857 5.90588,0.236236 0.33072,-2.031623 -2.77202,-1.845339 -3.81146,-2.128821 -1.03943,-0.283483 -2.09442,1.892585 -2.09442,1.892585 z"
       id="path905"
       inkscape:connector-curvature="0"
       sodipodi:nodetypes="cccc" />
    <path
       style="opacity:0.98999999;fill:#ffffff;fill-opacity:1;fill-rule:nonzero;stroke:#000000;stroke-width:0.26458332;stroke-linecap:butt;stroke-miterlimit:4;stroke-dasharray:none;stroke-dashoffset:0;stroke-opacity:1"
       d="m 118.35379,22.423921 4.63021,3.307291 c -3.44904,-0.118118 -3.73251,1.630023 -4.63021,2.07887 -0.89769,0.448846 -1.5119,-2.929316 0,-5.386161 z"
       id="path903"
       inkscape:connector-curvature="0" />
    <path
       style="opacity:0.98999999;fill:#ffffff;fill-opacity:1;fill-rule:nonzero;stroke:#000000;stroke-width:0.26458332;stroke-linecap:butt;stroke-miterlimit:4;stroke-dasharray:none;stroke-dashoffset:0;stroke-opacity:1"
       d="m 124.81487,20.509673 c 3.13724,1.08044 2.43883,7.316503 -0.50113,7.617181 -2.93997,0.30068 -9.35444,-5.311981 -10.18965,-7.216276 -0.83522,-1.904296 5.04408,-2.345584 10.69078,-0.400905 z"
       id="path897"
       inkscape:connector-curvature="0"
       sodipodi:nodetypes="sscs" />
    <path
       sodipodi:nodetypes="sccs"
       inkscape:connector-curvature="0"
       id="path911"
       d="m 127.63424,49.688098 c 0.22657,-3.429724 -6.00247,-7.891401 -6.78439,-8.418805 -0.78193,-0.527402 -1.25445,6.666531 1.91827,10.112579 3.99781,3.580649 4.77381,-0.296336 4.86612,-1.693774 z"
       style="opacity:0.98999999;fill:#ffffff;fill-opacity:1;fill-rule:nonzero;stroke:#000000;stroke-width:0.26458332;stroke-linecap:butt;stroke-miterlimit:4;stroke-dasharray:none;stroke-dashoffset:0;stroke-opacity:1" />
    <path
       inkscape:connector-curvature="0"
       id="path913"
       d="m 48.776692,55.156055 c -1.21942,-0.785104 -6.71515,0.167044 -6.98242,0.751697 -0.26727,0.584652 -0.75169,1.987817 0.33409,2.12145 1.08578,0.133636 5.46232,-0.701582 6.09709,-1.486686 0.63476,-0.785103 0.55124,-1.386461 0.55124,-1.386461 z"
       style="opacity:0.98999999;fill:#ffffff;fill-opacity:1;fill-rule:nonzero;stroke:#000000;stroke-width:0.26458332;stroke-linecap:butt;stroke-miterlimit:4;stroke-dasharray:none;stroke-dashoffset:0;stroke-opacity:1" />
    <circle
       style="opacity:0.98999999;fill:#ffffff;fill-opacity:1;fill-rule:nonzero;stroke:#000000;stroke-width:0.26458332;stroke-linecap:butt;stroke-miterlimit:4;stroke-dasharray:none;stroke-dashoffset:0;stroke-opacity:1"
       id="circle921"
       cx="71.940384"
       cy="44.657055"
       r="1.7953868" />
    <path
       sodipodi:nodetypes="ccsc"
       style="opacity:0.98999999;fill:#ffffff;fill-opacity:1;fill-rule:nonzero;stroke:#000000;stroke-width:0.26458332;stroke-linecap:butt;stroke-miterlimit:4;stroke-dasharray:none;stroke-dashoffset:0;stroke-opacity:1"
       d="m 66.221782,61.004238 h 5.97675 c 1.41741,-4.181361 0.45675,-6.188177 -0.81073,-4.566341 -2.19699,2.811198 -5.16602,4.566341 -5.16602,4.566341 z"
       id="path927"
       inkscape:connector-curvature="0" />
    <path
       sodipodi:nodetypes="cccc"
       inkscape:connector-curvature="0"
       id="path923"
       d="m 72.722372,57.010239 c 2.42213,-3.558026 1.94605,-4.777444 1.3447,-5.412209 -0.60136,-0.634765 -3.57473,-0.06682 -3.47451,0.701583 0.31259,2.330371 0.71789,4.779104 2.12981,4.710626 z"
       style="opacity:0.98999999;fill:#ffffff;fill-opacity:1;fill-rule:nonzero;stroke:#000000;stroke-width:0.26458332;stroke-linecap:butt;stroke-miterlimit:4;stroke-dasharray:none;stroke-dashoffset:0;stroke-opacity:1" />
    <path
       inkscape:connector-curvature="0"
       id="path917"
       d="m 77.407942,47.52217 c -2.13816,-0.133635 -4.24291,2.873148 -4.24291,3.374278 0,0.50113 0.23386,2.438834 1.57021,2.305198 1.33635,-0.133633 3.0736,-3.073598 2.6727,-5.679476 z"
       style="opacity:0.98999999;fill:#ffffff;fill-opacity:1;fill-rule:nonzero;stroke:#000000;stroke-width:0.26458332;stroke-linecap:butt;stroke-miterlimit:4;stroke-dasharray:none;stroke-dashoffset:0;stroke-opacity:1" />
    <path
       inkscape:connector-curvature="0"
       id="path925"
       d="m 72.496862,46.219231 c -2.83974,1.002261 -5.77971,4.276313 -6.18061,9.755339 5.91334,1.169304 8.11831,-3.207235 8.61944,-4.810852 0.50113,-1.603617 0.56795,-5.245166 -2.43883,-4.944487 z"
       style="opacity:0.98999999;fill:#ffffff;fill-opacity:1;fill-rule:nonzero;stroke:#000000;stroke-width:0.26458332;stroke-linecap:butt;stroke-miterlimit:4;stroke-dasharray:none;stroke-dashoffset:0;stroke-opacity:1" />
    <circle
       style="opacity:0.98999999;fill:#ffffff;fill-opacity:1;fill-rule:nonzero;stroke:#000000;stroke-width:0.26458332;stroke-linecap:butt;stroke-miterlimit:4;stroke-dasharray:none;stroke-dashoffset:0;stroke-opacity:1"
       id="circle929"
       cx="49.300186"
       cy="50.481297"
       r="1.7953868" />
    <path
       sodipodi:nodetypes="ccsc"
       inkscape:connector-curvature="0"
       id="path931"
       d="m 40.691782,61.019282 h 7.58378 c 0,0 2.13036,-3.953969 0.86862,-5.579253 -0.98555,-1.269529 -1.70384,1.737254 -8.4524,5.579253 z"
       style="opacity:0.98999999;fill:#ffffff;fill-opacity:1;fill-rule:nonzero;stroke:#000000;stroke-width:0.26458332;stroke-linecap:butt;stroke-miterlimit:4;stroke-dasharray:none;stroke-dashoffset:0;stroke-opacity:1" />
    <path
       inkscape:connector-curvature="0"
       id="path933"
       d="m 47.373522,50.629178 c 1.40317,2.305199 0.26727,5.545843 -4.00904,6.247425 -4.27631,0.701582 -7.75082,-0.267269 -7.75082,-0.267269 0,0 3.47451,-8.719668 11.75986,-5.980156 z"
       style="opacity:0.98999999;fill:#ffffff;fill-opacity:1;fill-rule:nonzero;stroke:#000000;stroke-width:0.26458332;stroke-linecap:butt;stroke-miterlimit:4;stroke-dasharray:none;stroke-dashoffset:0;stroke-opacity:1" />
    <path
       inkscape:connector-curvature="0"
       id="path935"
       d="m 100.17,45.28007 c -1.204039,-1.458046 -6.094172,-3.133125 -7.440712,-3.062255 -1.34654,0.07087 1.536508,6.637511 4.843805,7.582452 3.307287,0.94494 4.765527,-1.894069 2.596907,-4.520197 z"
       style="display:inline;opacity:0.98999999;fill:#ffffff;fill-opacity:1;fill-rule:nonzero;stroke:#000000;stroke-width:0.26458332;stroke-linecap:butt;stroke-miterlimit:4;stroke-dasharray:none;stroke-dashoffset:0;stroke-opacity:1"
       sodipodi:nodetypes="ssss" />
    <circle
       r="1.7953868"
       cy="43.290371"
       cx="98.499878"
       id="circle937"
       style="opacity:0.98999999;fill:#ffffff;fill-opacity:1;fill-rule:nonzero;stroke:#000000;stroke-width:0.26458332;stroke-linecap:butt;stroke-miterlimit:4;stroke-dasharray:none;stroke-dashoffset:0;stroke-opacity:1" />
    <path
       sodipodi:nodetypes="cccc"
       inkscape:connector-curvature="0"
       id="path947"
       d="m 88.264082,53.136508 v -4.810851 c 3.62545,3.767602 7.851037,3.975635 7.784227,4.710626 -0.0668,0.734991 -2.739517,1.637026 -7.784227,0.100225 z"
       style="opacity:0.98999999;fill:#ffffff;fill-opacity:1;fill-rule:nonzero;stroke:#000000;stroke-width:0.26458332;stroke-linecap:butt;stroke-miterlimit:4;stroke-dasharray:none;stroke-dashoffset:0;stroke-opacity:1" />
    <path
       inkscape:connector-curvature="0"
       id="path943"
       d="m 95.630839,53.579622 c 1.17029,0.272656 3.82683,-1.747731 3.45934,-2.749991 -0.3675,-1.002261 -2.43884,-0.400905 -2.87315,-0.06682 -0.43431,0.334087 -1.39338,1.04308 -1.29315,1.677846 0.1124,1.004589 0.33804,1.039109 0.70696,1.138965 z"
       style="opacity:0.98999999;fill:#ffffff;fill-opacity:1;fill-rule:nonzero;stroke:#000000;stroke-width:0.26458332;stroke-linecap:butt;stroke-miterlimit:4;stroke-dasharray:none;stroke-dashoffset:0;stroke-opacity:1"
       sodipodi:nodetypes="ccccc" />
    <path
       inkscape:connector-curvature="0"
       id="path939"
       d="m 104.03466,49.226013 c -1.23612,-0.801808 -5.545841,-0.200452 -5.913341,0.968852 -0.36749,1.169305 0.63477,2.305199 1.60362,2.071339 0.968851,-0.233861 4.109271,-1.069078 4.242901,-1.837478 0.13364,-0.7684 0.0668,-1.202713 0.0668,-1.202713 z"
       style="opacity:0.98999999;fill:#ffffff;fill-opacity:1;fill-rule:nonzero;stroke:#000000;stroke-width:0.26458332;stroke-linecap:butt;stroke-miterlimit:4;stroke-dasharray:none;stroke-dashoffset:0;stroke-opacity:1" />
    <path
       sodipodi:nodetypes="ccsc"
       inkscape:connector-curvature="0"
       id="path941"
       d="m 107.74684,49.562354 v 4.200355 c -1.38903,-1.946133 -2.91716,-1.756856 -4.15774,-3.113673 -1.19896,-1.311295 0.82682,-2.905692 4.15774,-1.086682 z"
       style="opacity:0.98999999;fill:#ffffff;fill-opacity:1;fill-rule:nonzero;stroke:#000000;stroke-width:0.26458332;stroke-linecap:butt;stroke-miterlimit:4;stroke-dasharray:none;stroke-dashoffset:0;stroke-opacity:1" />
    <path
       sodipodi:nodetypes="sscs"
       inkscape:connector-curvature="0"
       id="path945"
       d="m 97.052239,44.615614 c 3.289961,0.434099 4.595171,4.638076 2.15102,6.096186 -4.05042,2.416359 -12.141197,-4.142677 -12.308237,-5.011303 -0.16704,-0.868626 7.56209,-1.427302 10.157217,-1.084883 z"
       style="display:inline;opacity:0.98999999;fill:#ffffff;fill-opacity:1;fill-rule:nonzero;stroke:#000000;stroke-width:0.26458332;stroke-linecap:butt;stroke-miterlimit:4;stroke-dasharray:none;stroke-dashoffset:0;stroke-opacity:1" />
    <circle
       style="opacity:0.98999999;fill:#ffffff;fill-opacity:1;fill-rule:nonzero;stroke:#000000;stroke-width:0.26458332;stroke-linecap:butt;stroke-miterlimit:4;stroke-dasharray:none;stroke-dashoffset:0;stroke-opacity:1"
       id="circle949"
       cx="126.99987"
       cy="45.813217"
       r="1.7953868" />
    <path
       sodipodi:nodetypes="cccc"
       inkscape:connector-curvature="0"
       id="path951"
       d="m 118.30655,53.633703 c 0.44884,1.393788 5.57515,2.267857 5.90588,0.236236 0.33072,-2.031623 -2.83049,-1.8871 -3.86993,-2.170582 -1.03943,-0.283483 -2.03595,1.934346 -2.03595,1.934346 z"
       style="opacity:0.98999999;fill:#ffffff;fill-opacity:1;fill-rule:nonzero;stroke:#000000;stroke-width:0.26458332;stroke-linecap:butt;stroke-miterlimit:4;stroke-dasharray:none;stroke-dashoffset:0;stroke-opacity:1" />
    <path
       inkscape:connector-curvature="0"
       id="path909"
       d="m 126.90551,55.972432 c 0.37797,-1.039434 -2.056,-2.482068 -2.74033,-2.858445 -1.88989,-1.039432 -2.59859,1.393785 -2.36235,1.795385 0.23623,0.401601 3.99237,2.244234 4.37035,1.913505 0.37797,-0.33073 0.73233,-0.850445 0.73233,-0.850445 z"
       style="opacity:0.98999999;fill:#ffffff;fill-opacity:1;fill-rule:nonzero;stroke:#000000;stroke-width:0.26458332;stroke-linecap:butt;stroke-miterlimit:4;stroke-dasharray:none;stroke-dashoffset:0;stroke-opacity:1"
       sodipodi:nodetypes="csccc" />
    <path
       inkscape:connector-curvature="0"
       id="path953"
       d="m 118.35379,48.200296 4.63021,3.307291 c -3.44904,-0.118118 -3.73251,1.630023 -4.63021,2.07887 -0.89769,0.448846 -1.5119,-2.929316 0,-5.386161 z"
       style="opacity:0.98999999;fill:#ffffff;fill-opacity:1;fill-rule:nonzero;stroke:#000000;stroke-width:0.26458332;stroke-linecap:butt;stroke-miterlimit:4;stroke-dasharray:none;stroke-dashoffset:0;stroke-opacity:1" />
    <path
       sodipodi:nodetypes="sscs"
       inkscape:connector-curvature="0"
       id="path955"
       d="m 124.81487,46.286048 c 3.13724,1.08044 2.43883,7.316503 -0.50113,7.617181 -2.93997,0.30068 -9.35444,-5.311981 -10.18965,-7.216276 -0.83522,-1.904296 5.04408,-2.345584 10.69078,-0.400905 z"
       style="opacity:0.98999999;fill:#ffffff;fill-opacity:1;fill-rule:nonzero;stroke:#000000;stroke-width:0.26458332;stroke-linecap:butt;stroke-miterlimit:4;stroke-dasharray:none;stroke-dashoffset:0;stroke-opacity:1" />
    <path
       inkscape:connector-curvature="0"
       id="path957"
       d="m 123.07762,61.019282 h 5.93004 c 0,0 -0.23386,-3.87541 -1.98782,-4.911079 -1.75396,-1.035669 -0.21715,2.756217 -3.94222,4.911079 z"
       style="opacity:0.98999999;fill:#ffffff;fill-opacity:1;fill-rule:nonzero;stroke:#000000;stroke-width:0.26458332;stroke-linecap:butt;stroke-miterlimit:4;stroke-dasharray:none;stroke-dashoffset:0;stroke-opacity:1" />
    <path
       inkscape:connector-curvature="0"
       id="path919"
       d="m 74.006012,54.756813 3.57132,-0.200452 c 1.41741,-4.181361 0.28199,-7.714053 -0.24279,-6.838132 -2.50795,4.186104 -3.32853,7.038584 -3.32853,7.038584 z"
       style="opacity:0.98999999;fill:#ffffff;fill-opacity:1;fill-rule:nonzero;stroke:#000000;stroke-width:0.26458332;stroke-linecap:butt;stroke-miterlimit:4;stroke-dasharray:none;stroke-dashoffset:0;stroke-opacity:1"
       sodipodi:nodetypes="ccsc" />
  </g>
  <g
     inkscape:groupmode="layer"
     id="layer3"
     inkscape:label="GridLayer">
    <rect
       style="opacity:0.98999999;fill:none;fill-opacity:0.99215686;fill-rule:nonzero;stroke:#000000;stroke-width:0.68195766;stroke-linecap:butt;stroke-miterlimit:4;stroke-dasharray:none;stroke-dashoffset:0;stroke-opacity:1"
       id="rect4518"
       width="25.776375"
       height="25.776375"
       x="8.1564541"
       y="10.201095" />
    <rect
       y="10.201095"
       x="33.932831"
       height="25.776375"
       width="25.776375"
       id="rect4520"
       style="opacity:0.98999999;fill:none;fill-opacity:0.99215686;fill-rule:nonzero;stroke:#000000;stroke-width:0.68195766;stroke-linecap:butt;stroke-miterlimit:4;stroke-dasharray:none;stroke-dashoffset:0;stroke-opacity:1" />
    <rect
       style="opacity:0.98999999;fill:none;fill-opacity:0.99215686;fill-rule:nonzero;stroke:#000000;stroke-width:0.68195766;stroke-linecap:butt;stroke-miterlimit:4;stroke-dasharray:none;stroke-dashoffset:0;stroke-opacity:1"
       id="rect4522"
       width="25.776375"
       height="25.776375"
       x="59.709206"
       y="10.201095" />
    <rect
       y="10.201095"
       x="85.48558"
       height="25.776375"
       width="25.776375"
       id="rect4524"
       style="opacity:0.98999999;fill:none;fill-opacity:0.99215686;fill-rule:nonzero;stroke:#000000;stroke-width:0.68195766;stroke-linecap:butt;stroke-miterlimit:4;stroke-dasharray:none;stroke-dashoffset:0;stroke-opacity:1" />
    <rect
       style="opacity:0.98999999;fill:none;fill-opacity:0.99215686;fill-rule:nonzero;stroke:#000000;stroke-width:0.68195766;stroke-linecap:butt;stroke-miterlimit:4;stroke-dasharray:none;stroke-dashoffset:0;stroke-opacity:1"
       id="rect4526"
       width="25.776375"
       height="25.776375"
       x="111.26196"
       y="10.201095" />
    <rect
       style="opacity:0.98999999;fill:none;fill-opacity:0.99215686;fill-rule:nonzero;stroke:#000000;stroke-width:0.68195766;stroke-linecap:butt;stroke-miterlimit:4;stroke-dasharray:none;stroke-dashoffset:0;stroke-opacity:1"
       id="rect959"
       width="25.776375"
       height="25.776375"
       x="33.932831"
       y="35.97747" />
    <rect
       y="35.97747"
       x="59.709198"
       height="25.776375"
       width="25.776375"
       id="rect961"
       style="opacity:0.98999999;fill:none;fill-opacity:0.99215686;fill-rule:nonzero;stroke:#000000;stroke-width:0.68195766;stroke-linecap:butt;stroke-miterlimit:4;stroke-dasharray:none;stroke-dashoffset:0;stroke-opacity:1" />
    <rect
       style="opacity:0.98999999;fill:none;fill-opacity:0.99215686;fill-rule:nonzero;stroke:#000000;stroke-width:0.68195766;stroke-linecap:butt;stroke-miterlimit:4;stroke-dasharray:none;stroke-dashoffset:0;stroke-opacity:1"
       id="rect963"
       width="25.776375"
       height="25.776375"
       x="85.48558"
       y="35.97747" />
    <rect
       y="35.97747"
       x="111.26196"
       height="25.776375"
       width="25.776375"
       id="rect965"
       style="opacity:0.98999999;fill:none;fill-opacity:0.99215686;fill-rule:nonzero;stroke:#000000;stroke-width:0.68195766;stroke-linecap:butt;stroke-miterlimit:4;stroke-dasharray:none;stroke-dashoffset:0;stroke-opacity:1" />
  </g>
  <g
     inkscape:groupmode="layer"
     id="layer2"
     inkscape:label="FreedrawLayer"
     style="display:none">
    <path
       style="fill:none;stroke:#000000;stroke-width:0.26458332px;stroke-linecap:butt;stroke-linejoin:miter;stroke-opacity:1"
       d="m 20.312484,22.681238 c 0.01909,0.0027 0.352052,0.04588 0.400904,0.06682 0.02895,0.01241 0.03757,0.05512 0.06682,0.06682 0.03102,0.01241 0.06747,-0.0066 0.100226,0 0.02442,0.0049 0.04319,0.02554 0.06682,0.03341 0.02113,0.007 0.05107,-0.01575 0.06682,0 0.0079,0.0079 -0.0079,0.02554 0,0.03341 0.0079,0.0079 0.02285,-0.0035 0.03341,0 0.02363,0.0079 0.04455,0.02227 0.06682,0.03341 0.04454,0.02227 0.0922,0.03919 0.133635,0.06682 0.0131,0.0087 0.01932,0.02637 0.03341,0.03341 0.01992,0.01 0.0469,-0.01 0.06682,0 0.03288,0.01644 0.10076,0.117197 0.133635,0.133635 0.01,0.005 0.02553,-0.0079 0.03341,0 0.0079,0.0079 -0.0079,0.02554 0,0.03341 0.0079,0.0079 0.02553,-0.0079 0.03341,0 0.0079,0.0079 -0.005,0.02345 0,0.03341 0.01409,0.02817 0.05273,0.03864 0.06682,0.06682 0.005,0.01 -0.005,0.02345 0,0.03341 0.007,0.01409 0.02636,0.01932 0.03341,0.03341 0.005,0.01 -0.0079,0.02553 0,0.03341 0.0079,0.0079 0.02553,-0.0079 0.03341,0 0.0079,0.0079 -0.005,0.02345 0,0.03341 0.007,0.01409 0.02637,0.01932 0.03341,0.03341 0.005,0.01 -0.005,0.02345 0,0.03341 0.007,0.01409 0.02637,0.01932 0.03341,0.03341 0.005,0.01 -0.005,0.02345 0,0.03341 0.007,0.01409 0.02636,0.01932 0.03341,0.03341 0.005,0.01 -0.005,0.02345 0,0.03341 0.007,0.01409 0.02637,0.01932 0.03341,0.03341 0.0066,0.01325 -0.0068,0.0934 0,0.100226 0.0079,0.0079 0.02554,-0.0079 0.03341,0 0.01173,0.01173 -0.01154,0.143967 0,0.167043 0.04128,0.08257 0.03341,-0.01153 0.03341,0.06682 0,0.0081 -0.0011,0.09915 0,0.100226 0.0079,0.0079 0.02554,-0.0079 0.03341,0 0.0091,0.0091 -0.0091,0.115511 0,0.133635 0.007,0.01409 0.02637,0.01932 0.03341,0.03341 0.01,0.01992 -0.01,0.0469 0,0.06682 0.007,0.01409 0.02636,0.01932 0.03341,0.03341 0.01094,0.02188 -0.0099,0.137396 0,0.167044 0.0079,0.02362 0.02737,0.04266 0.03341,0.06682 0.0054,0.02161 -0.007,0.04569 0,0.06682 0.005,0.01494 0.02637,0.01932 0.03341,0.03341 0.01054,0.02108 -0.01054,0.145967 0,0.167044 0.007,0.01409 0.02637,0.01932 0.03341,0.03341 0.01,0.01992 -0.01,0.0469 0,0.06682 0.007,0.01409 0.02637,0.01932 0.03341,0.03341 0.005,0.0099 0,0.186399 0,0.200453 0,0.155907 0,0.311814 0,0.467721 0,0.122499 0,0.244997 0,0.367496 0,0.02666 0.0067,0.147 0,0.167043 -0.0079,0.02362 -0.02554,0.04319 -0.03341,0.06682 -0.0035,0.01056 0,0.02227 0,0.03341 0,0.02227 0,0.04454 0,0.06682 0,0.07795 0,0.155908 0,0.233862 0,0.02228 0,0.04454 0,0.06681 0,0.01114 0.0035,0.02283 0,0.03341 -0.0079,0.02363 -0.02554,0.0432 -0.03341,0.06682 -0.0068,0.02037 0,0.174649 0,0.200453 0,0.01114 0.005,0.02344 0,0.03341 -0.007,0.01408 -0.02227,0.02228 -0.03341,0.03341 0,0.02228 0.007,0.04569 0,0.06682 -0.005,0.01495 -0.02637,0.01931 -0.03341,0.03341 -0.005,0.0099 0,0.02228 0,0.03341 0,0.02228 0.0054,0.04521 0,0.06682 -0.006,0.02416 -0.02554,0.04319 -0.03341,0.06682 -0.0035,0.01056 0.005,0.02344 0,0.03341 -0.07645,0.152898 0.01384,-0.141769 -0.06682,0.100224 -0.0035,0.01056 0.005,0.02344 0,0.03341 -0.01409,0.02817 -0.05686,0.03694 -0.06682,0.06682 -0.007,0.02114 0.0054,0.04521 0,0.06682 -0.006,0.02416 -0.02227,0.04454 -0.03341,0.06682 -0.01114,0.02228 -0.01959,0.0461 -0.03341,0.06681 -0.0087,0.0131 -0.02637,0.01931 -0.03341,0.03341 -0.005,0.0099 0.005,0.02344 0,0.03341 -0.007,0.01408 -0.02467,0.02029 -0.03341,0.03341 -0.02763,0.04144 -0.03919,0.0922 -0.06682,0.133636 -0.0087,0.0131 -0.02227,0.02228 -0.03341,0.03341 -0.01114,0.01114 -0.02467,0.02029 -0.03341,0.03341 -0.01381,0.02072 -0.01959,0.04609 -0.03341,0.06681 -0.01747,0.02622 -0.04935,0.04061 -0.06682,0.06682 -0.02035,0.03052 -0.02852,0.08108 -0.06682,0.100226 -0.04608,0.02305 -0.02988,-0.04046 -0.06682,0.03341 -0.005,0.0099 0.0062,0.02416 0,0.03341 -0.01747,0.02622 -0.05273,0.03864 -0.06682,0.06682 -0.01,0.01992 0.007,0.04569 0,0.06682 -0.005,0.01495 -0.02227,0.02228 -0.03341,0.03341 -0.03341,0.03341 -0.06243,0.07188 -0.100226,0.100227 -0.01992,0.01495 -0.0469,0.01847 -0.06682,0.03341 -0.0252,0.01889 -0.04454,0.04454 -0.06682,0.06682 -0.02227,0.02228 -0.04454,0.04454 -0.06682,0.06682 -0.03341,0.03341 -0.07188,0.06243 -0.100226,0.100224 -0.01494,0.01992 -0.0158,0.04921 -0.03341,0.06682 -0.08439,0.08439 -0.03851,0.01283 -0.100227,0.03341 -0.02362,0.0079 -0.0461,0.01961 -0.06682,0.03341 -0.0131,0.0087 -0.02227,0.02228 -0.03341,0.03341 -0.01114,0.01114 -0.02636,0.01931 -0.03341,0.03341 -0.005,0.0099 0.0079,0.02553 0,0.03341 -0.08439,0.08439 -0.03851,0.01283 -0.100226,0.03341 -0.06068,0.02021 -0.062,0.02859 -0.100226,0.06682 -0.01114,0.01114 -0.0203,0.02466 -0.03341,0.03341 -0.02072,0.01381 -0.0469,0.01847 -0.06682,0.03341 -0.144502,0.144502 0.0089,0.0052 -0.133634,0.100226 -0.0131,0.0087 -0.02227,0.02228 -0.03341,0.03341 -0.02227,0.02228 -0.04454,0.04455 -0.06682,0.06682 -0.02227,0.02228 -0.04162,0.04792 -0.06682,0.06681 -0.03984,0.02988 -0.09379,0.03694 -0.133634,0.06682 -0.0252,0.01889 -0.04162,0.04792 -0.06682,0.06682 -0.01992,0.01495 -0.0461,0.01961 -0.06682,0.03341 -0.0131,0.0087 -0.02081,0.02395 -0.03341,0.03341 -0.06424,0.04818 -0.137745,0.08347 -0.200452,0.133633 -0.103581,0.08287 -0.02994,0.06508 -0.167044,0.133636 -0.0315,0.01574 -0.07003,0.01529 -0.100226,0.03341 -0.05402,0.03241 -0.07962,0.101224 -0.133634,0.133636 -0.0302,0.01812 -0.07003,0.01529 -0.100226,0.03341 -0.02701,0.01619 -0.03864,0.05273 -0.06682,0.06682 -0.01992,0.0099 -0.04569,-0.007 -0.06682,0 -0.02535,0.0084 -0.102931,0.118284 -0.133635,0.133636 -0.01,0.005 -0.02414,-0.0062 -0.03341,0 -0.05242,0.03494 -0.08444,0.09428 -0.133634,0.133635 -0.03135,0.02508 -0.06682,0.04454 -0.100226,0.06682 -0.03341,0.02228 -0.06431,0.04886 -0.100227,0.06682 -0.0315,0.01574 -0.06873,0.01765 -0.100226,0.03341 -0.03591,0.01797 -0.06536,0.0469 -0.100226,0.06682 -0.04324,0.02471 -0.0922,0.03919 -0.133634,0.06682 -0.02621,0.01746 -0.04061,0.04935 -0.06682,0.06682 -0.0093,0.0062 -0.02227,0 -0.03341,0 -0.02227,0 -0.0469,-0.0099 -0.06682,0 -0.01,0.005 0,0.02228 0,0.03341 -0.01114,0.01114 -0.01847,0.02843 -0.03341,0.03341 -0.02113,0.007 -0.04569,-0.007 -0.06682,0 -0.02974,0.0099 -0.07049,0.09032 -0.100226,0.100227 -0.02113,0.007 -0.04521,-0.0054 -0.06682,0 -0.02416,0.006 -0.04454,0.02228 -0.06682,0.03341 -0.04454,0.02228 -0.08909,0.04454 -0.133635,0.06682 -0.02227,0.01114 -0.04319,0.02553 -0.06682,0.03341 -0.02113,0.007 -0.0469,-0.0099 -0.06682,0 -0.01409,0.007 -0.01932,0.02638 -0.03341,0.03341 -0.08909,0 0.01114,-0.01114 -0.03341,0.03341 -0.0079,0.0079 -0.02284,-0.0035 -0.03341,0 -0.02363,0.0079 -0.0437,0.02416 -0.06682,0.03341 -0.0327,0.01307 -0.06682,0.02228 -0.100226,0.03341 -0.06682,0.02228 -0.133635,0.04454 -0.200452,0.06682 -0.03341,0.01114 -0.06569,0.0265 -0.100226,0.03341 -0.0013,2.56e-4 -0.100062,-1.64e-4 -0.100226,0 -0.0079,0.0079 0.0079,0.02553 0,0.03341 -0.01575,0.01574 -0.0469,-0.0099 -0.06682,0 -0.01409,0.007 -0.01932,0.02635 -0.03341,0.03341 -0.06061,0.0303 -0.216441,0.06046 -0.26727,0.06682 -0.03315,0.0042 -0.06747,-0.0066 -0.100226,0 -0.02442,0.0049 -0.0437,0.02416 -0.06682,0.03341 -0.0327,0.01307 -0.06682,0.02228 -0.100226,0.03341 -0.03341,0.01114 -0.06606,0.02487 -0.100226,0.03341 -0.02161,0.0054 -0.0469,-0.0099 -0.06682,0 -0.01409,0.007 -0.01932,0.02635 -0.03341,0.03341 -0.01,0.005 -0.02227,0 -0.03341,0 -0.01114,0 -0.02345,-0.005 -0.03341,0 -0.01409,0.007 -0.01847,0.02843 -0.03341,0.03341 -0.02113,0.007 -0.04498,-0.0044 -0.06682,0 -0.173799,0.03476 -0.03341,0.02228 -0.167043,0.06682 -0.04356,0.01453 -0.08818,0.02692 -0.133635,0.03341 -0.03307,0.0047 -0.06682,0 -0.100226,0 -0.01114,0 -0.02284,-0.0035 -0.03341,0 -0.02362,0.0079 -0.04319,0.02553 -0.06682,0.03341 -0.0317,0.01056 -0.09913,-0.0086 -0.133635,0 -0.03416,0.0085 -0.06569,0.0265 -0.100226,0.03341 -0.02184,0.0044 -0.04455,0 -0.06682,0 -0.03341,0 -0.06682,0 -0.100227,0 -0.03341,0 -0.06682,0 -0.100226,0 -0.01114,0 -0.02989,0.01056 -0.03341,0 -0.0075,-0.02259 0,-0.160007 0,-0.200454 0,-0.167042 0,-0.334086 0,-0.501128 0,-0.178181 0,-0.35636 0,-0.534541 0,-0.04454 0,-0.08909 0,-0.133633 0,-0.02228 -0.0044,-0.04498 0,-0.06682 0.0069,-0.03453 0.02487,-0.06606 0.03341,-0.100226 0.0054,-0.02162 0,-0.04455 0,-0.06682 0,-0.05568 0,-0.111361 0,-0.167042 0,-0.05568 -0.01092,-0.112446 0,-0.167045 0.0049,-0.02442 0.02737,-0.04266 0.03341,-0.06682 0.0054,-0.02162 -0.0044,-0.04498 0,-0.06682 0.0069,-0.03453 0.02227,-0.06682 0.03341,-0.100227 0.01114,-0.03341 0.02227,-0.06682 0.03341,-0.100227 0.01114,-0.03341 0.0085,-0.07532 0.03341,-0.100227 0.10765,-0.107648 0.135491,-0.0074 0.167044,-0.133633 0.0054,-0.02162 0,-0.04454 0,-0.06682 0,-0.03341 0,-0.06682 0,-0.100226 0,-0.03341 -0.0066,-0.06747 0,-0.100227 0.0049,-0.02442 0.02227,-0.04454 0.03341,-0.06682 0.0297,-0.05939 0.05306,-0.09824 0.06682,-0.167045 0.0044,-0.02183 -0.0044,-0.04498 0,-0.06682 0.0069,-0.03453 0.02227,-0.06681 0.03341,-0.100224 0.01114,-0.03341 0.01766,-0.06873 0.03341,-0.100227 0.007,-0.01408 0.03032,-0.01797 0.03341,-0.03341 0.0087,-0.04368 -0.0073,-0.0897 0,-0.133636 0.0041,-0.02455 0.02853,-0.0424 0.03341,-0.06682 0.0066,-0.03276 -0.01056,-0.06853 0,-0.100227 0.0127,-0.03809 0.051,-0.06332 0.06682,-0.100226 0.01809,-0.0422 0.02079,-0.08948 0.03341,-0.133636 0.0097,-0.03386 0.02373,-0.06636 0.03341,-0.100224 0.01261,-0.04415 0.01532,-0.09143 0.03341,-0.133636 0.01582,-0.03691 0.05272,-0.06263 0.06682,-0.100227 0.01994,-0.05317 0.01347,-0.113874 0.03341,-0.167042 4.23e-4,-0.0011 0.130776,-0.195688 0.133635,-0.200454 0.08758,-0.145957 -0.0288,0.02418 0.06682,-0.167042 0.01796,-0.03591 0.04886,-0.06431 0.06682,-0.100226 0.01575,-0.0315 0.02033,-0.06753 0.03341,-0.100227 0.02765,-0.06912 0.07258,-0.131329 0.100226,-0.200451 0.01308,-0.0327 0.01766,-0.06873 0.03341,-0.100227 0.112636,-0.168952 0.03107,-0.02755 0.100226,-0.200451 0.0092,-0.02313 0.02853,-0.0424 0.03341,-0.06682 0.0066,-0.03276 -0.0066,-0.06747 0,-0.100226 0.0049,-0.02442 0.02227,-0.04454 0.03341,-0.06682 0.04029,-0.08058 0.04109,-0.0745 0.100226,-0.133635 0.02227,-0.02227 0.05512,-0.03757 0.06682,-0.06682 0.01241,-0.03102 -0.0066,-0.06747 0,-0.100227 0.0049,-0.02442 0.02227,-0.04454 0.03341,-0.06682 0.01323,-0.02645 0.05359,-0.107183 0.06682,-0.133635 0.01114,-0.02227 0.01847,-0.0469 0.03341,-0.06682 0.157357,-0.20981 -0.02988,0.105479 0.133635,-0.167044 0.05067,-0.08445 0.08957,-0.179144 0.133634,-0.267269 0.01114,-0.02227 0.02227,-0.04454 0.03341,-0.06682 0.01114,-0.02227 0.01847,-0.0469 0.03341,-0.06682 0.0189,-0.0252 0.05273,-0.03864 0.06682,-0.06682 0.01,-0.01992 -0.01,-0.0469 0,-0.06682 0.002,-0.004 0.127756,-0.125796 0.133635,-0.133634 0.02988,-0.03984 0.03693,-0.09379 0.06682,-0.133635 0.0189,-0.0252 0.04792,-0.04162 0.06682,-0.06682 0.02988,-0.03984 0.0316,-0.09842 0.06682,-0.133635 0.01761,-0.01761 0.05188,-0.01349 0.06682,-0.03341 0.02113,-0.02817 0.01228,-0.07205 0.03341,-0.100226 0.01494,-0.01992 0.05188,-0.01349 0.06682,-0.03341 0.02113,-0.02817 0.01529,-0.07003 0.03341,-0.100226 0.01621,-0.02701 0.04455,-0.04455 0.06682,-0.06682 0.02227,-0.02227 0.03981,-0.05061 0.06682,-0.06682 0.0302,-0.01812 0.07003,-0.01529 0.100226,-0.03341 0.02701,-0.01621 0.04061,-0.04935 0.06682,-0.06682 0.04144,-0.02763 0.09039,-0.04211 0.133635,-0.06682 0.03486,-0.01992 0.06431,-0.04886 0.100226,-0.06682 0.0315,-0.01575 0.06873,-0.01766 0.100226,-0.03341 0.03591,-0.01796 0.0658,-0.04616 0.100226,-0.06682 0.04271,-0.02562 0.0922,-0.03919 0.133635,-0.06682 0.0131,-0.0087 0.0203,-0.02467 0.03341,-0.03341 0.02072,-0.01381 0.0461,-0.0196 0.06682,-0.03341 0.0131,-0.0087 0.0203,-0.02467 0.03341,-0.03341 0.02227,-0.01114 0.04454,-0.02227 0.06682,-0.03341 0.01114,0 0.02345,0.005 0.03341,0 0.01409,-0.007 0.0203,-0.02467 0.03341,-0.03341 0.02072,-0.01381 0.0461,-0.01959 0.06682,-0.03341 0.02621,-0.01747 0.03864,-0.05273 0.06682,-0.06682 0.01,-0.005 0.02284,0.0035 0.03341,0 0.04725,-0.01575 0.08639,-0.05107 0.133635,-0.06682 0.01056,-0.0035 0.02227,0 0.03341,0 0.03341,0 0.06747,0.0066 0.100226,0 0.02442,-0.0049 0.04266,-0.02737 0.06682,-0.03341 0.02161,-0.0054 0.04454,0 0.06682,0 0.03341,0 0.06682,0 0.100226,0 0.02227,0 0.04569,0.007 0.06682,0 0.01494,-0.005 0.02227,-0.02227 0.03341,-0.03341 0.03341,-0.01114 0.0657,-0.0265 0.100226,-0.03341 0.02184,-0.0044 0.04454,0 0.06682,0 0.02227,-0.01114 0.04266,-0.02737 0.06682,-0.03341 0.02161,-0.0054 0.04569,0.007 0.06682,0 0.01494,-0.005 0.01847,-0.02843 0.03341,-0.03341 0.02113,-0.007 0.04569,0.007 0.06682,0 0.01494,-0.005 0.01847,-0.02843 0.03341,-0.03341 0.02113,-0.007 0.04569,0.007 0.06682,0 0.01494,-0.005 0.01932,-0.02637 0.03341,-0.03341 0.01,-0.005 0.02227,0 0.03341,0 0.01114,-0.01114 0.01932,-0.02637 0.03341,-0.03341 0.01,-0.005 0.02284,0.0035 0.03341,0 0.02362,-0.0079 0.04266,-0.02737 0.06682,-0.03341 0.02161,-0.0054 0.04569,0.007 0.06682,0 0.01494,-0.005 0.01932,-0.02637 0.03341,-0.03341 0.02673,-0.01336 0.0735,0.01336 0.100226,0 0.01409,-0.007 0.01847,-0.02843 0.03341,-0.03341 0.04226,-0.01409 0.08995,0.0087 0.133634,0 0.281291,-0.05626 0.001,-5.03e-4 0.133635,-0.06682 0.01992,-0.01 0.0469,0.01 0.06682,0 0.01409,-0.007 0.01932,-0.02636 0.03341,-0.03341 0.01,-0.005 0.02284,0.0035 0.03341,0 0.115167,-0.03839 0.02475,-0.03341 0.100226,-0.03341"
       id="path4539"
       inkscape:connector-curvature="0" />
    <path
       style="fill:none;stroke:#000000;stroke-width:0.26458332px;stroke-linecap:butt;stroke-linejoin:miter;stroke-opacity:1"
       d="m 21.94951,22.547603 c 0.08707,0.04837 0.180198,0.08526 0.267269,0.133635 0.05676,0.03153 0.106753,0.07611 0.167044,0.100226 0.05272,0.02109 0.111612,0.02109 0.167043,0.03341 0.04482,0.01 0.09008,0.01889 0.133635,0.03341 0.05689,0.01897 0.10938,0.05034 0.167043,0.06682 0.02142,0.0061 0.04454,0 0.06682,0 0.04455,0.01114 0.09064,0.01728 0.133634,0.03341 0.26727,0.100226 0.03341,0.03341 0.200453,0.100226 0.0327,0.01308 0.07205,0.01228 0.100226,0.03341 0.01992,0.01494 0.0158,0.04921 0.03341,0.06682 0.01761,0.01761 0.0461,0.0196 0.06682,0.03341 0.0131,0.0087 0.0203,0.02467 0.03341,0.03341 0.02072,0.01381 0.0469,0.01847 0.06682,0.03341 0.0252,0.0189 0.03981,0.05061 0.06682,0.06682 0.0302,0.01812 0.07003,0.01529 0.100226,0.03341 0.02701,0.0162 0.04162,0.04792 0.06682,0.06682 0.01992,0.01494 0.0469,0.01847 0.06682,0.03341 0.0252,0.0189 0.04162,0.04792 0.06682,0.06682 0.03984,0.02988 0.0922,0.03919 0.133635,0.06682 0.0131,0.0087 0.02227,0.02227 0.03341,0.03341 0.01114,0.01114 0.02467,0.0203 0.03341,0.03341 0.0463,0.06945 0.0121,0.05645 0.06682,0.100226 0.04348,0.03478 0.08832,0.06786 0.133635,0.100226 0.03267,0.02334 0.07183,0.03843 0.100226,0.06682 0.01761,0.01761 0.01847,0.0469 0.03341,0.06682 0.09918,0.132244 0.03554,0.0021 0.167044,0.133635 0.01761,0.01761 0.0158,0.04921 0.03341,0.06682 0.01761,0.01761 0.04921,0.0158 0.06682,0.03341 0.01761,0.01761 0.01959,0.0461 0.03341,0.06682 0.0087,0.0131 0.02467,0.0203 0.03341,0.03341 0.01381,0.02072 0.0196,0.0461 0.03341,0.06682 0.0087,0.0131 0.02467,0.0203 0.03341,0.03341 0.02763,0.04144 0.03694,0.09379 0.06682,0.133634 0.0189,0.0252 0.05061,0.03981 0.06682,0.06682 0.01812,0.0302 0.01766,0.06873 0.03341,0.100226 0.007,0.01409 0.02227,0.02227 0.03341,0.03341 0.02227,0.02227 0.04792,0.04162 0.06682,0.06682 0.02988,0.03984 0.03694,0.09379 0.06682,0.133635 0.0378,0.0504 0.09584,0.08324 0.133635,0.133635 0.02988,0.03984 0.04119,0.09093 0.06682,0.133634 0.02066,0.03443 0.04616,0.0658 0.06682,0.100226 0.02562,0.04271 0.04119,0.09093 0.06682,0.133635 0.02066,0.03443 0.04616,0.0658 0.06682,0.100226 0.02562,0.04271 0.04119,0.09093 0.06682,0.133635 0.02066,0.03443 0.04616,0.0658 0.06682,0.100226 0.02562,0.04271 0.03919,0.0922 0.06682,0.133635 0.0087,0.0131 0.02637,0.01932 0.03341,0.03341 0.01575,0.0315 0.02033,0.06753 0.03341,0.100227 0.0185,0.04624 0.05107,0.08639 0.06682,0.133634 0.007,0.02113 -0.01,0.0469 0,0.06682 0.007,0.01409 0.02227,0.02227 0.03341,0.03341 0,0.02227 -0.0054,0.04521 0,0.06682 0.006,0.02416 0.02416,0.0437 0.03341,0.06682 0.01308,0.0327 0.02227,0.06682 0.03341,0.100227 0.01114,0.03341 0.02487,0.06606 0.03341,0.100224 0.0027,0.0108 -0.0035,0.02283 0,0.03341 0.0079,0.02363 0.02852,0.0424 0.03341,0.06682 0.0131,0.06552 -0.0131,0.134932 0,0.200454 0.0049,0.02442 0.02227,0.04454 0.03341,0.06681 0.01114,0.03341 0.02762,0.06549 0.03341,0.100227 0.0055,0.03295 -0.0047,0.06715 0,0.100226 0.06631,0.464175 -0.0017,-0.07359 0.06682,0.200451 0.0054,0.02162 -0.0054,0.04521 0,0.06682 0.006,0.02416 0.02852,0.0424 0.03341,0.06682 0.01071,0.05354 -0.01071,0.113504 0,0.167042 0.0069,0.03453 0.0265,0.0657 0.03341,0.100227 0.0087,0.04368 0,0.08909 0,0.133636 0,0.06682 0,0.133633 0,0.200451 0,0.03341 -0.0081,0.06781 0,0.100226 0.006,0.02416 0.02853,0.0424 0.03341,0.06682 0,0.189995 -0.01494,0.02199 0.03341,0.167042 0.0063,0.01884 0,0.07827 0,0.100227 0,0.06682 0,0.133636 0,0.200454 0,0.04454 -0.0073,0.08969 0,0.133633 0.0075,0.04529 0.02586,0.08834 0.03341,0.133636 0.0074,0.04454 -0.01114,0.128066 0,0.167042 0.07475,0.261644 0.04727,0.01794 0.133634,0.233862 0.0083,0.02069 0,0.04455 0,0.06682 0,0.08909 0,0.178181 0,0.267271 0,0.133633 0,0.267269 0,0.400905 0,0.0087 -0.0056,0.183655 0,0.200451 0.0079,0.02363 0.02553,0.04319 0.03341,0.06682 0.0035,0.01056 0,0.02228 0,0.03341 0,0.02228 0,0.04455 0,0.06682 0,0.100224 0,0.200451 0,0.300678 0,0.08909 0,0.178178 0,0.267269 0,0.01506 0.0051,0.09006 0,0.100227 -0.007,0.01408 -0.02635,0.01931 -0.03341,0.03341 -0.01336,0.02672 0.01336,0.0735 0,0.100224 -0.04128,0.08257 -0.03341,-0.01154 -0.03341,0.06682 0,0.01228 0.0013,0.132291 0,0.133635 -0.0079,0.0079 -0.02553,-0.0079 -0.03341,0 -0.0079,0.0079 0.0035,0.02283 0,0.03341 -0.0079,0.02363 -0.02553,0.04319 -0.03341,0.06682 -0.01114,0.03341 0.02362,0.04781 -0.03341,0.06682 -0.07822,0.02606 -0.05414,-0.0027 -0.100226,-0.03341 -0.04144,-0.02763 -0.0922,-0.03919 -0.133635,-0.06682 -0.01389,-0.0093 -0.127661,-0.121687 -0.133635,-0.133635 -0.005,-0.0099 0.0079,-0.02553 0,-0.03341 -0.0079,-0.0079 -0.02553,0.0079 -0.03341,0 -0.0079,-0.0079 0,-0.02228 0,-0.03341 -0.01114,0 -0.02554,0.0079 -0.03341,0 -0.01761,-0.0176 -0.01959,-0.0461 -0.03341,-0.06682 -0.0087,-0.0131 -0.02637,-0.01932 -0.03341,-0.03341 -0.005,-0.0099 0,-0.02228 0,-0.03341 -0.02227,-0.03341 -0.03843,-0.07184 -0.06682,-0.100227 -0.01761,-0.01762 -0.04921,-0.0158 -0.06682,-0.03341 -0.01761,-0.0176 -0.0196,-0.0461 -0.03341,-0.06682 -0.0087,-0.0131 -0.02637,-0.01931 -0.03341,-0.03341 -0.005,-0.0099 0.005,-0.02344 0,-0.03341 -0.01409,-0.02817 -0.05273,-0.03865 -0.06682,-0.06682 -0.01575,-0.0315 -0.01766,-0.06873 -0.03341,-0.100224 -0.007,-0.01408 -0.02467,-0.02029 -0.03341,-0.03341 -0.02763,-0.04144 -0.03693,-0.09379 -0.06682,-0.133636 -0.0189,-0.02519 -0.04792,-0.04162 -0.06682,-0.06682 -0.01494,-0.01992 -0.02227,-0.04454 -0.03341,-0.06682 -0.02227,-0.04454 -0.04454,-0.08909 -0.06682,-0.133635 -0.01114,-0.02228 -0.02227,-0.04455 -0.03341,-0.06682 -0.01114,-0.02228 -0.02737,-0.04266 -0.03341,-0.06682 -0.0054,-0.02162 0.007,-0.04569 0,-0.06682 -0.005,-0.01495 -0.02467,-0.02032 -0.03341,-0.03341 -0.01381,-0.02072 -0.02553,-0.0432 -0.03341,-0.06682 -0.0035,-0.01056 0.0035,-0.02283 0,-0.03341 -0.0079,-0.02363 -0.02553,-0.04319 -0.03341,-0.06682 -0.0035,-0.01056 0.0035,-0.02283 0,-0.03341 -0.0079,-0.02363 -0.02416,-0.0437 -0.03341,-0.06682 -0.01308,-0.0327 -0.02033,-0.06753 -0.03341,-0.100224 0.01859,-0.04348 -0.05314,-0.07288 -0.06682,-0.100227 -0.01575,-0.0315 -0.02033,-0.06753 -0.03341,-0.100227 -0.0185,-0.04624 -0.05107,-0.08639 -0.06682,-0.133633 -0.0035,-0.01056 0.0035,-0.02283 0,-0.03341 -0.02324,-0.06972 -0.07699,-0.09733 -0.100226,-0.167044 -0.0035,-0.01056 0.005,-0.02344 0,-0.03341 -0.01409,-0.02817 -0.05273,-0.03865 -0.06682,-0.06682 -0.005,-0.0099 0.005,-0.02344 0,-0.03341 -0.007,-0.01408 -0.02637,-0.01932 -0.03341,-0.03341 -0.005,-0.0099 0.005,-0.02344 0,-0.03341 -0.007,-0.01408 -0.02467,-0.02029 -0.03341,-0.03341 -0.01381,-0.02072 -0.0196,-0.0461 -0.03341,-0.06682 -0.01747,-0.02622 -0.05273,-0.03864 -0.06682,-0.06682 -0.04114,-0.08228 0.09698,0.03016 -0.03341,-0.100227 -0.0079,-0.0079 -0.02554,0.0079 -0.03341,0 -0.0079,-0.0079 0.0035,-0.02283 0,-0.03341 -0.0079,-0.02363 -0.0196,-0.0461 -0.03341,-0.06682 0.0033,-0.06619 -0.04921,-0.0158 -0.06682,-0.03341 -0.01761,-0.01762 -0.01847,-0.0469 -0.03341,-0.06682 -0.0378,-0.0504 -0.09584,-0.08324 -0.133635,-0.133636 -0.01494,-0.01992 -0.0158,-0.04921 -0.03341,-0.06682 -0.01761,-0.0176 -0.0469,-0.01847 -0.06682,-0.03341 -0.0252,-0.01889 -0.04222,-0.04714 -0.06682,-0.06682 -0.03135,-0.02508 -0.0681,-0.04273 -0.100226,-0.06682 -0.05107,-0.0383 -0.02629,-0.03943 -0.06682,-0.100226 -0.0554,-0.0831 -0.0077,-0.0038 -0.06682,-0.03341 -0.04009,-0.02006 -0.06014,-0.08018 -0.100226,-0.100224 -0.01,-0.005 -0.02345,0.005 -0.03341,0 -0.01409,-0.007 -0.0203,-0.02469 -0.03341,-0.03341 -0.02072,-0.01381 -0.04921,-0.0158 -0.06682,-0.03341 -0.01761,-0.0176 -0.01269,-0.053 -0.03341,-0.06682 -0.01853,-0.01236 -0.04569,0.007 -0.06682,0 -0.01494,-0.005 -0.0203,-0.02466 -0.03341,-0.03341 -0.02072,-0.01381 -0.0461,-0.01961 -0.06682,-0.03341 -0.04112,-0.02741 -0.0257,-0.0394 -0.06682,-0.06682 -0.168774,-0.112514 -7.68e-4,-2.57e-4 -0.100226,-0.03341 -0.241993,-0.08066 0.05267,0.0096 -0.100227,-0.06682 -0.01,-0.005 -0.02553,0.0079 -0.03341,0 -0.0079,-0.0079 0.0079,-0.02553 0,-0.03341 -0.0079,-0.0079 -0.02345,0.005 -0.03341,0 -0.07604,-0.07604 0.0069,-0.0088 -0.06682,-0.03341 -0.02363,-0.0079 -0.0461,-0.01961 -0.06682,-0.03341 -0.0131,-0.0087 -0.01847,-0.02843 -0.03341,-0.03341 -0.05011,-0.01669 -0.116931,0.01669 -0.167044,0 -0.01494,-0.005 -0.01847,-0.02843 -0.03341,-0.03341 -0.02113,-0.007 -0.04454,0 -0.06682,0 -0.01114,0 -0.02345,0.005 -0.03341,0 -0.01409,-0.007 -0.01932,-0.02635 -0.03341,-0.03341 -0.01992,-0.0099 -0.0469,0.0099 -0.06682,0 -0.01409,-0.007 -0.01847,-0.02843 -0.03341,-0.03341 -0.02113,-0.007 -0.04521,0.0054 -0.06682,0 -0.02416,-0.006 -0.04454,-0.02228 -0.06682,-0.03341 -0.03341,-0.01114 -0.06569,-0.0265 -0.100226,-0.03341 -0.02184,-0.0044 -0.04455,0 -0.06682,0 -0.03341,0 -0.06682,0 -0.100226,0 -0.02227,0 -0.06199,0.02175 -0.06682,0 -0.02173,-0.09782 2.4e-5,-0.200414 3.7e-5,-0.300619"
       id="path4541"
       inkscape:connector-curvature="0" />
    <path
       style="fill:none;stroke:#000000;stroke-width:0.26458332px;stroke-linecap:butt;stroke-linejoin:miter;stroke-opacity:1"
       d="m 20.512987,22.881749 c 0.233844,0.03339 0.470278,0.052 0.701531,0.100167 0.03931,0.0082 0.06682,0.04455 0.100227,0.06682 0.03341,0.02227 0.06682,0.04455 0.100226,0.06682 0.03341,0.02227 0.07183,0.03843 0.100226,0.06682 0.0079,0.0079 0,0.02227 0,0.03341 0.02227,0.02227 0.04162,0.04792 0.06682,0.06682 0.01992,0.01494 0.0469,0.01847 0.06682,0.03341 0.0252,0.0189 0.04454,0.04455 0.06682,0.06682 0.01114,0.01114 0.02467,0.0203 0.03341,0.03341 0.01381,0.02072 0.0158,0.04921 0.03341,0.06682 0.0079,0.0079 0.02554,-0.0079 0.03341,0 0.0079,0.0079 -0.005,0.02345 0,0.03341 0.01409,0.02817 0.05273,0.03864 0.06682,0.06682 0.005,0.01 -0.005,0.02345 0,0.03341 0.06952,0.139039 -0.0023,-0.03571 0.06682,0.03341 0.0079,0.0079 -0.005,0.02345 0,0.03341 0.007,0.01409 0.02636,0.01932 0.03341,0.03341 0.01,0.01992 -0.01,0.0469 0,0.06682 0.007,0.01409 0.02637,0.01932 0.03341,0.03341 0.005,0.01 -0.0035,0.02284 0,0.03341 0.0079,0.02362 0.02553,0.04319 0.03341,0.06682 0.0035,0.01056 -0.005,0.02345 0,0.03341 0.007,0.01409 0.02227,0.02227 0.03341,0.03341 0.01114,0.01114 0.02637,0.01932 0.03341,0.03341 0.01,0.01992 -0.007,0.04569 0,0.06682 0.0079,0.02363 0.02554,0.04319 0.03341,0.06682 0.0035,0.01056 -0.0035,0.02284 0,0.03341 0.08066,0.241993 -0.0096,-0.05267 0.06682,0.100226 0.005,0.01 -0.005,0.02345 0,0.03341 0.007,0.01409 0.02637,0.01932 0.03341,0.03341 0.0105,0.021 -0.0105,0.112637 0,0.133635 0.01409,0.02817 0.05686,0.03694 0.06682,0.06682 0.0167,0.05011 -0.01671,0.116931 0,0.167044 0.04128,0.12385 0.03341,-0.04072 0.03341,0.06682 0,0.02829 -0.006,0.115674 0,0.133635 0.005,0.01494 0.02843,0.01847 0.03341,0.03341 0.01002,0.03007 -0.01002,0.07016 0,0.100226 0.01114,0.02227 0.02227,0.04454 0.03341,0.06682 0,0.01114 -0.0035,0.02284 0,0.03341 0.0079,0.02362 0.02737,0.04266 0.03341,0.06682 0.0041,0.01628 -0.0088,0.115969 0,0.133635 0.007,0.01409 0.02637,0.01932 0.03341,0.03341 0.0099,0.01971 -0.0077,0.07725 0,0.100226 0.0079,0.02362 0.02554,0.04319 0.03341,0.06682 0.0066,0.01971 0,0.148377 0,0.167044 0,0.01114 -0.005,0.02345 0,0.03341 0.007,0.01409 0.02843,0.01847 0.03341,0.03341 0.007,0.02113 0,0.04454 0,0.06682 0,0.07795 0,0.155908 0,0.233861 0,0.03831 -0.0087,0.09903 0,0.133635 0.006,0.02416 0.02554,0.04319 0.03341,0.06682 0.0035,0.01056 0,0.02227 0,0.03341 0,0.03946 -0.0066,0.180585 0,0.200453 0.005,0.01495 0.02637,0.01932 0.03341,0.03341 0.0058,0.01164 0,0.175927 0,0.200451 0,0.04454 0,0.08909 0,0.133636 0,0.01114 0,0.02228 0,0.03341 0,0.01114 0.005,0.02344 0,0.03341 -0.007,0.01408 -0.02636,0.01932 -0.03341,0.03341 -0.0051,0.01016 0,0.08518 0,0.100227 0,0.08909 0,0.178181 0,0.267268 0,0.189318 0,0.378632 0,0.56795 0,0.06682 0,0.133633 0,0.200451 0,0.01114 0,0.02228 0,0.03341 0,0.01114 0.005,0.02344 0,0.03341 -0.007,0.01408 -0.02637,0.01931 -0.03341,0.03341 -0.01336,0.02673 0.01336,0.0735 0,0.100227 -0.007,0.01408 -0.02637,0.01931 -0.03341,0.03341 -0.01336,0.02673 0.01337,0.0735 0,0.100224 -0.007,0.01408 -0.02843,0.01847 -0.03341,0.03341 -0.0076,0.02273 0.0089,0.149331 0,0.167045 -0.007,0.01408 -0.02637,0.01931 -0.03341,0.03341 -0.0043,0.0086 0,0.176771 0,0.200451 0,0.01114 0.0079,0.02553 0,0.03341 -0.0079,0.0079 -0.02554,-0.0079 -0.03341,0 -0.0068,0.0068 0.0066,0.08698 0,0.100227 -0.007,0.01408 -0.02637,0.01931 -0.03341,0.03341 -0.01037,0.02074 0.01071,0.179043 0,0.200451 -0.007,0.01407 -0.02637,0.01931 -0.03341,0.03341 -0.005,0.0099 0,0.02228 0,0.03341 0,0.03237 0.0066,0.180531 0,0.200451 -0.0079,0.02363 -0.02554,0.0432 -0.03341,0.06682 -0.007,0.02114 0.01,0.0469 0,0.06682 -0.007,0.01408 -0.02843,0.01847 -0.03341,0.03341 -0.007,0.02114 0,0.04454 0,0.06682 0,0.01114 0.005,0.02344 0,0.03341 -0.007,0.01408 -0.02843,0.01847 -0.03341,0.03341 -0.0064,0.01916 0,0.135678 0,0.167042 0,0.01114 0.0079,0.02553 0,0.03341 -0.0079,0.0079 -0.02554,-0.0079 -0.03341,0 -0.0079,0.0079 0.005,0.02344 0,0.03341 -0.007,0.01408 -0.02637,0.01931 -0.03341,0.03341 -0.005,0.0099 0.0035,0.02283 0,0.03341 -0.0079,0.02363 -0.02553,0.04319 -0.03341,0.06682 -0.0035,0.01056 0.0035,0.02283 0,0.03341 -0.0079,0.02363 -0.02553,0.0432 -0.03341,0.06682 -0.0095,0.02862 0.0074,0.104161 0,0.133635 0.02014,0.06047 -0.05412,0.06213 -0.06682,0.100227 -0.007,0.02114 0.007,0.04569 0,0.06682 -0.01,0.02988 -0.05686,0.03693 -0.06682,0.06682 -0.007,0.02114 0.007,0.04569 0,0.06682 -0.005,0.01495 -0.02637,0.01932 -0.03341,0.03341 -0.005,0.0099 0.005,0.02344 0,0.03341 -0.007,0.01408 -0.02467,0.02029 -0.03341,0.03341 -0.01381,0.02072 -0.0196,0.0461 -0.03341,0.06682 -0.05097,0.07645 -0.02644,-0.0209 -0.06682,0.100224 -0.0035,0.01056 0.005,0.02344 0,0.03341 -0.07645,0.1529 0.01385,-0.141766 -0.06682,0.100227 -0.007,0.02114 0.01,0.04689 0,0.06682 -0.007,0.01408 -0.02467,0.02029 -0.03341,0.03341 -0.01381,0.02072 -0.02227,0.04454 -0.03341,0.06681 -0.01114,0.02228 -0.02416,0.0437 -0.03341,0.06682 -0.01308,0.0327 -0.01766,0.06873 -0.03341,0.100227 -0.01276,0.02553 -0.09268,0.0776 -0.100226,0.100226 0,0.221605 0.01575,-0.04725 -0.03341,0.100225 -0.007,0.02114 0.01,0.0469 0,0.06682 -0.01409,0.02817 -0.04792,0.04162 -0.06682,0.06682 -0.01494,0.01992 -0.02227,0.04455 -0.03341,0.06682 -0.01114,0.02228 -0.02416,0.0437 -0.03341,0.06682 -0.01925,0.04813 -0.03324,0.122272 -0.06682,0.167042 -0.03119,0.04159 -0.128925,0.128926 -0.167044,0.167045 -0.01114,0.01114 -0.02843,0.01847 -0.03341,0.03341 -0.007,0.02114 0.01235,0.04828 0,0.06681 -0.01381,0.02072 -0.05301,0.0127 -0.06682,0.03341 -0.01235,0.01852 0.007,0.04569 0,0.06682 -0.01,0.02988 -0.05273,0.03865 -0.06682,0.06682 -0.005,0.0099 0,0.02228 0,0.03341 -0.01114,0.01114 -0.02637,0.01931 -0.03341,0.03341 -0.005,0.0099 0.0062,0.02416 0,0.03341 -0.01747,0.02622 -0.04934,0.04061 -0.06682,0.06682 -0.0062,0.0093 0.005,0.02344 0,0.03341 -0.007,0.01407 -0.02227,0.02228 -0.03341,0.03341 -0.03396,0.03396 -0.05333,0.04629 -0.06682,0.100226 -0.0054,0.02162 0.007,0.04569 0,0.06682 -0.005,0.01495 -0.02227,0.02228 -0.03341,0.03341 -0.01114,0.01114 -0.01932,0.02635 -0.03341,0.03341 -0.01,0.005 -0.02553,-0.0079 -0.03341,0 -0.01575,0.01574 0.01,0.04689 0,0.06681 -0.007,0.01408 -0.02227,0.02228 -0.03341,0.03341 -0.0261,0.02609 -0.08101,0.0714 -0.100226,0.100227 -0.01381,0.02072 -0.01959,0.0461 -0.03341,0.06682 -0.01747,0.02622 -0.05686,0.03694 -0.06682,0.06682 -0.007,0.02114 0.007,0.04569 0,0.06682 -0.03476,0.104277 -0.02227,-0.01114 -0.06682,0.03341 -0.0079,0.0079 0.005,0.02344 0,0.03341 -0.007,0.01408 -0.02637,0.01931 -0.03341,0.03341 -0.03676,0.07351 0.03675,-0.0067 0,0.06682 -0.01409,0.02817 -0.04935,0.04061 -0.06682,0.06682 -0.01381,0.02072 -0.02554,0.04319 -0.03341,0.06682 -0.0035,0.01056 0.0079,0.02553 0,0.03341 -0.01761,0.01762 -0.0461,0.01961 -0.06682,0.03341 -0.0131,0.0087 -0.01932,0.02635 -0.03341,0.03341 -0.01,0.005 -0.02345,-0.005 -0.03341,0 -0.07387,0.03693 -0.01037,0.02074 -0.03341,0.06682 -0.007,0.01408 -0.02227,0.02228 -0.03341,0.03341 -0.01114,0.01114 -0.01932,0.02635 -0.03341,0.03341 -0.01,0.005 -0.02843,-0.01 -0.03341,0 -0.01,0.01992 0.007,0.04569 0,0.06682 -0.0075,0.02262 -0.08747,0.0747 -0.100226,0.100227 -0.005,0.0099 0.0079,0.02553 0,0.03341 -0.0079,0.0079 -0.02553,-0.0079 -0.03341,0 -0.0079,0.0079 0.005,0.02344 0,0.03341 -0.007,0.01408 -0.02637,0.01931 -0.03341,0.03341 -0.005,0.0099 0.0079,0.02553 0,0.03341 -0.0079,0.0079 -0.02553,-0.0079 -0.03341,0 -0.0079,0.0079 0.005,0.02344 0,0.03341 -0.007,0.01408 -0.02637,0.01931 -0.03341,0.03341 -0.005,0.01 0.005,0.02344 0,0.03341 -0.007,0.01408 -0.02227,0.02228 -0.03341,0.03341 -0.01114,0.01114 -0.02637,0.01931 -0.03341,0.03341 -0.005,0.0099 0.005,0.02344 0,0.03341 -0.007,0.01408 -0.02637,0.01931 -0.03341,0.03341 -0.005,0.0099 0.005,0.02344 0,0.03341 -0.007,0.01408 -0.02636,0.01931 -0.03341,0.03341 -0.005,0.0099 0.0079,0.02553 0,0.03341 -0.0079,0.0079 -0.02554,-0.0079 -0.03341,0 -0.0079,0.0079 0.0079,0.02553 0,0.03341 -0.0079,0.0079 -0.02554,-0.0079 -0.03341,0 -0.0079,0.0079 0.0079,0.02553 0,0.03341 -0.0079,0.0079 -0.02553,-0.0079 -0.03341,0 -0.0079,0.0079 0.0079,0.02553 0,0.03341 -0.0079,0.0079 -0.02554,-0.0079 -0.03341,0 -0.0079,0.0079 0.0079,0.02553 0,0.03341 -0.0079,0.0079 -0.02345,-0.005 -0.03341,0 -0.01409,0.007 -0.02227,0.02228 -0.03341,0.03341 -0.01114,0.01114 -0.02227,0.02228 -0.03341,0.03341"
       id="path4545"
       inkscape:connector-curvature="0" />
    <path
       style="fill:none;stroke:#000000;stroke-width:0.26458332px;stroke-linecap:butt;stroke-linejoin:miter;stroke-opacity:1"
       d="m 22.417231,29.296159 c 0.06473,0.09062 0.135725,0.176649 0.200452,0.267268 0.02334,0.03267 0.04111,0.06938 0.06682,0.100227 0.05041,0.06049 0.119796,0.104048 0.167043,0.167045 0.02988,0.03984 0.04119,0.09093 0.06682,0.133633 0.02066,0.03443 0.04455,0.06682 0.06682,0.100227 0.02227,0.04454 0.04211,0.09039 0.06682,0.133636 0.03984,0.06972 0.08909,0.133633 0.133635,0.200451 0.02227,0.03341 0.04886,0.06431 0.06682,0.100226 0.01575,0.0315 0.01766,0.06873 0.03341,0.100225 0.01796,0.03591 0.04616,0.0658 0.06682,0.100226 0.01281,0.02135 0.01847,0.0469 0.03341,0.06682 0.0189,0.02519 0.05061,0.03981 0.06682,0.06682 0.01812,0.0302 0.01766,0.06873 0.03341,0.100224 0.09767,0.195339 0.02975,0.03967 0.100226,0.133636 0.02409,0.03212 0.04173,0.06887 0.06682,0.100227 0.01968,0.02461 0.04792,0.04162 0.06682,0.06682 0.01494,0.01992 0.02227,0.04454 0.03341,0.06681 0.01114,0.02228 0.02227,0.04455 0.03341,0.06682 0.01114,0.02228 0.02227,0.04454 0.03341,0.06682 0.01114,0.02228 0.02737,0.04266 0.03341,0.06682 0.0108,0.04321 -0.0108,0.09042 0,0.133633 0.006,0.02416 0.02852,0.0424 0.03341,0.06682 0.0066,0.03276 -0.01241,0.06921 0,0.100227 0.0117,0.02924 0.05273,0.03864 0.06682,0.06682 0.02053,0.04107 0.01889,0.09007 0.03341,0.133633 0.0079,0.02363 0.02853,0.0424 0.03341,0.06682 0.0066,0.03276 0,0.06682 0,0.100227 0,0.02228 -0.007,0.04569 0,0.06682 0.005,0.01495 0.02637,0.01931 0.03341,0.03341 0.0096,0.01918 -0.0071,0.138604 0,0.167042 0.006,0.02416 0.02227,0.04454 0.03341,0.06682 0.02227,0.04454 0.05107,0.08639 0.06682,0.133635 0.0035,0.01056 0,0.02228 0,0.03341 0,0.04454 -0.0087,0.08995 0,0.133633 -0.0077,0.06709 0.05227,0.108866 0.06682,0.167045 0.0108,0.04322 -0.0108,0.09042 0,0.133633 0.006,0.02416 0.02852,0.0424 0.03341,0.06682 0.0066,0.03276 -0.0081,0.06782 0,0.100227 0.0038,0.01527 0.02843,0.01847 0.03341,0.03341 0.007,0.02114 0,0.04454 0,0.06682 0,0.04864 -0.0068,0.159649 0,0.200451 -0.0116,0.06797 0.05506,0.108238 0.06682,0.167044 0.01499,0.07495 -0.01499,0.158904 0,0.23386 0.0049,0.02442 0.02553,0.04319 0.03341,0.06682 0.0035,0.01056 0,0.02228 0,0.03341 0,0.03474 -0.0066,0.174173 0,0.200451 0.006,0.02416 0.02737,0.04266 0.03341,0.06682 0.0054,0.02162 0,0.04454 0,0.06682 0,0.06682 0,0.133633 0,0.200451 0,0.03341 -0.0066,0.06747 0,0.100227 0.0049,0.02442 0.02853,0.0424 0.03341,0.06682 0.0066,0.03276 0,0.06682 0,0.100224 0,0.06682 0,0.133635 0,0.200453"
       id="path4547"
       inkscape:connector-curvature="0" />
    <path
       style="fill:none;stroke:#000000;stroke-width:0.26458332px;stroke-linecap:butt;stroke-linejoin:miter;stroke-opacity:1"
       d="m 15.501613,34.975647 c 0,-0.01113 -0.0079,-0.02551 0,-0.03341 0.0079,-0.0079 0.02227,0 0.03341,0 0.06682,0 0.133632,0 0.200452,0 0.367496,0 0.734992,0 1.102487,0 0.35636,0 0.712719,0 1.069078,0 0.144771,0 0.289542,0 0.434313,0 0.06682,0 0.134542,0.01098 0.200452,0 0.02457,-0.0041 0.0424,-0.02851 0.06682,-0.03341 0.03276,-0.0066 0.06682,0 0.100226,0 0.134392,0 0.06606,0 0.200452,0 0.233861,0 0.467722,0 0.701582,0 0.06682,0 0.133633,0 0.200453,0 0.02228,0 0.04455,0 0.06682,0 0.02228,0 0.04521,0.0054 0.06682,0 0.193404,-0.04836 -0.08782,-0.03341 0.167044,-0.03341 0.01528,-0.0038 0.01813,-0.02961 0.03341,-0.03341 0.03242,-0.0081 0.06682,0 0.100226,0 0.100227,0 0.200453,0 0.300679,0 0.03341,0 0.06747,0.0066 0.100226,0 0.02442,-0.0049 0.0424,-0.02851 0.06682,-0.03341 0.03276,-0.0066 0.06682,0 0.100226,0 0.02228,-0.01113 0.0432,-0.02551 0.06682,-0.03341 0.01057,-0.0035 0.02341,0.005 0.03341,0 0.01409,-0.0071 0.01813,-0.02961 0.03341,-0.03341 0.03242,-0.0081 0.06682,0 0.100226,0 0.07795,0 0.155911,0 0.233861,0 0.155907,0 0.311814,0 0.467722,0 0.06682,0 0.134302,0.0094 0.200452,0 0.03487,-0.005 0.06537,-0.02841 0.100226,-0.03341 0.04409,-0.0063 0.08909,0 0.133634,0 0.03309,-0.09065 0.03341,-0.149987 0.03341,-0.233861 0,-0.01114 -0.005,-0.02345 0,-0.03341 0.007,-0.01409 0.02636,-0.01932 0.03341,-0.03341 0.005,-0.01 0,-0.02227 0,-0.03341 0,-0.02227 0,-0.04454 0,-0.06682 0,-0.06682 0,-0.133635 0,-0.200453 0,-0.133634 0,-0.267269 0,-0.400904 0,-0.03364 -0.0062,-0.181976 0,-0.200452 0.005,-0.01494 0.02637,-0.01932 0.03341,-0.03341 0.01336,-0.02673 -0.01336,-0.0735 0,-0.100226 0.007,-0.01409 0.02843,-0.01847 0.03341,-0.03341 5e-5,-1.52e-4 -3.2e-5,-0.100195 0,-0.100226 0.04454,-0.04454 0.03341,0.05568 0.03341,-0.03341 0,-0.08909 0,-0.17818 0,-0.26727 0,-0.01114 0,-0.02227 0,-0.03341 0,-0.01114 -0.0079,-0.02553 0,-0.03341 0.0079,-0.0079 0.02553,0.0079 0.03341,0 0.0079,-0.0079 0,-0.02227 0,-0.03341 0,-0.01114 0,-0.02227 0,-0.03341 0,-0.155908 0,-0.311815 0,-0.467722 0,-0.06682 0,-0.133635 0,-0.200452 0,-0.01505 0.0051,-0.09006 0,-0.100226 -0.01198,-0.02396 -0.07629,-0.05252 -0.03341,-0.06682 0.06658,-0.02219 0.09989,0.03409 0.133635,-0.03341 0.0051,-0.01017 0,-0.08518 0,-0.100227 0,-0.08909 0,-0.178179 0,-0.267269 0,-0.01114 0,-0.02227 0,-0.03341 0,-0.01114 0.0079,-0.02553 0,-0.03341 -0.0079,-0.0079 -0.02553,0.0079 -0.03341,0 -0.01575,-0.01575 0.01575,-0.05107 0,-0.06682 -0.0079,-0.0079 -0.02553,0.0079 -0.03341,0 -0.0091,-0.0091 0.0091,-0.115511 0,-0.133635 -0.01409,-0.02817 -0.05686,-0.03693 -0.06682,-0.06682 -0.0051,-0.01528 0.0074,-0.118769 0,-0.133635 -0.007,-0.01409 -0.02637,-0.01932 -0.03341,-0.03341 -0.005,-0.01 0.0079,-0.02554 0,-0.03341 -0.01761,-0.01761 -0.04266,-0.02737 -0.06682,-0.03341 -0.02161,-0.0054 -0.04455,0 -0.06682,0 -0.05568,0 -0.111362,0 -0.167044,0 -0.167043,0 -0.334087,0 -0.50113,0 -0.100226,0 -0.200452,0 -0.300678,0 -0.04454,0 -0.09042,-0.0108 -0.133635,0 -0.04832,0.01208 -0.087,0.04933 -0.133635,0.06682 -0.05926,0.02222 -0.248722,0.05527 -0.300678,0.06682 -0.04482,0.01 -0.08909,0.02227 -0.133635,0.03341 -0.04454,0.01114 -0.08948,0.02079 -0.133634,0.03341 -0.03386,0.0097 -0.06569,0.0265 -0.100227,0.03341 -0.253476,0.0507 0.06978,-0.0516 -0.100226,0.03341 -0.01,0.005 -0.02553,-0.0079 -0.03341,0 -0.0079,0.0079 0,0.02227 0,0.03341 -0.01114,0 -0.02554,-0.0079 -0.03341,0 -0.0079,0.0079 0.0079,0.02554 0,0.03341 -0.03522,0.03522 -0.09379,0.03694 -0.133635,0.06682 -0.0252,0.0189 -0.04454,0.04454 -0.06682,0.06682 -0.03341,0.01114 -0.07003,0.01529 -0.100226,0.03341 -0.02701,0.0162 -0.04162,0.04792 -0.06682,0.06682 -0.01992,0.01494 -0.0469,0.01847 -0.06682,0.03341 -0.0252,0.0189 -0.04162,0.04792 -0.06682,0.06682 -0.05161,0.03871 -0.144819,0.06314 -0.200453,0.100226 -0.07645,0.05097 0.02089,0.02645 -0.100226,0.06682 -0.01056,0.0035 -0.02345,-0.005 -0.03341,0 -0.139039,0.06952 0.03571,-0.0023 -0.03341,0.06682 -0.0021,0.0021 -0.127412,0.06267 -0.133635,0.06682 -0.02621,0.01747 -0.03864,0.05273 -0.06682,0.06682 -0.01,0.005 -0.02345,-0.005 -0.03341,0 -0.02817,0.01409 -0.04061,0.04935 -0.06682,0.06682 -0.02072,0.01381 -0.04319,0.02553 -0.06682,0.03341 -0.01056,0.0035 -0.02553,-0.0079 -0.03341,0 -0.02047,0.02047 -0.02844,0.08743 -0.06682,0.100226 -0.02113,0.007 -0.04569,-0.007 -0.06682,0 -0.02262,0.0075 -0.07471,0.08747 -0.100226,0.100226 -0.01,0.005 -0.02553,-0.0079 -0.03341,0 -0.01761,0.01761 -0.01349,0.05188 -0.03341,0.06682 -0.02817,0.02113 -0.06873,0.01766 -0.100227,0.03341 -0.01409,0.007 -0.02227,0.02227 -0.03341,0.03341 -0.0261,0.02609 -0.0714,0.08101 -0.100226,0.100226 -0.02072,0.01381 -0.04266,0.02737 -0.06682,0.03341 -0.02161,0.0054 -0.04828,-0.01235 -0.06682,0 -0.02072,0.01381 -0.0196,0.0461 -0.03341,0.06682 -0.0094,0.01416 -0.0864,0.09331 -0.100226,0.100226 -0.01,0.005 -0.02345,-0.005 -0.03341,0 -0.01409,0.007 -0.0203,0.02467 -0.03341,0.03341 -0.02072,0.01381 -0.0461,0.0196 -0.06682,0.03341 -0.04253,0.02835 -0.09247,0.10276 -0.133634,0.133635 -0.02227,0.01114 -0.04454,0.02227 -0.06682,0.03341 -0.01114,0 -0.02345,-0.005 -0.03341,0 -0.01409,0.007 -0.02031,0.02467 -0.03341,0.03341 -0.04869,0.03246 -0.06959,0.02086 -0.100226,0.06682 -0.01381,0.02072 -0.01269,0.053 -0.03341,0.06682 -0.01853,0.01235 -0.0469,-0.01 -0.06682,0 -0.01,0.005 0.0079,0.02553 0,0.03341 -0.03522,0.03522 -0.09379,0.03694 -0.133635,0.06682 -0.02117,0.01587 -0.184578,0.179287 -0.200452,0.200452 -0.02988,0.03984 -0.03919,0.0922 -0.06682,0.133635 -0.0092,0.01373 -0.0865,0.09108 -0.100226,0.100226 -0.02072,0.01381 -0.04921,0.0158 -0.06682,0.03341 -0.01761,0.01761 -0.0196,0.0461 -0.03341,0.06682 -0.0087,0.0131 -0.02467,0.02031 -0.03341,0.03341 -0.01381,0.02072 -0.01847,0.0469 -0.03341,0.06682 -0.0189,0.0252 -0.04792,0.04162 -0.06682,0.06682 -0.02988,0.03984 -0.03919,0.0922 -0.06682,0.133634 -0.0087,0.0131 -0.02636,0.01932 -0.03341,0.03341 -0.005,0.01 0.0035,0.02284 0,0.03341 -0.08066,0.241993 0.0096,-0.05267 -0.06682,0.100226 -0.005,0.01 0.0079,0.02553 0,0.03341 -0.06912,0.06912 0.0027,-0.105631 -0.06682,0.03341 -0.005,0.01 0.0035,0.02284 0,0.03341 -0.0079,0.02362 -0.02554,0.04319 -0.03341,0.06682 -0.007,0.02113 0.01,0.0469 0,0.06682 -0.007,0.01409 -0.02637,0.01932 -0.03341,0.03341 -0.0066,0.01325 0.0068,0.0934 0,0.100227 -0.0079,0.0079 -0.02345,-0.005 -0.03341,0 -0.139039,0.06952 0.03571,-0.0023 -0.03341,0.06682 -0.0079,0.0079 -0.02553,-0.0079 -0.03341,0 -0.0079,0.0079 0.005,0.02345 0,0.03341 -0.03693,0.07387 -0.02073,0.01037 -0.06682,0.03341 -0.04009,0.02005 -0.06014,0.08018 -0.100226,0.100226 -0.01,0.005 -0.02345,-0.005 -0.03341,0 -0.01409,0.007 -0.01932,0.02637 -0.03341,0.03341 -0.01,0.005 -0.02553,-0.0079 -0.03341,0 -0.0079,0.0079 0.0079,0.02553 0,0.03341 -0.0079,0.0079 -0.02554,-0.0079 -0.03341,0 -0.0079,0.0079 0.01114,0.03341 0,0.03341 -0.01114,0 0.01114,-0.03341 0,-0.03341 -0.01575,0 -0.01932,0.02636 -0.03341,0.03341 -0.01,0.005 -0.02345,-0.005 -0.03341,0 -0.08257,0.04128 0.01153,0.03341 -0.06682,0.03341"
       id="path4549"
       inkscape:connector-curvature="0" />
    <path
       style="fill:none;stroke:#000000;stroke-width:0.26458332px;stroke-linecap:butt;stroke-linejoin:miter;stroke-opacity:1"
       d="m 22.18337,34.708367 c 0.06682,-0.04455 0.127069,-0.101021 0.200453,-0.133636 0.03053,-0.01357 0.06682,0 0.100226,0 0.100226,0 0.200452,0 0.300678,0 0.222724,0 0.445449,0 0.668174,0 0.08909,0 0.178179,0 0.267269,0 0.04454,0 0.08909,0 0.133635,0 0.02227,0 0.04569,0.007 0.06682,0 0.01494,-0.005 0.01932,-0.02635 0.03341,-0.03341 0.01,-0.005 0.02227,0 0.03341,0 0.02227,0 0.04569,0.007 0.06682,0 0.01494,-0.005 0.01932,-0.02635 0.03341,-0.03341 0.01016,-0.0051 0.110565,0 0.133635,0 0.07795,0 0.155907,0 0.23386,0 0.02227,0 0.04454,0 0.06682,0 0.02227,0 0.04521,0.0054 0.06682,0 0.02416,-0.006 0.04319,-0.02553 0.06682,-0.03341 0.02113,-0.007 0.04454,0 0.06682,0 0.06682,0 0.133635,0 0.200452,0 0.02227,0 0.04521,0.0054 0.06682,0 0.02416,-0.006 0.04319,-0.02553 0.06682,-0.03341 0.02349,-0.0078 0.157886,0.0092 0.167043,0 0.0058,-0.0058 -0.0047,-0.148445 0,-0.167045 0.006,-0.02416 0.02737,-0.04266 0.03341,-0.06682 0.0054,-0.02162 0,-0.04454 0,-0.06681 0,-0.02228 0,-0.04454 0,-0.06682 0,-0.06682 0,-0.133636 0,-0.200453 0,-0.03474 0.0066,-0.174173 0,-0.200451 -0.006,-0.02416 -0.02737,-0.04266 -0.03341,-0.06682 -0.0135,-0.05402 0.0092,-0.11212 0,-0.167045 -0.02317,-0.139039 -0.03046,-0.05799 -0.06682,-0.167042 -0.01183,-0.0355 0.01183,-0.09813 0,-0.133636 -0.005,-0.01495 -0.02843,-0.01847 -0.03341,-0.03341 -0.02113,-0.02998 0.01056,-0.06853 0,-0.100224 -0.01575,-0.04725 -0.05474,-0.08532 -0.06682,-0.133636 -0.0145,-0.058 0.0145,-0.142446 0,-0.200451 -0.006,-0.02416 -0.02737,-0.04266 -0.03341,-0.06682 -0.0054,-0.02162 0.007,-0.04569 0,-0.06682 -0.005,-0.01495 -0.02227,-0.02228 -0.03341,-0.03341 -0.01114,-0.03341 -0.02487,-0.06606 -0.03341,-0.100227 -0.0167,-0.06681 0.03341,0 0,-0.100224 -0.005,-0.01495 -0.02637,-0.01931 -0.03341,-0.03341 -0.01054,-0.02109 0.01054,-0.145968 0,-0.167045 -0.007,-0.01408 -0.02637,-0.01931 -0.03341,-0.03341 -0.005,-0.0099 0.005,-0.02344 0,-0.03341 -0.007,-0.01408 -0.02637,-0.01931 -0.03341,-0.03341 -0.0105,-0.02101 0.0105,-0.112635 0,-0.133633 -0.007,-0.01408 -0.02637,-0.01931 -0.03341,-0.03341 -0.01,-0.01992 0.01575,-0.05107 0,-0.06682 -0.0079,-0.0079 -0.02553,0.0079 -0.03341,0 -0.01575,-0.01574 0.01575,-0.05107 0,-0.06682 -0.0079,-0.0079 -0.02843,0.0099 -0.03341,0 -0.01,-0.01992 0.01,-0.04689 0,-0.06682 -0.005,-0.0099 -0.02553,0.0079 -0.03341,0 -0.0079,-0.0079 0.005,-0.02344 0,-0.03341 -0.007,-0.01408 -0.02637,-0.01931 -0.03341,-0.03341 -0.01,-0.01992 0.01,-0.0469 0,-0.06682 -0.01276,-0.02553 -0.09269,-0.0776 -0.100226,-0.100227 0,-0.152085 0.01575,-0.0019 -0.03341,-0.100227 -0.005,-0.0099 0.0079,-0.02553 0,-0.03341 -0.0079,-0.0079 -0.02554,0.0079 -0.03341,0 -0.0079,-0.0079 0.0079,-0.02553 0,-0.03341 -0.0079,-0.0079 -0.02554,0.0079 -0.03341,0 -0.0079,-0.0079 0.005,-0.02344 0,-0.03341 -0.01409,-0.02817 -0.05273,-0.03865 -0.06682,-0.06682 -0.005,-0.0099 0.005,-0.02344 0,-0.03341 -0.01409,-0.02817 -0.05273,-0.03865 -0.06682,-0.06682 -0.005,-0.0099 0.0079,-0.02553 0,-0.03341 -0.0079,-0.0079 -0.02553,0.0079 -0.03341,0 -0.0079,-0.0079 0.0079,-0.02553 0,-0.03341 -0.0079,-0.0079 -0.02554,0.0079 -0.03341,0 -0.0079,-0.0079 0.005,-0.02344 0,-0.03341 -0.007,-0.01408 -0.02227,-0.02228 -0.03341,-0.03341 -0.02227,-0.02228 -0.04454,-0.04454 -0.06682,-0.06682 -0.01759,-0.0176 -0.08238,-0.0913 -0.100226,-0.100227 -0.01992,-0.0099 -0.0469,0.0099 -0.06682,0 -0.01409,-0.007 -0.01932,-0.02635 -0.03341,-0.03341 -0.01,-0.005 -0.02227,0 -0.03341,0 -0.01114,0 -0.02227,0 -0.03341,0 -0.06682,0 -0.133634,0 -0.200452,0 -0.03463,0 -0.185068,-0.0077 -0.200452,0 -0.01409,0.007 -0.01932,0.02635 -0.03341,0.03341 -0.01,0.005 -0.02553,-0.0079 -0.03341,0 -0.0079,0.0079 0.0079,0.02553 0,0.03341 -0.0079,0.0079 -0.02345,-0.005 -0.03341,0 -0.01409,0.007 -0.0203,0.02466 -0.03341,0.03341 -0.02072,0.01381 -0.0461,0.01961 -0.06682,0.03341 -0.0131,0.0087 -0.01847,0.02843 -0.03341,0.03341 -0.02113,0.007 -0.04569,-0.007 -0.06682,0 -0.0042,0.0013 -0.09736,0.09449 -0.100226,0.100224 -0.005,0.0099 0.0079,0.02553 0,0.03341 -0.01761,0.0176 -0.04921,0.0158 -0.06682,0.03341 -0.01761,0.01762 -0.01959,0.0461 -0.03341,0.06682 -0.02028,0.03041 -0.08542,0.07062 -0.100226,0.100227 -0.005,0.0099 0.005,0.02344 0,0.03341 -0.007,0.01408 -0.02637,0.01931 -0.03341,0.03341 -0.005,0.0099 0.005,0.02344 0,0.03341 -0.007,0.01408 -0.02637,0.01931 -0.03341,0.03341 -0.005,0.0099 0.005,0.02344 0,0.03341 -0.007,0.01408 -0.02467,0.02029 -0.03341,0.03341 -0.01114,0.02228 -0.02227,0.04454 -0.03341,0.06682 0,0.01114 0.005,0.02344 0,0.03341 -0.007,0.01408 -0.02637,0.01931 -0.03341,0.03341 -0.005,0.0099 0.005,0.02344 0,0.03341 -0.01409,0.02817 -0.05273,0.03864 -0.06682,0.06682 -0.005,0.0099 0.0079,0.02553 0,0.03341 -0.01761,0.01759 -0.0461,0.0196 -0.06682,0.03341 -0.0131,0.0087 -0.01932,0.02635 -0.03341,0.03341 -0.01,0.005 -0.02554,-0.0079 -0.03341,0 -0.0167,0.0167 0.01671,0.08352 0,0.100227 -0.0079,0.0079 -0.02553,-0.0079 -0.03341,0 -0.01575,0.01574 0.01575,0.05107 0,0.06682 -0.0079,0.0079 -0.02843,-0.0099 -0.03341,0 -0.01,0.01992 0.01,0.04689 0,0.06682 -0.005,0.0099 -0.02345,-0.005 -0.03341,0 -0.04128,0.02064 -0.03341,0.03225 -0.03341,0.06682 0,0.08513 -0.03897,0.04453 -0.06682,0.100227 -0.0033,0.0066 0,0.126151 0,0.03341"
       id="path4551"
       inkscape:connector-curvature="0" />
    <path
       style="fill:none;stroke:#000000;stroke-width:0.26458332px;stroke-linecap:butt;stroke-linejoin:miter;stroke-opacity:1"
       d="m 22.818097,31.400869 c -0.133622,-0.167032 -0.272527,-0.32997 -0.400866,-0.501092 -0.0067,-0.0089 0,-0.02228 0,-0.03341 0,-0.01114 0,-0.02228 0,-0.03341 0,-0.01114 -0.005,-0.02344 0,-0.03341 0.007,-0.01408 0.02637,-0.01931 0.03341,-0.03341 0.005,-0.0099 -0.005,-0.02344 0,-0.03341 0.007,-0.01408 0.02637,-0.01931 0.03341,-0.03341 0.01,-0.01992 -0.01,-0.04689 0,-0.06682 0.007,-0.01407 0.02637,-0.01931 0.03341,-0.03341 0.005,-0.0099 -0.005,-0.02344 0,-0.03341 0.007,-0.01408 0.02637,-0.01932 0.03341,-0.03341 0.005,-0.0099 -0.005,-0.02344 0,-0.03341 0.02004,-0.04009 0.08018,-0.06014 0.100226,-0.100226 0.005,-0.0099 -0.0035,-0.02283 0,-0.03341 0.0079,-0.02363 0.02554,-0.04319 0.03341,-0.06682 0.007,-0.02114 -0.01,-0.04689 0,-0.06682 0.007,-0.01408 0.02843,-0.01847 0.03341,-0.03341 0.007,-0.02114 0,-0.04455 0,-0.06682 0,-0.01114 -0.005,-0.02344 0,-0.03341 0.007,-0.01408 0.02637,-0.01932 0.03341,-0.03341 0.005,-0.0099 0,-0.02228 0,-0.03341 0,-0.02228 -0.007,-0.04569 0,-0.06682 0.005,-0.01495 0.02637,-0.01931 0.03341,-0.03341 0.01336,-0.02673 -0.01336,-0.0735 0,-0.100224 0.007,-0.01408 0.02637,-0.01931 0.03341,-0.03341 0.0043,-0.0087 0,-0.176773 0,-0.200454 0,-0.01114 -0.0079,-0.02553 0,-0.03341 0.0079,-0.0079 0.02554,0.0079 0.03341,0 0.0079,-0.0079 0,-0.02228 0,-0.03341 0,-0.03237 -0.0066,-0.18053 0,-0.200451 0.0079,-0.02363 0.02553,-0.04319 0.03341,-0.06682 0.0077,-0.02297 -0.0099,-0.08051 0,-0.100227 0.007,-0.01408 0.02637,-0.01931 0.03341,-0.03341 0.01,-0.01992 -0.01,-0.0469 0,-0.06682 0.007,-0.01408 0.02637,-0.01931 0.03341,-0.03341 0.005,-0.0099 0,-0.02228 0,-0.03341 0,-0.01114 0,-0.02228 0,-0.03341 0,-0.02689 0.007,-0.112665 0,-0.133636 -0.0079,-0.02363 -0.02553,-0.04319 -0.03341,-0.06681 -0.0099,-0.02965 0.01094,-0.145169 0,-0.167045 -0.007,-0.01408 -0.02637,-0.01931 -0.03341,-0.03341 -0.005,-0.0099 0,-0.02228 0,-0.03341 0,-0.01114 0,-0.02228 0,-0.03341 0,-0.05568 0,-0.11136 0,-0.167042 0,-0.01114 0.0035,-0.02283 0,-0.03341 -0.0079,-0.02363 -0.02553,-0.04319 -0.03341,-0.06682 -0.0035,-0.01056 0.005,-0.02344 0,-0.03341 -0.007,-0.01408 -0.02637,-0.01931 -0.03341,-0.03341 -0.01068,-0.02135 0.009,-0.106744 0,-0.133633 -0.0079,-0.02363 -0.02737,-0.04266 -0.03341,-0.06682 -0.0041,-0.01627 0.0088,-0.11597 0,-0.133636 -0.007,-0.01408 -0.02637,-0.01931 -0.03341,-0.03341 -0.01,-0.01992 0.01,-0.0469 0,-0.06682 -0.007,-0.01408 -0.02637,-0.01931 -0.03341,-0.03341 -0.01067,-0.02135 0.009,-0.106743 0,-0.133633 -0.08066,-0.241993 0.0096,0.05267 -0.06682,-0.100227 -0.01488,-0.02976 0.02892,-0.05296 -0.03341,-0.06682 -0.08765,-0.01947 -0.178198,-0.02228 -0.267297,-0.03342"
       id="path4553"
       inkscape:connector-curvature="0" />
    <path
       style="fill:none;stroke:#000000;stroke-width:0.26458332px;stroke-linecap:butt;stroke-linejoin:miter;stroke-opacity:1"
       d="m 21.448379,30.832959 c -0.05568,-0.03341 -0.108963,-0.07119 -0.167043,-0.100227 -0.01,-0.005 -0.02345,0.005 -0.03341,0 -0.03288,-0.01643 -0.100759,-0.117197 -0.133635,-0.133635 -0.01,-0.005 -0.02345,0.005 -0.03341,0 -0.04009,-0.02006 -0.06014,-0.08018 -0.100226,-0.100225 -0.01,-0.005 -0.02345,0.005 -0.03341,0 -0.03288,-0.01643 -0.10076,-0.117197 -0.133635,-0.133635 -0.01,-0.005 -0.02554,0.0079 -0.03341,0 -0.0079,-0.0079 0.0079,-0.02553 0,-0.03341 -0.01761,-0.0176 -0.0461,-0.01961 -0.06682,-0.03341 -0.0131,-0.0087 -0.01932,-0.02635 -0.03341,-0.03341 -0.01,-0.005 -0.02553,0.0079 -0.03341,0 -0.01761,-0.0176 -0.01847,-0.04689 -0.03341,-0.06682 -0.0378,-0.0504 -0.09584,-0.08324 -0.133635,-0.133636 -0.01494,-0.01992 -0.0158,-0.04921 -0.03341,-0.06682 -0.01761,-0.01762 -0.0461,-0.01961 -0.06682,-0.03341 -0.0131,-0.0087 -0.02227,-0.02228 -0.03341,-0.03341 -0.05568,-0.05568 -0.111363,-0.11136 -0.167044,-0.167042 -0.02227,-0.02228 -0.04454,-0.04455 -0.06682,-0.06682 -0.01114,-0.01114 -0.02637,-0.01931 -0.03341,-0.03341 -0.005,-0.0099 0.0079,-0.02553 0,-0.03341 -0.0079,-0.0079 -0.02554,0.0079 -0.03341,0 -0.0079,-0.0079 0,-0.02228 0,-0.03341 0,-0.0258 0.0068,-0.18007 0,-0.200451 -0.0079,-0.02363 -0.02416,-0.0437 -0.03341,-0.06682 -0.01308,-0.0327 -0.02487,-0.06606 -0.03341,-0.100226 -0.0027,-0.0108 0.005,-0.02344 0,-0.03341 -0.01796,-0.03591 -0.04348,-0.06755 -0.06682,-0.100224 -0.106908,-0.149673 -0.100226,-0.07653 -0.100226,-0.167045 0,-0.01114 0,-0.02228 0,-0.03341 0,-0.01114 -0.0085,-0.0406 0,-0.03341 0.150398,0.127302 0.289532,0.26734 0.434299,0.40101"
       id="path4555"
       inkscape:connector-curvature="0" />
    <path
       style="fill:none;stroke:#000000;stroke-width:0.26458332px;stroke-linecap:butt;stroke-linejoin:miter;stroke-opacity:1"
       d="m 24.087666,30.665914 c 0.03611,-0.144438 0.03341,-0.08772 0.03341,-0.167042 0,-0.01114 -0.005,-0.02344 0,-0.03341 0.007,-0.01407 0.02636,-0.01931 0.03341,-0.03341 0.0105,-0.02101 -0.0105,-0.112635 0,-0.133635 0.01409,-0.02817 0.05273,-0.03864 0.06682,-0.06682 0.005,-0.0099 -0.005,-0.02344 0,-0.03341 0.007,-0.01408 0.02637,-0.01931 0.03341,-0.03341 0.005,-0.0099 -0.005,-0.02344 0,-0.03341 0.007,-0.01408 0.02637,-0.01931 0.03341,-0.03341 0.0037,-0.0075 0,-0.125696 0,-0.133636 0,-0.06682 0,-0.133633 0,-0.200451 0,-0.02228 -0.007,-0.04569 0,-0.06682 0.0079,-0.02363 0.02553,-0.04319 0.03341,-0.06682 0.0063,-0.01884 0,-0.07827 0,-0.100227 0,-0.07795 0,-0.155905 0,-0.233859 0,-0.08909 0,-0.178179 0,-0.267269 0,-0.01746 0.0044,-0.124852 0,-0.133636 -0.007,-0.01408 -0.02637,-0.01932 -0.03341,-0.03341 -0.01,-0.01992 0.01,-0.04689 0,-0.06682 -0.007,-0.01408 -0.02637,-0.01931 -0.03341,-0.03341 -0.01,-0.01992 0.01575,-0.05107 0,-0.06682 -0.0079,-0.0079 -0.02553,0.0079 -0.03341,0 -0.0079,-0.0079 0.005,-0.02344 0,-0.03341 -0.110803,-0.110802 0.01575,0.0315 -0.03341,-0.06682 -0.01644,-0.03287 -0.117197,-0.100758 -0.133635,-0.133636 -0.005,-0.0099 0.005,-0.02344 0,-0.03341 -0.01409,-0.02817 -0.04934,-0.04061 -0.06682,-0.06681 -0.02035,-0.03052 -0.02852,-0.08108 -0.06682,-0.100227 -0.01,-0.005 -0.02227,0 -0.03341,0"
       id="path4557"
       inkscape:connector-curvature="0" />
    <path
       style="display:inline;opacity:0.98999999;fill:none;fill-opacity:1;fill-rule:nonzero;stroke:#000000;stroke-width:0.26458332;stroke-linecap:butt;stroke-miterlimit:4;stroke-dasharray:none;stroke-dashoffset:0;stroke-opacity:1"
       d="M 46.491072,24.715401 C 43.278274,26.3218 41.955357,31.42448 41.955357,31.42448 l 5.669642,-1.417413 c 0,0 0.04725,3.165552 -3.023809,5.386163"
       id="path856"
       inkscape:connector-curvature="0" />
    <path
       style="opacity:0.98999999;fill:none;fill-opacity:1;fill-rule:nonzero;stroke:#000000;stroke-width:0.26458332;stroke-linecap:butt;stroke-miterlimit:4;stroke-dasharray:none;stroke-dashoffset:0;stroke-opacity:1"
       d="m 96.998138,18.620536 c 3.118302,1.275669 3.023812,5.244419 1.370163,7.417782 -1.653646,2.173364 -10.110861,0.614211 -10.110861,0.614211"
       id="path867"
       inkscape:connector-curvature="0" />
    <path
       style="opacity:0.98999999;fill:none;fill-opacity:1;fill-rule:nonzero;stroke:#000000;stroke-width:0.26458332;stroke-linecap:butt;stroke-miterlimit:4;stroke-dasharray:none;stroke-dashoffset:0;stroke-opacity:1"
       d="m 98.037572,26.369047 c 3.023808,-2.078869 5.953128,-1.889881 5.953128,-1.889881 0,0 1.84263,-0.283482 3.68527,2.031623"
       id="path869"
       inkscape:connector-curvature="0" />
    <path
       style="opacity:0.98999999;fill:none;fill-opacity:1;fill-rule:nonzero;stroke:#000000;stroke-width:0.26458332;stroke-linecap:butt;stroke-miterlimit:4;stroke-dasharray:none;stroke-dashoffset:0;stroke-opacity:1"
       d="m 124.77939,20.415922 c 1.32291,2.126116 0.23623,7.087055 -1.70089,8.079242 -1.93713,0.992188 -4.25224,-0.897694 -4.39398,-1.606399 -0.14174,-0.708706 0.99219,-3.071057 1.41741,-3.354539"
       id="path889"
       inkscape:connector-curvature="0" />
    <path
       style="opacity:0.98999999;fill:none;fill-opacity:1;fill-rule:nonzero;stroke:#000000;stroke-width:0.26458332;stroke-linecap:butt;stroke-miterlimit:4;stroke-dasharray:none;stroke-dashoffset:0;stroke-opacity:1"
       d="m 123.31473,28.400668 c 4.06324,0.330729 4.58296,6.992562 4.58296,6.992562"
       id="path891"
       inkscape:connector-curvature="0" />
    <path
       inkscape:connector-curvature="0"
       id="path967"
       d="m 149.59657,24.715401 c -3.2128,1.606399 -4.53571,6.709079 -4.53571,6.709079 l 5.66964,-1.417413 c 0,0 0.0472,3.165552 -3.02381,5.386163"
       style="display:inline;opacity:0.98999999;fill:none;fill-opacity:1;fill-rule:nonzero;stroke:#000000;stroke-width:0.26458332;stroke-linecap:butt;stroke-miterlimit:4;stroke-dasharray:none;stroke-dashoffset:0;stroke-opacity:1" />
    <path
       inkscape:connector-curvature="0"
       id="path969"
       d="m 200.10364,18.620536 c 3.1183,1.275669 3.02381,5.244419 1.37016,7.417782 -1.65365,2.173364 -10.11086,0.614211 -10.11086,0.614211"
       style="opacity:0.98999999;fill:none;fill-opacity:1;fill-rule:nonzero;stroke:#000000;stroke-width:0.26458332;stroke-linecap:butt;stroke-miterlimit:4;stroke-dasharray:none;stroke-dashoffset:0;stroke-opacity:1" />
    <path
       inkscape:connector-curvature="0"
       id="path971"
       d="m 201.14307,26.369047 c 3.02381,-2.078869 5.95313,-1.889881 5.95313,-1.889881 0,0 1.84263,-0.283482 3.68527,2.031623"
       style="opacity:0.98999999;fill:none;fill-opacity:1;fill-rule:nonzero;stroke:#000000;stroke-width:0.26458332;stroke-linecap:butt;stroke-miterlimit:4;stroke-dasharray:none;stroke-dashoffset:0;stroke-opacity:1" />
    <path
       inkscape:connector-curvature="0"
       id="path973"
       d="m 227.88489,20.415922 c 1.32291,2.126116 0.23623,7.087055 -1.70089,8.079242 -1.93713,0.992188 -4.25224,-0.897694 -4.39398,-1.606399 -0.14174,-0.708706 0.99219,-3.071057 1.41741,-3.354539"
       style="opacity:0.98999999;fill:none;fill-opacity:1;fill-rule:nonzero;stroke:#000000;stroke-width:0.26458332;stroke-linecap:butt;stroke-miterlimit:4;stroke-dasharray:none;stroke-dashoffset:0;stroke-opacity:1" />
    <path
       inkscape:connector-curvature="0"
       id="path975"
       d="m 226.42023,28.400668 c 4.06324,0.330729 4.58296,6.992562 4.58296,6.992562"
       style="opacity:0.98999999;fill:none;fill-opacity:1;fill-rule:nonzero;stroke:#000000;stroke-width:0.26458332;stroke-linecap:butt;stroke-miterlimit:4;stroke-dasharray:none;stroke-dashoffset:0;stroke-opacity:1" />
  </g>
</svg>
