<?xml version="1.0" encoding="UTF-8" standalone="no"?>
<!-- Created with Inkscape (http://www.inkscape.org/) -->

<svg
   width="499.99997"
   height="499.99994"
   viewBox="0 0 132.29165 132.29165"
   version="1.1"
   id="svg8"
   inkscape:version="1.3.2 (091e20e, 2023-11-25, custom)"
   sodipodi:docname="AbstractHumanoids.svg"
   inkscape:export-filename="..\Assets\AbstractHumanoidToy\Sprites\LeftFoot.png"
   inkscape:export-xdpi="96"
   inkscape:export-ydpi="96"
   xmlns:inkscape="http://www.inkscape.org/namespaces/inkscape"
   xmlns:sodipodi="http://sodipodi.sourceforge.net/DTD/sodipodi-0.dtd"
   xmlns="http://www.w3.org/2000/svg"
   xmlns:svg="http://www.w3.org/2000/svg"
   xmlns:rdf="http://www.w3.org/1999/02/22-rdf-syntax-ns#"
   xmlns:cc="http://creativecommons.org/ns#"
   xmlns:dc="http://purl.org/dc/elements/1.1/">
  <defs
     id="defs2" />
  <sodipodi:namedview
     id="base"
     pagecolor="#ffffff"
     bordercolor="#666666"
     borderopacity="1.0"
     inkscape:pageopacity="0.0"
     inkscape:pageshadow="2"
     inkscape:zoom="0.5"
     inkscape:cx="913"
     inkscape:cy="1127"
     inkscape:document-units="px"
     inkscape:current-layer="layer19"
     showgrid="true"
     inkscape:window-width="1920"
     inkscape:window-height="1017"
     inkscape:window-x="1912"
     inkscape:window-y="-8"
     inkscape:window-maximized="1"
     inkscape:snap-global="true"
     units="mm"
     inkscape:showpageshadow="2"
     inkscape:pagecheckerboard="0"
     inkscape:deskcolor="#d1d1d1"
     labelstyle="default">
    <inkscape:grid
       id="grid1"
       units="px"
       originx="0"
       originy="0"
       spacingx="26.458333"
       spacingy="26.458333"
       empcolor="#e50000"
       empopacity="1"
       color="#0099e5"
       opacity="0.14901961"
       empspacing="5"
       dotted="false"
       gridanglex="30"
       gridanglez="30"
       visible="true" />
    <inkscape:page
       x="0"
       y="0"
       width="132.29166"
       height="132.29166"
       id="page3"
       margin="0"
       bleed="0" />
    <inkscape:page
       x="0"
       y="132.29169"
       width="1058.3333"
       height="132.29166"
       id="page4"
       margin="0 0 0"
       bleed="0"
       inkscape:export-filename="..\Assets\AbstractHumanoidToy\Sprites\HeroineSpritesheet_Run.png"
       inkscape:export-xdpi="96"
       inkscape:export-ydpi="96" />
    <inkscape:page
       x="0"
       y="264.68671"
       width="264.58331"
       height="132.29166"
       id="page5"
       margin="0"
       bleed="0"
       inkscape:export-filename="..\Assets\AbstractHumanoidToy\Sprites\HeroineSpritesheet_Jump.png"
       inkscape:export-xdpi="96"
       inkscape:export-ydpi="96" />
    <inkscape:page
       x="0"
       y="396.97836"
       width="661.45831"
       height="132.29166"
       id="page20"
       margin="0"
       bleed="0"
       inkscape:export-filename="..\Assets\AbstractHumanoidToy\Sprites\Heroine_Backflip.png"
       inkscape:export-xdpi="96"
       inkscape:export-ydpi="96" />
  </sodipodi:namedview>
  <metadata
     id="metadata5">
    <rdf:RDF>
      <cc:Work
         rdf:about="">
        <dc:format>image/svg+xml</dc:format>
        <dc:type
           rdf:resource="http://purl.org/dc/dcmitype/StillImage" />
      </cc:Work>
    </rdf:RDF>
  </metadata>
  <g
     inkscape:groupmode="layer"
     id="layer2"
     inkscape:label="FreedrawLayer"
     style="display:none">
    <path
       style="fill:none;fill-opacity:0;stroke:#000000;stroke-width:0.79375;stroke-dasharray:none;stroke-opacity:1"
       d="m 197.40396,323.08105 c 34.10644,0.20669 1.86035,69.03971 0.41341,71.93359"
       id="path13"
       sodipodi:nodetypes="cc" />
    <path
       style="fill:none;fill-opacity:0;stroke:#000000;stroke-width:0.79375;stroke-dasharray:none;stroke-opacity:1"
       d="m 210.63313,358.84113 c 0.2067,-15.91633 21.08398,-21.08399 21.08398,-21.08399 0,0 1.65365,14.67612 -11.16211,29.35222"
       id="path14" />
    <path
       style="fill:#ffffff;fill-opacity:1;stroke:#000000;stroke-width:0.79375;stroke-dasharray:none;stroke-opacity:1"
       d="m 175.67625,465.66368 c 0,-24.32153 49.76558,-5.0514 49.76558,-5.0514 0,0 14.78001,27.87621 1.49672,46.21091"
       id="path27" />
    <path
       style="fill:#ffffff;fill-opacity:1;stroke:#000000;stroke-width:0.79375;stroke-dasharray:none;stroke-opacity:1"
       d="m 215.33905,460.05102 c -14.03165,-19.83139 2.80633,-32.9276 2.80633,-32.9276 0,0 17.21215,-8.98025 26.00532,-0.18709"
       id="path28" />
    <path
       style="fill:#ffffff;fill-opacity:1;stroke:#000000;stroke-width:0.79375;stroke-dasharray:none;stroke-opacity:1"
       d="m 484.44538,481.54164 c -21.96042,3.70417 -41.53959,-25.4 -22.225,-54.76874"
       id="path35" />
    <path
       style="fill:#ffffff;fill-opacity:1;stroke:#000000;stroke-width:0.79375;stroke-dasharray:none;stroke-opacity:1"
       d="m 454.54746,456.67081 c -3.96875,12.96458 -23.54792,3.70417 -23.54792,3.70417 0,0 2.11667,-17.99167 21.16667,-20.10834"
       id="path36" />
    <path
       style="display:inline;fill:#ffffff;fill-opacity:1;stroke:#000000;stroke-width:0.79375;stroke-dasharray:none;stroke-opacity:1"
       d="m 611.97454,463.02081 c 0.52916,34.925 -43.65625,4.7625 -43.65625,4.7625 0,0 -11.64167,-15.34583 -0.26459,-42.33333"
       id="path43" />
    <path
       style="display:inline;fill:#ffffff;fill-opacity:1;stroke:#000000;stroke-width:0.79375;stroke-dasharray:none;stroke-opacity:1"
       d="m 568.58287,467.78331 c 17.72708,11.1125 0.79375,32.27916 0.79375,32.27916 0,0 -14.2875,7.67292 -24.07708,-3.96875"
       id="path44" />
    <path
       style="fill:#ffffff;stroke:#000000;stroke-width:0.79375"
       d="m 331.5211,478.75989 c -46.58508,0.18709 5.23849,-49.39141 22.45064,-49.01723"
       id="path51" />
    <path
       style="fill:#ffffff;stroke:#000000;stroke-width:0.79375"
       d="m 323.45912,448.22682 c -18.89596,0.37418 -20.20559,-12.34784 -20.20559,-12.34784 0,0 8.60607,-11.03823 22.63772,-7.85772"
       id="path52" />
  </g>
  <g
     inkscape:groupmode="layer"
     id="layer19"
     inkscape:label="MainLayer"
     style="display:inline">
    <path
       style="fill:#ffffff;stroke:#000000;stroke-width:0.79375"
       d="m 354.27707,441.37426 0.26458,-19.75296 c 0,0 -25.88505,5.01593 -27.029,19.73967 -0.99451,12.80028 20.07785,-11.74348 26.76442,0.0133 z"
       id="path55"
       sodipodi:nodetypes="ccsc" />
    <path
       style="fill:#ffffff;stroke:#000000;stroke-width:0.79375"
       d="m 331.91977,443.04477 c 2.11667,5.42396 -6.2177,15.47812 -10.05416,15.61042 -3.83646,0.13229 -6.61458,-2.51355 -6.87917,-5.42396 -0.26458,-2.91042 15.74271,-18.78542 16.93333,-10.18646 z"
       id="path56" />
    <path
       style="fill:#ffffff;fill-opacity:1;stroke:#000000;stroke-width:0.79375;stroke-dasharray:none;stroke-opacity:1"
       d="m 566.50446,498.03003 c -0.56126,-8.60611 4.86431,-23.01193 7.85773,-24.8828 2.99342,-1.87089 13.65747,7.10936 11.59949,9.35443 -2.05798,2.24507 -20.20556,31.61797 -19.45722,15.52837 z"
       id="path49" />
    <path
       style="fill:#ffffff;fill-opacity:1;stroke:#000000;stroke-width:0.79375;stroke-dasharray:none;stroke-opacity:1"
       d="m 584.46496,423.75582 -25.63892,0.0548 c 0,0 -7.71252,21.99328 1.5045,27.44723 11.1705,6.60987 0.56123,-22.26355 24.13442,-27.50203 z"
       id="path48"
       sodipodi:nodetypes="ccsc" />
    <path
       style="fill:#ffffff;fill-opacity:1;stroke:#000000;stroke-width:0.79375;stroke-dasharray:none;stroke-opacity:1"
       d="m 612.09533,469.26155 c 8.4203,-16.02244 -13.79298,-54.51403 -17.3107,-57.64723 -3.51773,-3.13321 -18.09619,32.5385 -14.24495,52.54583 3.85124,20.00734 31.55565,5.1014 31.55565,5.1014 z"
       id="path46" />
    <path
       style="fill:#ffffff;fill-opacity:1;stroke:#000000;stroke-width:0.79375;stroke-dasharray:none;stroke-opacity:1"
       d="m 479.13405,437.78747 -19.83139,-12.90912 c 0,0 -10.47696,13.84456 -5.23848,23.38609 5.23848,9.54152 2.24504,-14.78001 25.06987,-10.47697 z"
       id="path39" />
    <path
       style="fill:#ffffff;fill-opacity:1;stroke:#000000;stroke-width:0.79375;stroke-dasharray:none;stroke-opacity:1"
       d="m 457.45788,447.41039 c 8.46666,3.3073 6.74687,14.15521 3.04271,14.55209 -3.70417,0.39687 -8.33438,0.92604 -8.0698,-2.11667 0.26459,-3.04271 -1.4552,-13.75833 5.02709,-12.43542 z"
       id="path42" />
    <path
       style="fill:#ffffff;fill-opacity:1;stroke:#000000;stroke-width:0.79375;stroke-dasharray:none;stroke-opacity:1"
       d="m 432.05788,461.96248 c 3.96875,-7.27604 24.07708,-7.9375 26.32604,-5.55625 2.24896,2.38125 -0.92604,11.37708 -5.82083,10.84791 -4.8948,-0.52916 -17.06563,4.63021 -20.50521,-5.29166 z"
       id="path41" />
    <path
       style="fill:#ffffff;fill-opacity:1;stroke:#000000;stroke-width:0.79375;stroke-dasharray:none;stroke-opacity:1"
       d="m 479.32116,486.05634 c 27.87619,-8.04483 4.30303,-53.32026 -3.18052,-55.56534 -9.16735,5.98684 -21.70229,23.0119 -15.71546,32.36635 8.2482,12.88784 18.89598,23.19899 18.89598,23.19899 z"
       id="path38"
       sodipodi:nodetypes="ccsc" />
    <path
       style="fill:#ffffff;fill-opacity:1;stroke:#000000;stroke-width:0.79375;stroke-dasharray:none;stroke-opacity:1"
       d="m 243.21304,457.19998 -1.19062,-37.30625 c 0,0 -25.79687,-0.52916 -29.36875,10.05417 -3.57187,10.58334 11.11249,-3.70417 30.55937,27.25208 z"
       id="path32" />
    <path
       style="fill:#ffffff;fill-opacity:1;stroke:#000000;stroke-width:0.79375;stroke-dasharray:none;stroke-opacity:1"
       d="m 172.35015,465.0781 c -7.48354,3.92885 -8.08631,41.37091 -6.21542,45.48685 1.87089,4.11596 36.66938,-21.14103 35.17267,-31.80506 -1.49671,-10.66405 -7.81623,-17.61067 -28.95725,-13.68179 z"
       id="path30"
       sodipodi:nodetypes="cssc" />
    <path
       style="fill:#ffffff;fill-opacity:1;stroke:#000000;stroke-width:0.79375;stroke-dasharray:none;stroke-opacity:1"
       d="m 190.92397,310.00591 c 27.97985,-13.5416 25.62517,24.61887 16.56124,40.49092 -15.34127,-6.17392 -30.98405,-33.51062 -16.56124,-40.49092 z"
       id="path16"
       sodipodi:nodetypes="scs" />
    <path
       sodipodi:nodetypes="ccsc"
       style="display:inline;opacity:0.99;fill:#ffffff;fill-opacity:1;fill-rule:nonzero;stroke:#000000;stroke-width:0.79375;stroke-linecap:butt;stroke-miterlimit:4;stroke-dasharray:none;stroke-dashoffset:0;stroke-opacity:1"
       d="m 205.13974,231.29414 20.69635,-0.50115 c 7.08706,-20.90677 -0.20344,-39.19506 -1.2139,-34.19062 -3.68649,18.25779 -19.48245,34.69176 -19.48245,34.69176 z"
       id="path848"
       inkscape:connector-curvature="0" />
    <path
       inkscape:connector-curvature="0"
       id="path4604"
       d="m 43.711641,130.97762 h 29.507442 c 6.997811,-20.64352 -5.59825,-19.82713 -14.228889,-14.46213 -8.630635,5.36499 -15.278553,14.46213 -15.278553,14.46213 z"
       style="display:inline;opacity:0.99;fill:#ffffff;fill-opacity:1;fill-rule:nonzero;stroke:#000000;stroke-width:0.79375;stroke-linecap:butt;stroke-miterlimit:4;stroke-dasharray:none;stroke-dashoffset:0;stroke-opacity:1" />
    <path
       style="display:inline;opacity:0.99;fill:#ffffff;fill-opacity:1;fill-rule:nonzero;stroke:#000000;stroke-width:0.79375;stroke-linecap:butt;stroke-miterlimit:4;stroke-dasharray:none;stroke-dashoffset:0;stroke-opacity:1"
       d="m 375.16564,205.9925 v 21.00169 c -6.94515,-9.73063 -14.5858,-8.78423 -20.7887,-15.56832 -5.9948,-6.55648 4.1341,-14.52841 20.7887,-5.43337 z"
       id="path885"
       inkscape:connector-curvature="0"
       sodipodi:nodetypes="ccsc" />
    <path
       sodipodi:nodetypes="ccsc"
       style="display:inline;opacity:0.99;fill:#ffffff;fill-opacity:1;fill-rule:nonzero;stroke:#000000;stroke-width:0.79375;stroke-linecap:butt;stroke-miterlimit:4;stroke-dasharray:none;stroke-dashoffset:0;stroke-opacity:1"
       d="m 698.06482,263.03241 h 29.88375 c 7.08704,-20.90682 2.28372,-30.94091 -4.05366,-22.83172 -10.98496,14.05598 -25.83009,22.83172 -25.83009,22.83172 z"
       id="path927"
       inkscape:connector-curvature="0" />
    <path
       sodipodi:nodetypes="cccc"
       inkscape:connector-curvature="0"
       id="path947"
       d="m 811.68606,222.27635 v -24.05428 c 18.12726,18.83804 39.25513,19.87819 38.9211,23.55314 -0.33401,3.67494 -13.69756,8.18513 -38.9211,0.50115 z"
       style="display:inline;opacity:0.99;fill:#ffffff;fill-opacity:1;fill-rule:nonzero;stroke:#000000;stroke-width:0.79375;stroke-linecap:butt;stroke-miterlimit:4;stroke-dasharray:none;stroke-dashoffset:0;stroke-opacity:1" />
    <path
       inkscape:connector-curvature="0"
       id="path953"
       d="m 965.54437,199.59977 23.15103,16.5365 c -17.24518,-0.5906 -18.66256,8.15008 -23.15103,10.39433 -4.48847,2.2442 -7.55951,-14.64658 0,-26.93083 z"
       style="display:inline;opacity:0.99;fill:#ffffff;fill-opacity:1;fill-rule:nonzero;stroke:#000000;stroke-width:0.79375;stroke-linecap:butt;stroke-miterlimit:4;stroke-dasharray:none;stroke-dashoffset:0;stroke-opacity:1" />
    <path
       style="display:inline;opacity:0.99;fill:#ffffff;fill-opacity:1;fill-rule:nonzero;stroke:#000000;stroke-width:0.79375;stroke-linecap:butt;stroke-miterlimit:4;stroke-dasharray:none;stroke-dashoffset:0;stroke-opacity:1"
       d="m 460.1571,263.34378 h 29.65022 c 0,0 -1.16929,-19.37702 -9.93908,-24.55536 -8.76986,-5.17835 -1.08575,13.78108 -19.71114,24.55536 z"
       id="path901"
       inkscape:connector-curvature="0" />
    <path
       style="display:inline;opacity:0.99;fill:#ffffff;fill-opacity:1;fill-rule:nonzero;stroke:#000000;stroke-width:0.79375;stroke-linecap:butt;stroke-miterlimit:4;stroke-dasharray:none;stroke-dashoffset:0;stroke-opacity:1"
       d="m 479.29658,238.10957 c 1.88985,-5.19714 -9.80386,-14.52844 -13.70168,-14.29219 -3.89792,0.23603 -7.91393,5.5515 -6.73272,7.55949 1.18114,2.008 14.88287,12.63859 16.77277,10.98494 1.88984,-1.65364 3.66163,-4.25224 3.66163,-4.25224 z"
       id="path907"
       inkscape:connector-curvature="0" />
    <path
       style="display:inline;opacity:0.99;fill:#ffffff;fill-opacity:1;fill-rule:nonzero;stroke:#000000;stroke-width:0.79375;stroke-linecap:butt;stroke-miterlimit:4;stroke-dasharray:none;stroke-dashoffset:0;stroke-opacity:1"
       d="m 195.75652,188.77329 c 5.51244,-4.51014 25.55902,4.79079 19.37706,24.22128 -3.98532,12.52623 -11.68262,17.07837 -14.52236,17.41247 -5.17834,-7.34993 -25.06695,-17.07837 -4.8547,-41.63375 z"
       id="path844"
       inkscape:connector-curvature="0"
       sodipodi:nodetypes="cscc" />
    <path
       style="display:inline;opacity:0.99;fill:#ffffff;fill-opacity:1;fill-rule:nonzero;stroke:#000000;stroke-width:0.79375;stroke-linecap:butt;stroke-miterlimit:4;stroke-dasharray:none;stroke-dashoffset:0;stroke-opacity:1"
       d="m 224.98914,195.62208 c -10.69079,-0.66815 -21.21453,14.36575 -21.21453,16.87139 0,2.50565 1.1693,12.19413 7.85107,11.52598 6.68172,-0.6682 15.36798,-15.36798 13.36346,-28.39737 z"
       id="path850"
       inkscape:connector-curvature="0" />
    <path
       style="display:inline;opacity:0.99;fill:#ffffff;fill-opacity:1;fill-rule:nonzero;stroke:#000000;stroke-width:0.79375;stroke-linecap:butt;stroke-miterlimit:4;stroke-dasharray:none;stroke-dashoffset:0;stroke-opacity:1"
       d="m 72.758298,113.44907 c 2.854094,-1.8087 5.261871,-13.937664 2.505655,-16.526863 -2.75622,-2.589194 -11.275434,-2.338593 -11.358955,0 -0.08355,2.338598 -0.501132,13.436573 2.923262,16.610363 0,0 3.075944,1.72519 5.930038,-0.0835 z"
       id="path4618"
       inkscape:connector-curvature="0"
       sodipodi:nodetypes="zsccz" />
    <path
       style="display:inline;opacity:0.99;fill:#ffffff;fill-opacity:1;fill-rule:nonzero;stroke:#000000;stroke-width:0.79375;stroke-linecap:butt;stroke-miterlimit:4;stroke-dasharray:none;stroke-dashoffset:0;stroke-opacity:1"
       d="m 354.26614,202.22275 c -9.56595,-3.359 -20.46281,-0.50115 -22.30029,5.34539 -1.83747,5.84647 2.7046,9.63662 7.684,9.43792 15.39795,-0.6145 22.8533,-11.89101 14.61629,-14.78331 z"
       id="path883"
       inkscape:connector-curvature="0"
       sodipodi:nodetypes="scss" />
    <path
       sodipodi:nodetypes="cccc"
       inkscape:connector-curvature="0"
       id="path923"
       d="m 730.56774,243.06238 c 12.11067,-17.79013 9.73025,-23.88722 6.72351,-27.06101 -3.00679,-3.17385 -17.87366,-0.33399 -17.37254,3.50789 1.56294,11.65183 3.58945,23.89552 10.64903,23.55312 z"
       style="display:inline;opacity:0.99;fill:#ffffff;fill-opacity:1;fill-rule:nonzero;stroke:#000000;stroke-width:0.79375;stroke-linecap:butt;stroke-miterlimit:4;stroke-dasharray:none;stroke-dashoffset:0;stroke-opacity:1" />
    <path
       inkscape:connector-curvature="0"
       id="path943"
       d="m 848.51979,224.4919 c 5.85148,1.3633 19.13418,-8.73863 17.29671,-13.74993 -1.8375,-5.01131 -12.19419,-2.00455 -14.36574,-0.33398 -2.17157,1.67045 -6.96689,5.21539 -6.46577,8.38924 0.56202,5.02289 1.69021,5.19549 3.5348,5.69479 z"
       style="display:inline;opacity:0.99;fill:#ffffff;fill-opacity:1;fill-rule:nonzero;stroke:#000000;stroke-width:0.79375;stroke-linecap:butt;stroke-miterlimit:4;stroke-dasharray:none;stroke-dashoffset:0;stroke-opacity:1"
       sodipodi:nodetypes="ccccc" />
    <path
       sodipodi:nodetypes="cccc"
       inkscape:connector-curvature="0"
       id="path951"
       d="m 965.30814,226.7668 c 2.2442,6.96895 27.87578,11.3393 29.52942,1.1812 1.65359,-10.15814 -14.15244,-9.43549 -19.34965,-10.85289 -5.19716,-1.41745 -10.17977,9.67169 -10.17977,9.67169 z"
       style="display:inline;opacity:0.99;fill:#ffffff;fill-opacity:1;fill-rule:nonzero;stroke:#000000;stroke-width:0.79375;stroke-linecap:butt;stroke-miterlimit:4;stroke-dasharray:none;stroke-dashoffset:0;stroke-opacity:1" />
    <path
       style="display:inline;opacity:0.99;fill:#ffffff;fill-opacity:1;fill-rule:nonzero;stroke:#000000;stroke-width:0.79375;stroke-linecap:butt;stroke-miterlimit:4;stroke-dasharray:none;stroke-dashoffset:0;stroke-opacity:1"
       d="m 723.06919,187.98374 c -23.54035,2.97179 -33.59052,19.65952 -34.41224,25.73268 -0.82166,6.07309 31.30976,6.02799 36.93971,-2.0319 5.62991,-8.0599 13.18596,-19.82889 -2.52747,-23.70078 z"
       id="path977"
       inkscape:connector-curvature="0" />
    <path
       style="display:inline;opacity:0.99;fill:#ffffff;fill-opacity:1;fill-rule:nonzero;stroke:#000000;stroke-width:0.79375;stroke-linecap:butt;stroke-miterlimit:4;stroke-dasharray:none;stroke-dashoffset:0;stroke-opacity:1"
       d="m 472.18423,194.35493 c -4.67725,-16.53727 -29.23265,-24.22126 -33.57581,-26.05871 -4.34308,-1.8375 -4.00904,29.9007 14.86685,43.76528 16.20328,10.18964 18.70896,-17.70657 18.70896,-17.70657 z"
       id="path899"
       inkscape:connector-curvature="0"
       sodipodi:nodetypes="cccc" />
    <path
       style="display:inline;opacity:0.99;fill:#ffffff;fill-opacity:1;fill-rule:nonzero;stroke:#000000;stroke-width:0.79375;stroke-linecap:butt;stroke-miterlimit:4;stroke-dasharray:none;stroke-dashoffset:0;stroke-opacity:1"
       d="M 63.320599,68.859252 C 76.850863,68.524759 88.710953,70.529398 90.548439,108.28115 62.986264,98.759707 61.983998,86.732575 61.983998,86.732575 53.297738,77.879289 63.320599,68.859252 63.320599,68.859252 Z"
       id="path4562"
       inkscape:connector-curvature="0"
       sodipodi:nodetypes="cccc" />
    <path
       style="display:inline;opacity:0.99;fill:#ffffff;fill-opacity:1;fill-rule:nonzero;stroke:#000000;stroke-width:0.79375;stroke-linecap:butt;stroke-miterlimit:4;stroke-dasharray:none;stroke-dashoffset:0;stroke-opacity:1"
       d="m 332.01958,180.82264 c -4.13411,-3.66165 -28.46632,-12.99294 -35.19904,-12.63858 -6.7327,0.35449 4.84282,31.18299 21.37927,35.90769 16.53649,4.72467 24.68657,-10.15809 13.81977,-23.26911 z"
       id="path873"
       inkscape:connector-curvature="0" />
    <path
       sodipodi:nodetypes="sccs"
       inkscape:connector-curvature="0"
       id="path911"
       d="m 1011.9466,207.03881 c 1.1328,-17.14863 -30.01236,-39.45699 -33.92196,-42.09398 -3.90962,-2.637 -6.27224,33.33259 9.59137,50.56284 19.98899,17.90323 23.86899,-1.4817 24.33059,-8.46886 z"
       style="display:inline;opacity:0.99;fill:#ffffff;fill-opacity:1;fill-rule:nonzero;stroke:#000000;stroke-width:0.79375;stroke-linecap:butt;stroke-miterlimit:4;stroke-dasharray:none;stroke-dashoffset:0;stroke-opacity:1" />
    <path
       inkscape:connector-curvature="0"
       id="path935"
       d="m 871.2156,182.9942 c -6.02019,-7.29024 -30.47086,-15.66563 -37.20354,-15.31128 -6.73272,0.3545 7.68254,33.1875 24.21903,37.91224 16.53642,4.72471 23.82762,-9.47038 12.98451,-22.60096 z"
       style="display:inline;opacity:0.99;fill:#ffffff;fill-opacity:1;fill-rule:nonzero;stroke:#000000;stroke-width:0.79375;stroke-linecap:butt;stroke-miterlimit:4;stroke-dasharray:none;stroke-dashoffset:0;stroke-opacity:1"
       sodipodi:nodetypes="ssss" />
    <ellipse
       style="display:inline;opacity:0.99;fill:#ffffff;fill-opacity:1;fill-rule:nonzero;stroke:#000000;stroke-width:0.79375;stroke-linecap:butt;stroke-miterlimit:4;stroke-dasharray:none;stroke-dashoffset:0;stroke-opacity:1"
       id="path4528"
       cx="66.577133"
       cy="60.994843"
       rx="8.9769344"
       ry="8.9769201" />
    <ellipse
       cy="181.29651"
       cx="197.65138"
       id="circle836"
       style="display:inline;opacity:0.99;fill:#ffffff;fill-opacity:1;fill-rule:nonzero;stroke:#000000;stroke-width:0.79375;stroke-linecap:butt;stroke-miterlimit:4;stroke-dasharray:none;stroke-dashoffset:0;stroke-opacity:1"
       rx="8.9769344"
       ry="8.9769201" />
    <ellipse
       cy="210.41772"
       cx="81.040581"
       id="circle854"
       style="display:inline;opacity:0.99;fill:#ffffff;fill-opacity:1;fill-rule:nonzero;stroke:#000000;stroke-width:0.79375;stroke-linecap:butt;stroke-miterlimit:4;stroke-dasharray:none;stroke-dashoffset:0;stroke-opacity:1"
       rx="8.9769344"
       ry="8.9769201" />
    <ellipse
       style="display:inline;opacity:0.99;fill:#ffffff;fill-opacity:1;fill-rule:nonzero;stroke:#000000;stroke-width:0.79375;stroke-linecap:butt;stroke-miterlimit:4;stroke-dasharray:none;stroke-dashoffset:0;stroke-opacity:1"
       id="circle865"
       cx="333.52454"
       cy="172.71158"
       rx="8.9769344"
       ry="8.9769201" />
    <ellipse
       cy="188.73102"
       cx="478.58713"
       id="circle887"
       style="display:inline;opacity:0.99;fill:#ffffff;fill-opacity:1;fill-rule:nonzero;stroke:#000000;stroke-width:0.79375;stroke-linecap:butt;stroke-miterlimit:4;stroke-dasharray:none;stroke-dashoffset:0;stroke-opacity:1"
       rx="8.9769344"
       ry="8.9769201" />
    <ellipse
       style="display:inline;opacity:0.99;fill:#ffffff;fill-opacity:1;fill-rule:nonzero;stroke:#000000;stroke-width:0.79375;stroke-linecap:butt;stroke-miterlimit:4;stroke-dasharray:none;stroke-dashoffset:0;stroke-opacity:1"
       id="circle921"
       cx="726.65765"
       cy="181.29648"
       inkscape:label="circle921"
       rx="8.9769344"
       ry="8.9769201" />
    <ellipse
       cy="173.04568"
       cx="862.86493"
       id="circle937"
       style="display:inline;opacity:0.99;fill:#ffffff;fill-opacity:1;fill-rule:nonzero;stroke:#000000;stroke-width:0.79375;stroke-linecap:butt;stroke-miterlimit:4;stroke-dasharray:none;stroke-dashoffset:0;stroke-opacity:1"
       rx="8.9769344"
       ry="8.9769201" />
    <ellipse
       style="display:inline;opacity:0.99;fill:#ffffff;fill-opacity:1;fill-rule:nonzero;stroke:#000000;stroke-width:0.79375;stroke-linecap:butt;stroke-miterlimit:4;stroke-dasharray:none;stroke-dashoffset:0;stroke-opacity:1"
       id="circle949"
       cx="1008.7748"
       cy="187.66434"
       rx="8.9769344"
       ry="8.9769201" />
    <ellipse
       cy="210.41772"
       cx="609.56604"
       id="ellipse1"
       style="display:inline;opacity:0.99;fill:#ffffff;fill-opacity:1;fill-rule:nonzero;stroke:#000000;stroke-width:0.79375;stroke-linecap:butt;stroke-miterlimit:4;stroke-dasharray:none;stroke-dashoffset:0;stroke-opacity:1"
       rx="8.9769344"
       ry="8.9769201" />
    <path
       style="display:inline;opacity:0.99;fill:#ffffff;fill-opacity:1;fill-rule:nonzero;stroke:#000000;stroke-width:0.79375;stroke-linecap:butt;stroke-miterlimit:4;stroke-dasharray:none;stroke-dashoffset:0;stroke-opacity:1"
       d="m 78.423126,233.7915 c -6.09708,-3.9255 -33.57573,0.83519 -34.91208,3.75849 -1.33636,2.92326 -3.75848,9.93904 1.67044,10.60724 5.42891,0.66815 27.3116,-3.50789 30.48544,-7.43343 3.17381,-3.9255 2.7562,-6.9323 2.7562,-6.9323 z"
       id="path863"
       inkscape:connector-curvature="0" />
    <path
       style="display:inline;opacity:0.99;fill:#ffffff;fill-opacity:1;fill-rule:nonzero;stroke:#000000;stroke-width:0.79375;stroke-linecap:butt;stroke-miterlimit:4;stroke-dasharray:none;stroke-dashoffset:0;stroke-opacity:1"
       d="m 66.661216,115.29699 c 3.507912,-3.09034 2.839738,-18.458281 0.501128,-20.04523 -2.338606,-1.586897 -12.194171,0.501153 -12.027125,2.589199 0.16705,2.088047 4.343125,15.200931 6.765259,16.954881 2.422125,1.75395 4.760738,0.50116 4.760738,0.50116 z"
       id="path4616"
       inkscape:connector-curvature="0" />
    <path
       style="display:inline;opacity:0.99;fill:#ffffff;fill-opacity:1;fill-rule:nonzero;stroke:#000000;stroke-width:0.79375;stroke-linecap:butt;stroke-miterlimit:4;stroke-dasharray:none;stroke-dashoffset:0;stroke-opacity:1"
       d="m 201.43601,242.72828 c 12.11065,-17.79008 9.85555,-23.55307 6.84879,-26.72691 -3.00681,-3.1738 -17.87366,-0.33399 -17.37253,3.50789 1.56295,11.65183 8.68427,30.95306 10.52374,23.21902 z"
       id="path852"
       inkscape:connector-curvature="0"
       sodipodi:nodetypes="cccc" />
    <path
       style="display:inline;opacity:0.99;fill:#ffffff;fill-opacity:1;fill-rule:nonzero;stroke:#000000;stroke-width:0.79375;stroke-linecap:butt;stroke-miterlimit:4;stroke-dasharray:none;stroke-dashoffset:0;stroke-opacity:1"
       d="m 321.10802,222.602 c 8.68629,2.83975 17.5396,-6.84879 15.7021,-11.86008 -1.83748,-5.01127 -12.19418,-2.0045 -14.36574,-0.33399 -2.17157,1.67045 -6.84877,6.51469 -6.34766,9.68854 0.50115,3.17379 5.0113,2.5056 5.0113,2.5056 z"
       id="path881"
       inkscape:connector-curvature="0" />
    <path
       style="display:inline;opacity:0.99;fill:#ffffff;fill-opacity:1;fill-rule:nonzero;stroke:#000000;stroke-width:0.79375;stroke-linecap:butt;stroke-miterlimit:4;stroke-dasharray:none;stroke-dashoffset:0;stroke-opacity:1"
       d="m 436.00938,226.20713 c 2.24422,6.96894 27.87576,11.33929 29.5294,1.1812 1.65359,-10.15808 -13.8601,-9.22669 -19.05731,-10.64409 -5.19714,-1.41744 -10.47209,9.46289 -10.47209,9.46289 z"
       id="path905"
       inkscape:connector-curvature="0"
       sodipodi:nodetypes="cccc" />
    <path
       inkscape:connector-curvature="0"
       id="path917"
       d="m 753.99562,195.62208 c -10.6908,-0.6682 -21.21456,14.36575 -21.21456,16.87139 0,2.50565 1.1693,12.19413 7.85103,11.52593 6.68176,-0.66815 15.368,-15.36793 13.36353,-28.39732 z"
       style="display:inline;opacity:0.99;fill:#ffffff;fill-opacity:1;fill-rule:nonzero;stroke:#000000;stroke-width:0.79375;stroke-linecap:butt;stroke-miterlimit:4;stroke-dasharray:none;stroke-dashoffset:0;stroke-opacity:1" />
    <path
       inkscape:connector-curvature="0"
       id="path939"
       d="m 890.53889,202.72386 c -6.18057,-4.00904 -27.72918,-1.00224 -29.56669,4.84425 -1.83745,5.84656 3.17386,11.526 8.0181,10.3567 4.84426,-1.1693 20.54634,-5.34539 21.21451,-9.18739 0.66819,-3.84201 0.33398,-6.01356 0.33398,-6.01356 z"
       style="display:inline;opacity:0.99;fill:#ffffff;fill-opacity:1;fill-rule:nonzero;stroke:#000000;stroke-width:0.79375;stroke-linecap:butt;stroke-miterlimit:4;stroke-dasharray:none;stroke-dashoffset:0;stroke-opacity:1" />
    <path
       inkscape:connector-curvature="0"
       id="path909"
       d="m 1008.3029,238.46044 c 1.8899,-5.19715 -10.27996,-12.41034 -13.7016,-14.29219 -9.44945,-5.19719 -12.99296,6.96889 -11.81175,8.9769 1.18114,2.008 19.96185,11.22119 21.85175,9.56754 1.8898,-1.65366 3.6616,-4.25225 3.6616,-4.25225 z"
       style="display:inline;opacity:0.99;fill:#ffffff;fill-opacity:1;fill-rule:nonzero;stroke:#000000;stroke-width:0.79375;stroke-linecap:butt;stroke-miterlimit:4;stroke-dasharray:none;stroke-dashoffset:0;stroke-opacity:1"
       sodipodi:nodetypes="csccc" />
    <path
       style="display:inline;opacity:0.99;fill:#ffffff;fill-opacity:1;fill-rule:nonzero;stroke:#000000;stroke-width:0.79375;stroke-linecap:butt;stroke-miterlimit:4;stroke-dasharray:none;stroke-dashoffset:0;stroke-opacity:1"
       d="m 606.94861,233.7915 c -6.09708,-3.9255 -33.57573,0.83519 -34.91208,3.75849 -1.33636,2.92326 -3.75848,9.93904 1.67044,10.60724 5.42891,0.66815 27.3116,-3.50789 30.48544,-7.43343 3.17381,-3.9255 2.7562,-6.9323 2.7562,-6.9323 z"
       id="path1"
       inkscape:connector-curvature="0" />
    <path
       style="display:inline;opacity:0.99;fill:#ffffff;fill-opacity:1;fill-rule:nonzero;stroke:#000000;stroke-width:0.79375;stroke-linecap:butt;stroke-miterlimit:4;stroke-dasharray:none;stroke-dashoffset:0;stroke-opacity:1"
       d="M 436.53792,199.24897 459.689,215.7854 c -17.24522,-0.5906 -18.66256,8.15008 -23.15108,10.39433 -4.48842,2.2442 -7.55949,-14.64658 0,-26.93076 z"
       id="path903"
       inkscape:connector-curvature="0" />
    <path
       style="display:inline;opacity:0.99;fill:#ffffff;fill-opacity:1;fill-rule:nonzero;stroke:#000000;stroke-width:0.79375;stroke-linecap:butt;stroke-miterlimit:4;stroke-dasharray:none;stroke-dashoffset:0;stroke-opacity:1"
       d="m 36.455115,131.09087 h 29.883744 c 7.087056,-20.90677 -6.861326,-24.00481 -11.65413,-14.89714 -4.397571,8.3567 -18.229614,14.89714 -18.229614,14.89714 z"
       id="path4600"
       inkscape:connector-curvature="0"
       sodipodi:nodetypes="ccsc" />
    <path
       inkscape:connector-curvature="0"
       id="path846"
       d="m 169.05835,263.03236 h 29.88375 c 7.08704,-20.90677 2.28377,-30.94086 -4.05365,-22.83167 -10.98493,14.05598 -25.8301,22.83167 -25.8301,22.83167 z"
       style="display:inline;opacity:0.99;fill:#ffffff;fill-opacity:1;fill-rule:nonzero;stroke:#000000;stroke-width:0.79375;stroke-linecap:butt;stroke-miterlimit:4;stroke-dasharray:none;stroke-dashoffset:0;stroke-opacity:1"
       sodipodi:nodetypes="ccsc" />
    <path
       style="display:inline;opacity:0.99;fill:#ffffff;fill-opacity:1;fill-rule:nonzero;stroke:#000000;stroke-width:0.79375;stroke-linecap:butt;stroke-miterlimit:4;stroke-dasharray:none;stroke-dashoffset:0;stroke-opacity:1"
       d="m 37.998616,263.1076 h 37.91886 c 0,0 10.6518,-19.76981 4.34315,-27.89625 -4.92779,-6.3476 -8.51924,8.68629 -42.26201,27.89625 z"
       id="path859"
       inkscape:connector-curvature="0"
       sodipodi:nodetypes="ccsc" />
    <path
       style="display:inline;opacity:0.99;fill:#ffffff;fill-opacity:1;fill-rule:nonzero;stroke:#000000;stroke-width:0.79375;stroke-linecap:butt;stroke-miterlimit:4;stroke-dasharray:none;stroke-dashoffset:0;stroke-opacity:1"
       d="m 282.67965,222.2763 v -24.05419 c 18.12725,18.83795 39.25522,19.8781 38.92112,23.55304 -0.3341,3.67494 -13.69754,8.18514 -38.92112,0.50115 z"
       id="path877"
       inkscape:connector-curvature="0"
       sodipodi:nodetypes="cccc" />
    <path
       sodipodi:nodetypes="ccsc"
       inkscape:connector-curvature="0"
       id="path941"
       d="m 909.09984,204.40557 v 21.00178 c -6.94515,-9.73069 -14.58585,-8.78428 -20.78873,-15.56838 -5.99482,-6.55646 4.13408,-14.52844 20.78873,-5.4334 z"
       style="display:inline;opacity:0.99;fill:#ffffff;fill-opacity:1;fill-rule:nonzero;stroke:#000000;stroke-width:0.79375;stroke-linecap:butt;stroke-miterlimit:4;stroke-dasharray:none;stroke-dashoffset:0;stroke-opacity:1" />
    <path
       inkscape:connector-curvature="0"
       id="path957"
       d="m 989.16349,263.6947 h 29.65021 c 0,0 -1.1693,-19.37701 -9.9391,-24.55541 -8.7698,-5.17835 -1.0858,13.78113 -19.71111,24.55541 z"
       style="display:inline;opacity:0.99;fill:#ffffff;fill-opacity:1;fill-rule:nonzero;stroke:#000000;stroke-width:0.79375;stroke-linecap:butt;stroke-miterlimit:4;stroke-dasharray:none;stroke-dashoffset:0;stroke-opacity:1" />
    <path
       inkscape:connector-curvature="0"
       id="path919"
       d="m 736.98596,231.79524 17.85658,-1.00225 c 7.08706,-20.90677 1.40996,-38.57026 -1.21394,-34.19066 -12.53975,20.93053 -16.64264,35.19291 -16.64264,35.19291 z"
       style="display:inline;opacity:0.99;fill:#ffffff;fill-opacity:1;fill-rule:nonzero;stroke:#000000;stroke-width:0.79375;stroke-linecap:butt;stroke-miterlimit:4;stroke-dasharray:none;stroke-dashoffset:0;stroke-opacity:1"
       sodipodi:nodetypes="ccsc" />
    <path
       style="display:inline;opacity:0.99;fill:#ffffff;fill-opacity:1;fill-rule:nonzero;stroke:#000000;stroke-width:0.79375;stroke-linecap:butt;stroke-miterlimit:4;stroke-dasharray:none;stroke-dashoffset:0;stroke-opacity:1"
       d="m 566.5241,263.1076 h 37.91886 c 0,0 10.6518,-19.76981 4.34315,-27.89625 -4.92779,-6.3476 -8.51924,8.68629 -42.26201,27.89625 z"
       id="path2"
       inkscape:connector-curvature="0"
       sodipodi:nodetypes="ccsc" />
    <path
       style="display:inline;opacity:0.99;fill:#ffffff;fill-opacity:1;fill-rule:nonzero;stroke:#000000;stroke-width:0.79375;stroke-linecap:butt;stroke-miterlimit:4;stroke-dasharray:none;stroke-dashoffset:0;stroke-opacity:1"
       d="M 63.320599,68.859252 C 47.451215,65.016959 30.412786,100.43011 33.419567,113.45949 68.331669,112.29084 82.697893,71.53225 63.320599,68.859252 Z"
       id="path4559"
       inkscape:connector-curvature="0" />
    <path
       style="display:inline;opacity:0.99;fill:#ffffff;fill-opacity:1;fill-rule:nonzero;stroke:#000000;stroke-width:0.79375;stroke-linecap:butt;stroke-miterlimit:4;stroke-dasharray:none;stroke-dashoffset:0;stroke-opacity:1"
       d="m 195.42244,189.44148 c -14.19867,5.0113 -28.89852,21.38154 -30.90302,48.77666 29.5667,5.84649 40.59155,-16.03619 43.0972,-24.05422 2.50565,-8.01811 2.83975,-26.22583 -12.19418,-24.72244 z"
       id="path842"
       inkscape:connector-curvature="0" />
    <path
       style="display:inline;opacity:0.99;fill:#ffffff;fill-opacity:1;fill-rule:nonzero;stroke:#000000;stroke-width:0.79375;stroke-linecap:butt;stroke-miterlimit:4;stroke-dasharray:none;stroke-dashoffset:0;stroke-opacity:1"
       d="m 71.407306,211.15713 c 7.01582,11.52598 1.33634,27.72922 -20.04521,31.23711 -21.38156,3.5079 -38.75409,-1.33635 -38.75409,-1.33635 0,0 17.37253,-43.59829 58.7993,-29.90076 z"
       id="path861"
       inkscape:connector-curvature="0" />
    <path
       style="display:inline;opacity:0.99;fill:#ffffff;fill-opacity:1;fill-rule:nonzero;stroke:#000000;stroke-width:0.79375;stroke-linecap:butt;stroke-miterlimit:4;stroke-dasharray:none;stroke-dashoffset:0;stroke-opacity:1"
       d="m 326.62046,179.67189 c 16.44978,2.1705 22.97583,23.19036 10.75506,30.48088 -20.25209,12.08178 -60.70596,-20.71335 -61.54117,-25.05644 -0.83522,-4.34314 37.81046,-7.13649 50.78611,-5.42444 z"
       id="path871"
       inkscape:connector-curvature="0"
       sodipodi:nodetypes="sscs" />
    <path
       style="display:inline;opacity:0.99;fill:#ffffff;fill-opacity:1;fill-rule:nonzero;stroke:#000000;stroke-width:0.79375;stroke-linecap:butt;stroke-miterlimit:4;stroke-dasharray:none;stroke-dashoffset:0;stroke-opacity:1"
       d="m 468.84332,189.67773 c 15.68627,5.4022 12.19423,36.58245 -2.50565,38.08584 -14.69983,1.5034 -46.77219,-26.55985 -50.94823,-36.08134 -4.17612,-9.52143 25.22038,-11.72788 53.45388,-2.0045 z"
       id="path897"
       inkscape:connector-curvature="0"
       sodipodi:nodetypes="sscs" />
    <path
       inkscape:connector-curvature="0"
       id="path925"
       d="m 729.44022,189.10738 c -14.1987,5.0113 -28.89858,21.38154 -30.90307,48.77666 29.56671,5.84655 40.59155,-16.03619 43.0972,-24.05422 2.50565,-8.01811 2.83977,-26.22583 -12.19413,-24.72244 z"
       style="display:inline;opacity:0.99;fill:#ffffff;fill-opacity:1;fill-rule:nonzero;stroke:#000000;stroke-width:0.79375;stroke-linecap:butt;stroke-miterlimit:4;stroke-dasharray:none;stroke-dashoffset:0;stroke-opacity:1" />
    <path
       sodipodi:nodetypes="sscs"
       inkscape:connector-curvature="0"
       id="path945"
       d="m 855.6268,179.6719 c 16.4498,2.1705 22.97584,23.19036 10.75509,30.48093 -20.25209,12.08177 -60.70594,-20.71339 -61.54112,-25.05654 -0.83521,-4.34309 37.81044,-7.13648 50.78603,-5.42439 z"
       style="display:inline;opacity:0.99;fill:#ffffff;fill-opacity:1;fill-rule:nonzero;stroke:#000000;stroke-width:0.79375;stroke-linecap:butt;stroke-miterlimit:4;stroke-dasharray:none;stroke-dashoffset:0;stroke-opacity:1" />
    <path
       sodipodi:nodetypes="sscs"
       inkscape:connector-curvature="0"
       id="path955"
       d="m 997.84975,190.02854 c 15.68615,5.40219 12.19415,36.58251 -2.50564,38.08591 -14.69987,1.50339 -46.7722,-26.55988 -50.94827,-36.08137 -4.17609,-9.52148 25.22042,-11.72793 53.45391,-2.00454 z"
       style="display:inline;opacity:0.99;fill:#ffffff;fill-opacity:1;fill-rule:nonzero;stroke:#000000;stroke-width:0.79375;stroke-linecap:butt;stroke-miterlimit:4;stroke-dasharray:none;stroke-dashoffset:0;stroke-opacity:1" />
    <path
       style="display:inline;opacity:0.99;fill:#ffffff;fill-opacity:1;fill-rule:nonzero;stroke:#000000;stroke-width:0.79375;stroke-linecap:butt;stroke-miterlimit:4;stroke-dasharray:none;stroke-dashoffset:0;stroke-opacity:1"
       d="m 599.93279,211.15713 c 7.01582,11.52598 1.33634,27.72922 -20.04521,31.23711 -21.38156,3.5079 -38.75409,-1.33635 -38.75409,-1.33635 0,0 17.37253,-43.59829 58.7993,-29.90076 z"
       id="path3"
       inkscape:connector-curvature="0" />
    <ellipse
       cy="343.31454"
       cx="81.040581"
       id="ellipse5"
       style="display:inline;opacity:0.99;fill:#ffffff;fill-opacity:1;fill-rule:nonzero;stroke:#000000;stroke-width:0.79375;stroke-linecap:butt;stroke-miterlimit:4;stroke-dasharray:none;stroke-dashoffset:0;stroke-opacity:1"
       rx="8.9769344"
       ry="8.9769201" />
    <path
       style="display:inline;opacity:0.99;fill:#ffffff;fill-opacity:1;fill-rule:nonzero;stroke:#000000;stroke-width:0.79375;stroke-linecap:butt;stroke-miterlimit:4;stroke-dasharray:none;stroke-dashoffset:0;stroke-opacity:1"
       d="m 78.423126,366.68831 c -6.09708,-3.9255 -33.57573,0.83519 -34.91208,3.75849 -1.33636,2.92326 -3.75848,9.93904 1.67044,10.60724 5.42891,0.66815 27.3116,-3.50789 30.48544,-7.43343 3.17381,-3.9255 2.7562,-6.9323 2.7562,-6.9323 z"
       id="path5"
       inkscape:connector-curvature="0" />
    <path
       style="display:inline;opacity:0.99;fill:#ffffff;fill-opacity:1;fill-rule:nonzero;stroke:#000000;stroke-width:0.79375;stroke-linecap:butt;stroke-miterlimit:4;stroke-dasharray:none;stroke-dashoffset:0;stroke-opacity:1"
       d="m 37.998616,396.00441 h 37.91886 c 0,0 10.6518,-19.76981 4.34315,-27.89625 -4.92779,-6.3476 -8.51924,8.68629 -42.26201,27.89625 z"
       id="path6"
       inkscape:connector-curvature="0"
       sodipodi:nodetypes="ccsc" />
    <path
       style="display:inline;opacity:0.99;fill:#ffffff;fill-opacity:1;fill-rule:nonzero;stroke:#000000;stroke-width:0.79375;stroke-linecap:butt;stroke-miterlimit:4;stroke-dasharray:none;stroke-dashoffset:0;stroke-opacity:1"
       d="m 71.407306,344.05394 c 7.01582,11.52598 1.33634,27.72922 -20.04521,31.23711 -21.38156,3.5079 -38.75409,-1.33635 -38.75409,-1.33635 0,0 17.37253,-43.59829 58.7993,-29.90076 z"
       id="path7"
       inkscape:connector-curvature="0" />
    <ellipse
       cy="301.30933"
       cx="191.12436"
       id="ellipse10"
       style="display:inline;opacity:0.99;fill:#ffffff;fill-opacity:1;fill-rule:nonzero;stroke:#000000;stroke-width:0.79375;stroke-linecap:butt;stroke-miterlimit:4;stroke-dasharray:none;stroke-dashoffset:0;stroke-opacity:1"
       rx="8.9769344"
       ry="8.9769201" />
    <path
       style="display:inline;fill:#ffffff;fill-opacity:1;stroke:#000000;stroke-width:0.79375;stroke-dasharray:none;stroke-opacity:1"
       d="m 224.9529,325.01858 c 5.38202,17.99647 -18.52084,42.46562 -18.52084,42.46562 l 2.24896,-25.79687 c 5.29167,2.64584 15.32286,-19.84211 16.27188,-16.66875 z"
       id="path18"
       sodipodi:nodetypes="sccs" />
    <path
       style="display:inline;fill:#ffffff;fill-opacity:1;stroke:#000000;stroke-width:0.79375;stroke-dasharray:none;stroke-opacity:1"
       d="m 224.15915,325.01858 c 0.26458,6.21771 -14.55209,22.88646 -19.71146,17.06562 -5.15938,-5.82083 6.87917,-20.37291 19.71146,-17.06562 z"
       id="path19" />
    <path
       style="display:inline;fill:#ffffff;fill-opacity:1;stroke:#000000;stroke-width:0.79375;stroke-dasharray:none;stroke-opacity:1"
       d="m 206.43206,363.25087 c 6.08542,-4.89479 5.42396,-22.35729 -0.26458,-24.60625 -5.68854,-2.24896 -9.39271,16.13958 -7.80521,19.05 1.5875,2.91041 4.89479,7.54062 8.06979,5.55625 z"
       id="path20" />
    <path
       style="fill:#ffffff;stroke:#000000;stroke-width:0.79375"
       d="m 186.71448,366.13249 1.30962,27.12788 c 0,0 26.72112,-25.05509 19.45722,-35.17267 -5.23848,-7.29646 -12.16076,17.77341 -20.76684,8.04479 z"
       id="path4"
       sodipodi:nodetypes="ccsc" />
    <path
       style="fill:#ffffff;fill-opacity:1;stroke:#000000;stroke-width:0.79375;stroke-dasharray:none;stroke-opacity:1"
       d="m 189.89498,308.88337 c 16.7914,-6.11913 19.11737,9.9018 16.08963,25.81824 -5.3675,28.21623 -30.32165,32.8313 -30.32165,32.8313 0,0 -16.56198,-47.42757 14.23202,-58.64954 z"
       id="path15"
       sodipodi:nodetypes="sscs" />
    <path
       style="fill:#ffffff;fill-opacity:1;stroke:#000000;stroke-width:0.79375;stroke-dasharray:none;stroke-opacity:1"
       d="m 59.473708,455.56089 c 27.97985,-13.5416 25.62517,24.61887 16.56124,40.49092 -15.34127,-6.17392 -30.98405,-33.51062 -16.56124,-40.49092 z"
       id="path21"
       sodipodi:nodetypes="scs" />
    <ellipse
       cy="446.86429"
       cx="59.674099"
       id="ellipse21"
       style="display:inline;opacity:0.99;fill:#ffffff;fill-opacity:1;fill-rule:nonzero;stroke:#000000;stroke-width:0.79375;stroke-linecap:butt;stroke-miterlimit:4;stroke-dasharray:none;stroke-dashoffset:0;stroke-opacity:1"
       rx="8.9769344"
       ry="8.9769201" />
    <path
       style="display:inline;fill:#ffffff;fill-opacity:1;stroke:#000000;stroke-width:0.79375;stroke-dasharray:none;stroke-opacity:1"
       d="m 93.502638,470.57356 c 5.38202,17.99647 -18.52084,42.46562 -18.52084,42.46562 l 2.24896,-25.79687 c 5.29167,2.64584 15.32286,-19.84211 16.27188,-16.66875 z"
       id="path22"
       sodipodi:nodetypes="sccs" />
    <path
       style="display:inline;fill:#ffffff;fill-opacity:1;stroke:#000000;stroke-width:0.79375;stroke-dasharray:none;stroke-opacity:1"
       d="m 92.708888,470.57356 c 0.26458,6.21771 -14.55209,22.88646 -19.71146,17.06562 -5.15938,-5.82083 6.87917,-20.37291 19.71146,-17.06562 z"
       id="path23" />
    <path
       style="display:inline;fill:#ffffff;fill-opacity:1;stroke:#000000;stroke-width:0.79375;stroke-dasharray:none;stroke-opacity:1"
       d="m 74.981798,508.80585 c 6.08542,-4.89479 5.42396,-22.35729 -0.26458,-24.60625 -5.68854,-2.24896 -9.39271,16.13958 -7.80521,19.05 1.5875,2.91041 4.89479,7.54062 8.06979,5.55625 z"
       id="path24" />
    <path
       style="display:inline;fill:#ffffff;fill-opacity:1;stroke:#000000;stroke-width:0.79375;stroke-dasharray:none;stroke-opacity:1"
       d="m 39.922948,527.59002 h 30.68254 c 0,0 8.60608,-19.64431 0.56127,-25.81823 -8.04482,-6.17394 -3.92887,20.57974 -31.24381,25.81823 z"
       id="path25" />
    <path
       style="fill:#ffffff;fill-opacity:1;stroke:#000000;stroke-width:0.79375;stroke-dasharray:none;stroke-opacity:1"
       d="m 58.444718,454.43835 c 16.7914,-6.11913 19.11737,9.9018 16.08963,25.81824 -5.3675,28.21623 -30.32165,32.8313 -30.32165,32.8313 0,0 -16.56198,-47.42757 14.23202,-58.64954 z"
       id="path26"
       sodipodi:nodetypes="sscs" />
    <ellipse
       cy="464.65814"
       cx="166.31464"
       id="ellipse26"
       style="display:inline;opacity:0.99;fill:#ffffff;fill-opacity:1;fill-rule:nonzero;stroke:#000000;stroke-width:0.79375;stroke-linecap:butt;stroke-miterlimit:4;stroke-dasharray:none;stroke-dashoffset:0;stroke-opacity:1"
       rx="8.9769344"
       ry="8.9769201" />
    <path
       style="fill:#ffffff;fill-opacity:1;stroke:#000000;stroke-width:0.79375;stroke-dasharray:none;stroke-opacity:1"
       d="m 215.2995,431.79998 c 11.1125,10.18646 4.8948,24.87083 2.77813,25.66458 -2.11667,0.79375 -9.39271,3.83646 -11.1125,1.5875 -1.71979,-2.24896 0.52917,-36.5125 8.33437,-27.25208 z"
       id="path34" />
    <path
       style="fill:#ffffff;fill-opacity:1;stroke:#000000;stroke-width:0.79375;stroke-dasharray:none;stroke-opacity:1"
       d="m 216.09325,472.14893 c -6.61458,1.98438 -10.18646,-8.86354 -10.18646,-12.17083 0,-3.30729 12.8323,-6.35 13.89063,-2.38125 1.05833,3.96875 4.89479,15.61042 -3.70417,14.55208 z"
       id="path33" />
    <path
       style="fill:#ffffff;fill-opacity:1;stroke:#000000;stroke-width:0.79375;stroke-dasharray:none;stroke-opacity:1"
       d="m 198.06721,506.28018 31.12292,-0.13229 c 0,0 2.38125,-30.1625 -8.73125,-35.71875 -11.1125,-5.55625 4.05175,21.79602 -22.39167,35.85104 z"
       id="path31"
       sodipodi:nodetypes="ccsc" />
    <path
       style="fill:#ffffff;fill-opacity:1;stroke:#000000;stroke-width:0.79375;stroke-dasharray:none;stroke-opacity:1"
       d="m 173.83746,466.64679 c 3.12659,-25.46599 35.29128,-24.64001 36.05721,-8.54254 1.26451,26.57628 -15.52572,49.98354 -28.43747,59.39628 -11.78625,-11.60047 -8.6954,-42.0925 -7.61974,-50.85374 z"
       id="path29"
       sodipodi:nodetypes="sscs" />
    <ellipse
       cy="484.65555"
       cx="488.52673"
       id="ellipse34"
       style="display:inline;opacity:0.99;fill:#ffffff;fill-opacity:1;fill-rule:nonzero;stroke:#000000;stroke-width:0.79375;stroke-linecap:butt;stroke-miterlimit:4;stroke-dasharray:none;stroke-dashoffset:0;stroke-opacity:1"
       rx="8.9769344"
       ry="8.9769201" />
    <path
       style="fill:#ffffff;fill-opacity:1;stroke:#000000;stroke-width:0.79375;stroke-dasharray:none;stroke-opacity:1"
       d="m 449.38696,451.25785 -5.42557,-19.45723 c 0,0 -16.84873,7.18814 -13.65747,28.2504 1.87089,12.34785 10.28986,-11.41241 19.08304,-8.79317 z"
       id="path40"
       sodipodi:nodetypes="ccsc" />
    <path
       style="fill:#ffffff;fill-opacity:1;stroke:#000000;stroke-width:0.79375;stroke-dasharray:none;stroke-opacity:1"
       d="m 479.94745,489.47914 c -25.66458,19.31458 -56.62082,-7.67292 -59.79582,-19.84375 26.72292,-18.52082 69.05624,-12.96458 59.79582,19.84375 z"
       id="path37"
       sodipodi:nodetypes="ccc" />
    <ellipse
       cy="462.57907"
       cx="620.98547"
       id="ellipse42"
       style="display:inline;opacity:0.99;fill:#ffffff;fill-opacity:1;fill-rule:nonzero;stroke:#000000;stroke-width:0.79375;stroke-linecap:butt;stroke-miterlimit:4;stroke-dasharray:none;stroke-dashoffset:0;stroke-opacity:1"
       rx="8.9769344"
       ry="8.9769201" />
    <path
       style="fill:#ffffff;fill-opacity:1;stroke:#000000;stroke-width:0.79375;stroke-dasharray:none;stroke-opacity:1"
       d="m 542.37002,446.39353 c 29.74708,60.99092 74.83548,53.69446 73.52584,23.76028 -8.0448,-20.95392 -73.52584,-23.76028 -73.52584,-23.76028 z"
       id="path45"
       sodipodi:nodetypes="ccc" />
    <path
       style="fill:#ffffff;fill-opacity:1;stroke:#000000;stroke-width:0.79375;stroke-dasharray:none;stroke-opacity:1"
       d="m 544.98926,479.88241 -0.18708,28.62456 c 0,0 24.6957,1.30963 24.6957,-8.04482 0,-9.35442 -10.1028,8.98028 -24.50862,-20.57974 z"
       id="path47" />
    <ellipse
       cy="487.85715"
       cx="330.95267"
       id="ellipse51"
       style="display:inline;opacity:0.99;fill:#ffffff;fill-opacity:1;fill-rule:nonzero;stroke:#000000;stroke-width:0.79375;stroke-linecap:butt;stroke-miterlimit:4;stroke-dasharray:none;stroke-dashoffset:0;stroke-opacity:1"
       rx="8.9769344"
       ry="8.9769201" />
    <path
       style="display:inline;fill:#ffffff;stroke:#000000;stroke-width:0.79375"
       d="m 330.19998,478.49893 c 14.41979,7.27604 33.41822,-20.93646 26.49205,-35.45967 -8.2358,0.25679 -26.34873,0.35537 -33.5035,24.87634 -3.5974,12.32909 7.01145,10.58333 7.01145,10.58333 z"
       id="path54"
       sodipodi:nodetypes="ccsc" />
    <path
       style="fill:#ffffff;stroke:#000000;stroke-width:0.79375"
       d="m 303.27072,438.53582 c -4.39658,5.42557 6.64165,18.8024 10.75759,17.67988 4.11596,-1.12252 11.2001,-2.44976 9.56032,-6.4385 -2.73231,-6.6463 -15.73424,-14.79606 -20.31791,-11.24138 z"
       id="path58"
       sodipodi:nodetypes="cssc" />
    <path
       style="display:inline;fill:#ffffff;stroke:#000000;stroke-width:0.79375"
       d="m 330.86144,478.49893 c -14.55208,9.78959 -41.01041,8.99584 -46.56666,-25.39999 17.19792,-8.33437 48.41873,-7.01148 46.56666,25.39999 z"
       id="path53"
       sodipodi:nodetypes="ccc" />
    <path
       style="fill:#ffffff;stroke:#000000;stroke-width:0.79375"
       d="m 320.1087,441.62279 8.98025,-17.96052 c 0,0 -21.60873,-0.84189 -26.09886,11.69305 -4.49013,12.53494 12.2543,-7.48355 17.11861,6.26747 z"
       id="path57" />
  </g>
</svg>
