<?xml version="1.0" encoding="UTF-8" standalone="no"?>
<!-- Created with Inkscape (http://www.inkscape.org/) -->

<svg
   width="210mm"
   height="297mm"
   viewBox="0 0 210 297"
   version="1.1"
   id="svg8"
   inkscape:version="1.3.2 (091e20e, 2023-11-25, custom)"
   sodipodi:docname="AbstractHumanoids.svg"
   xmlns:inkscape="http://www.inkscape.org/namespaces/inkscape"
   xmlns:sodipodi="http://sodipodi.sourceforge.net/DTD/sodipodi-0.dtd"
   xmlns="http://www.w3.org/2000/svg"
   xmlns:svg="http://www.w3.org/2000/svg"
   xmlns:rdf="http://www.w3.org/1999/02/22-rdf-syntax-ns#"
   xmlns:cc="http://creativecommons.org/ns#"
   xmlns:dc="http://purl.org/dc/elements/1.1/">
  <defs
     id="defs2" />
  <sodipodi:namedview
     id="base"
     pagecolor="#ffffff"
     bordercolor="#666666"
     borderopacity="1.0"
     inkscape:pageopacity="0.0"
     inkscape:pageshadow="2"
     inkscape:zoom="0.98994949"
     inkscape:cx="288.90363"
     inkscape:cy="38.890873"
     inkscape:document-units="px"
     inkscape:current-layer="layer6"
     showgrid="false"
     inkscape:window-width="1920"
     inkscape:window-height="1017"
     inkscape:window-x="1912"
     inkscape:window-y="-8"
     inkscape:window-maximized="1"
     inkscape:snap-global="true"
     units="mm"
     inkscape:showpageshadow="2"
     inkscape:pagecheckerboard="0"
     inkscape:deskcolor="#d1d1d1">
    <inkscape:grid
       type="xygrid"
       id="grid900"
       originx="0"
       originy="0"
       spacingy="1"
       spacingx="1"
       units="mm"
       visible="false" />
  </sodipodi:namedview>
  <metadata
     id="metadata5">
    <rdf:RDF>
      <cc:Work
         rdf:about="">
        <dc:format>image/svg+xml</dc:format>
        <dc:type
           rdf:resource="http://purl.org/dc/dcmitype/StillImage" />
        <dc:title />
      </cc:Work>
    </rdf:RDF>
  </metadata>
  <g
     inkscape:groupmode="layer"
     id="layer11"
     inkscape:label="Background"
     style="display:inline">
    <rect
       style="display:none;opacity:0.99;fill:#cbcbcb;fill-opacity:1;fill-rule:nonzero;stroke:#000000;stroke-width:0.436912;stroke-linecap:butt;stroke-miterlimit:4;stroke-dasharray:none;stroke-dashoffset:0;stroke-opacity:1"
       id="rect4657"
       width="254.80281"
       height="347.0108"
       x="-25.03717"
       y="-24.43907" />
  </g>
  <g
     inkscape:label="MainLayer"
     inkscape:groupmode="layer"
     id="layer1"
     style="display:inline">
    <g
       inkscape:groupmode="layer"
       id="layer10"
       inkscape:label="LeftFoot"
       style="display:inline">
      <path
         sodipodi:nodetypes="ccsc"
         style="display:inline;opacity:0.99;fill:#ffffff;fill-opacity:1;fill-rule:nonzero;stroke:#000000;stroke-width:0.264583;stroke-linecap:butt;stroke-miterlimit:4;stroke-dasharray:none;stroke-dashoffset:0;stroke-opacity:1"
         d="m 66.986491,19.303574 4.139271,-0.10023 c 1.417411,-4.18136 -0.04069,-7.839024 -0.242783,-6.838134 -0.737296,3.651564 -3.896488,6.938364 -3.896488,6.938364 z"
         id="path848"
         inkscape:connector-curvature="0" />
      <path
         inkscape:connector-curvature="0"
         id="path4604"
         d="m 8.7423184,25.628594 h 5.9014886 c 1.399562,-4.12871 -1.11965,-3.96543 -2.845778,-2.89243 -1.726127,1.073 -3.0557106,2.89243 -3.0557106,2.89243 z"
         style="display:inline;opacity:0.99;fill:#ffffff;fill-opacity:1;fill-rule:nonzero;stroke:#000000;stroke-width:0.261252;stroke-linecap:butt;stroke-miterlimit:4;stroke-dasharray:none;stroke-dashoffset:0;stroke-opacity:1" />
      <path
         style="display:inline;opacity:0.99;fill:#ffffff;fill-opacity:1;fill-rule:nonzero;stroke:#000000;stroke-width:0.264583;stroke-linecap:butt;stroke-miterlimit:4;stroke-dasharray:none;stroke-dashoffset:0;stroke-opacity:1"
         d="m 100.99167,14.243237 v 4.200346 c -1.389029,-1.94613 -2.917159,-1.75685 -4.157739,-3.11367 -1.19896,-1.311296 0.82682,-2.905686 4.157739,-1.086676 z"
         id="path885"
         inkscape:connector-curvature="0"
         sodipodi:nodetypes="ccsc" />
      <path
         sodipodi:nodetypes="ccsc"
         style="display:inline;opacity:0.99;fill:#ffffff;fill-opacity:1;fill-rule:nonzero;stroke:#000000;stroke-width:0.264583;stroke-linecap:butt;stroke-miterlimit:4;stroke-dasharray:none;stroke-dashoffset:0;stroke-opacity:1"
         d="m 139.14523,25.651234 h 5.97675 c 1.41741,-4.18137 0.45675,-6.18819 -0.81073,-4.56635 -2.19699,2.8112 -5.16602,4.56635 -5.16602,4.56635 z"
         id="path927"
         inkscape:connector-curvature="0" />
      <path
         sodipodi:nodetypes="cccc"
         inkscape:connector-curvature="0"
         id="path947"
         d="M 161.86948,17.500014 V 12.68915 c 3.62545,3.767614 7.85103,3.975644 7.78422,4.710634 -0.0668,0.73499 -2.73951,1.63703 -7.78422,0.10023 z"
         style="display:inline;opacity:0.99;fill:#ffffff;fill-opacity:1;fill-rule:nonzero;stroke:#000000;stroke-width:0.264583;stroke-linecap:butt;stroke-miterlimit:4;stroke-dasharray:none;stroke-dashoffset:0;stroke-opacity:1" />
      <path
         inkscape:connector-curvature="0"
         id="path953"
         d="m 192.64114,12.96469 4.63021,3.307304 c -3.44904,-0.11812 -3.73251,1.63002 -4.63021,2.07887 -0.89769,0.44884 -1.5119,-2.92932 0,-5.386174 z"
         style="display:inline;opacity:0.99;fill:#ffffff;fill-opacity:1;fill-rule:nonzero;stroke:#000000;stroke-width:0.264583;stroke-linecap:butt;stroke-miterlimit:4;stroke-dasharray:none;stroke-dashoffset:0;stroke-opacity:1" />
      <path
         style="display:inline;opacity:0.99;fill:#ffffff;fill-opacity:1;fill-rule:nonzero;stroke:#000000;stroke-width:0.264583;stroke-linecap:butt;stroke-miterlimit:4;stroke-dasharray:none;stroke-dashoffset:0;stroke-opacity:1"
         d="m 117.98996,25.71351 h 5.93005 c 0,0 -0.23386,-3.87541 -1.98782,-4.91108 -1.75397,-1.03567 -0.21715,2.75622 -3.94223,4.91108 z"
         id="path901"
         inkscape:connector-curvature="0" />
    </g>
    <g
       inkscape:groupmode="layer"
       id="layer8"
       inkscape:label="LeftLeg"
       style="display:inline">
      <path
         style="display:inline;opacity:0.99;fill:#ffffff;fill-opacity:1;fill-rule:nonzero;stroke:#000000;stroke-width:0.264583;stroke-linecap:butt;stroke-miterlimit:4;stroke-dasharray:none;stroke-dashoffset:0;stroke-opacity:1"
         d="m 121.81786,20.66666 c 0.37797,-1.03943 -1.96077,-2.90569 -2.74034,-2.85844 -0.77958,0.0472 -1.58278,1.1103 -1.34654,1.5119 0.23623,0.4016 2.97657,2.52772 3.35455,2.19699 0.37797,-0.33073 0.73233,-0.85045 0.73233,-0.85045 z"
         id="path907"
         inkscape:connector-curvature="0" />
      <path
         style="display:inline;opacity:0.99;fill:#ffffff;fill-opacity:1;fill-rule:nonzero;stroke:#000000;stroke-width:0.264583;stroke-linecap:butt;stroke-miterlimit:4;stroke-dasharray:none;stroke-dashoffset:0;stroke-opacity:1"
         d="m 70.95637,12.16915 c -2.138156,-0.13363 -4.242903,2.873154 -4.242903,3.374284 0,0.50113 0.23386,2.43883 1.570209,2.3052 1.336347,-0.13364 3.073599,-3.0736 2.672694,-5.679484 z"
         id="path850"
         inkscape:connector-curvature="0" />
      <path
         style="display:inline;opacity:0.99;fill:#ffffff;fill-opacity:1;fill-rule:nonzero;stroke:#000000;stroke-width:0.264583;stroke-linecap:butt;stroke-miterlimit:4;stroke-dasharray:none;stroke-dashoffset:0;stroke-opacity:1"
         d="m 14.55165,22.342124 c 0.300679,-0.40091 1.052374,-3.00678 0.501131,-3.52462 -0.551244,-0.51784 -2.255087,-0.46772 -2.271791,0 -0.01671,0.46772 -0.217157,3.02349 0.467722,3.65825 0.684878,0.63477 1.336347,-0.0668 1.336347,-0.0668 z"
         id="path4618"
         inkscape:connector-curvature="0" />
      <path
         style="display:inline;opacity:0.99;fill:#ffffff;fill-opacity:1;fill-rule:nonzero;stroke:#000000;stroke-width:0.264583;stroke-linecap:butt;stroke-miterlimit:4;stroke-dasharray:none;stroke-dashoffset:0;stroke-opacity:1"
         d="m 96.811771,13.489287 c -1.91319,-0.6718 -4.092561,-0.10023 -4.460057,1.06908 -0.367495,1.169296 0.540917,1.927326 1.536802,1.887586 3.079585,-0.1229 4.570655,-2.378206 2.923255,-2.956666 z"
         id="path883"
         inkscape:connector-curvature="0"
         sodipodi:nodetypes="scss" />
      <path
         sodipodi:nodetypes="cccc"
         inkscape:connector-curvature="0"
         id="path923"
         d="m 145.64582,21.657224 c 2.42213,-3.55803 1.94605,-4.77745 1.3447,-5.41221 -0.60136,-0.63477 -3.57473,-0.0668 -3.47451,0.70158 0.31259,2.33037 0.71789,4.77911 2.12981,4.71063 z"
         style="display:inline;opacity:0.99;fill:#ffffff;fill-opacity:1;fill-rule:nonzero;stroke:#000000;stroke-width:0.264583;stroke-linecap:butt;stroke-miterlimit:4;stroke-dasharray:none;stroke-dashoffset:0;stroke-opacity:1" />
      <path
         inkscape:connector-curvature="0"
         id="path943"
         d="m 169.23623,17.943124 c 1.17029,0.27266 3.82683,-1.74773 3.45934,-2.74999 -0.3675,-1.002264 -2.43884,-0.40091 -2.87315,-0.0668 -0.43431,0.33409 -1.39338,1.04308 -1.29315,1.67785 0.1124,1.00458 0.33804,1.0391 0.70696,1.13896 z"
         style="display:inline;opacity:0.99;fill:#ffffff;fill-opacity:1;fill-rule:nonzero;stroke:#000000;stroke-width:0.264583;stroke-linecap:butt;stroke-miterlimit:4;stroke-dasharray:none;stroke-dashoffset:0;stroke-opacity:1"
         sodipodi:nodetypes="ccccc" />
      <path
         sodipodi:nodetypes="cccc"
         inkscape:connector-curvature="0"
         id="path951"
         d="m 192.5939,18.398104 c 0.44884,1.39379 5.57515,2.26786 5.90588,0.23624 0.33072,-2.03163 -2.83049,-1.8871 -3.86993,-2.17058 -1.03943,-0.28349 -2.03595,1.93434 -2.03595,1.93434 z"
         style="display:inline;opacity:0.99;fill:#ffffff;fill-opacity:1;fill-rule:nonzero;stroke:#000000;stroke-width:0.264583;stroke-linecap:butt;stroke-miterlimit:4;stroke-dasharray:none;stroke-dashoffset:0;stroke-opacity:1" />
    </g>
    <g
       inkscape:groupmode="layer"
       id="layer6"
       inkscape:label="LeftArm"
       style="display:inline">
      <path
         style="display:inline;opacity:0.99;fill:#ffffff;fill-opacity:1;fill-rule:nonzero;stroke:#000000;stroke-width:0.264583;stroke-linecap:butt;stroke-miterlimit:4;stroke-dasharray:none;stroke-dashoffset:0;stroke-opacity:1"
         d="m 144.14611,10.64148 c -4.70807,0.59436 -6.71811,3.93191 -6.88245,5.146544 -0.16433,1.21462 6.26195,1.2056 7.38794,-0.40638 1.12598,-1.611984 2.63719,-3.965784 -0.50549,-4.740164 z"
         id="path977"
         inkscape:connector-curvature="0" />
      <path
         style="display:inline;opacity:0.99;fill:#ffffff;fill-opacity:1;fill-rule:nonzero;stroke:#000000;stroke-width:0.264583;stroke-linecap:butt;stroke-miterlimit:4;stroke-dasharray:none;stroke-dashoffset:0;stroke-opacity:1"
         d="m 120.39539,11.91572 c -0.93545,-3.3074596 -5.84653,-4.8442596 -6.71516,-5.2117496 -0.86862,-0.3675 -0.80181,5.9801496 2.97337,8.7530696 3.24065,2.03793 3.74179,-3.54132 3.74179,-3.54132 z"
         id="path899"
         inkscape:connector-curvature="0"
         sodipodi:nodetypes="cccc" />
      <path
         style="display:inline;opacity:0.99;fill:#ffffff;fill-opacity:1;fill-rule:nonzero;stroke:#000000;stroke-width:0.264583;stroke-linecap:butt;stroke-miterlimit:4;stroke-dasharray:none;stroke-dashoffset:0;stroke-opacity:1"
         d="m 65.109848,10.79939 c 1.102487,-0.9020296 5.111804,0.95816 3.875411,4.844264 -0.797062,2.50525 -2.336525,3.41568 -2.904471,3.4825 -1.035669,-1.46999 -5.013394,-3.41568 -0.97094,-8.326764 z"
         id="path844"
         inkscape:connector-curvature="0"
         sodipodi:nodetypes="cscc" />
      <path
         style="display:inline;opacity:0.99;fill:#ffffff;fill-opacity:1;fill-rule:nonzero;stroke:#000000;stroke-width:0.264583;stroke-linecap:butt;stroke-miterlimit:4;stroke-dasharray:none;stroke-dashoffset:0;stroke-opacity:1"
         d="m 12.66411,13.204904 c 2.706053,-0.0669 5.078071,0.33403 5.445568,7.88439 -5.512435,-1.90429 -5.712888,-4.30972 -5.712888,-4.30972 -1.737252,-1.77066 0.26732,-3.57467 0.26732,-3.57467 z"
         id="path4562"
         inkscape:connector-curvature="0"
         sodipodi:nodetypes="cccc" />
      <path
         style="display:inline;opacity:0.99;fill:#ffffff;fill-opacity:1;fill-rule:nonzero;stroke:#000000;stroke-width:0.264583;stroke-linecap:butt;stroke-miterlimit:4;stroke-dasharray:none;stroke-dashoffset:0;stroke-opacity:1"
         d="m 92.362459,9.2092574 c -0.826823,-0.73233 -5.693267,-2.59859 -7.039808,-2.52772 -1.346539,0.0709 0.968565,6.2366096 4.275857,7.1815496 3.307291,0.944936 4.937313,-2.03162 2.763951,-4.6538296 z"
         id="path873"
         inkscape:connector-curvature="0" />
      <path
         sodipodi:nodetypes="sccs"
         inkscape:connector-curvature="0"
         id="path911"
         d="m 201.92159,14.4525 c 0.22657,-3.42973 -6.00247,-7.8914096 -6.78439,-8.4188096 -0.78193,-0.5274 -1.25445,6.6665296 1.91827,10.1125836 3.99781,3.58065 4.77381,-0.29634 4.86612,-1.693774 z"
         style="display:inline;opacity:0.99;fill:#ffffff;fill-opacity:1;fill-rule:nonzero;stroke:#000000;stroke-width:0.264583;stroke-linecap:butt;stroke-miterlimit:4;stroke-dasharray:none;stroke-dashoffset:0;stroke-opacity:1" />
      <path
         inkscape:connector-curvature="0"
         id="path935"
         d="m 173.77539,9.6435704 c -1.20404,-1.45805 -6.09417,-3.13313 -7.44071,-3.06226 -1.34654,0.0709 1.53651,6.6375096 4.84381,7.5824596 3.30728,0.944944 4.76552,-1.89408 2.5969,-4.5201996 z"
         style="display:inline;opacity:0.99;fill:#ffffff;fill-opacity:1;fill-rule:nonzero;stroke:#000000;stroke-width:0.264583;stroke-linecap:butt;stroke-miterlimit:4;stroke-dasharray:none;stroke-dashoffset:0;stroke-opacity:1"
         sodipodi:nodetypes="ssss" />
    </g>
    <g
       inkscape:groupmode="layer"
       id="layer4"
       inkscape:label="Head"
       style="display:inline">
      <circle
         style="display:inline;opacity:0.99;fill:#ffffff;fill-opacity:1;fill-rule:nonzero;stroke:#000000;stroke-width:0.264583;stroke-linecap:butt;stroke-miterlimit:4;stroke-dasharray:none;stroke-dashoffset:0;stroke-opacity:1"
         id="path4528"
         cx="13.315416"
         cy="11.632019"
         r="1.7953868" />
      <circle
         r="1.7953868"
         cy="9.3040371"
         cx="65.488823"
         id="circle836"
         style="display:inline;opacity:0.99;fill:#ffffff;fill-opacity:1;fill-rule:nonzero;stroke:#000000;stroke-width:0.264583;stroke-linecap:butt;stroke-miterlimit:4;stroke-dasharray:none;stroke-dashoffset:0;stroke-opacity:1" />
      <circle
         r="1.7953868"
         cy="15.128286"
         cx="42.16666"
         id="circle854"
         style="display:inline;opacity:0.99;fill:#ffffff;fill-opacity:1;fill-rule:nonzero;stroke:#000000;stroke-width:0.264583;stroke-linecap:butt;stroke-miterlimit:4;stroke-dasharray:none;stroke-dashoffset:0;stroke-opacity:1" />
      <circle
         style="display:inline;opacity:0.99;fill:#ffffff;fill-opacity:1;fill-rule:nonzero;stroke:#000000;stroke-width:0.264583;stroke-linecap:butt;stroke-miterlimit:4;stroke-dasharray:none;stroke-dashoffset:0;stroke-opacity:1"
         id="circle865"
         cx="92.66346"
         cy="7.58705"
         r="1.7953868" />
      <circle
         r="1.7953868"
         cy="10.790937"
         cx="121.67598"
         id="circle887"
         style="display:inline;opacity:0.99;fill:#ffffff;fill-opacity:1;fill-rule:nonzero;stroke:#000000;stroke-width:0.264583;stroke-linecap:butt;stroke-miterlimit:4;stroke-dasharray:none;stroke-dashoffset:0;stroke-opacity:1" />
      <circle
         style="display:inline;opacity:0.99;fill:#ffffff;fill-opacity:1;fill-rule:nonzero;stroke:#000000;stroke-width:0.264583;stroke-linecap:butt;stroke-miterlimit:4;stroke-dasharray:none;stroke-dashoffset:0;stroke-opacity:1"
         id="circle921"
         cx="144.86382"
         cy="9.3040295"
         r="1.7953868"
         inkscape:label="circle921" />
      <circle
         r="1.7953868"
         cy="7.6538682"
         cx="172.10527"
         id="circle937"
         style="display:inline;opacity:0.99;fill:#ffffff;fill-opacity:1;fill-rule:nonzero;stroke:#000000;stroke-width:0.264583;stroke-linecap:butt;stroke-miterlimit:4;stroke-dasharray:none;stroke-dashoffset:0;stroke-opacity:1" />
      <circle
         style="display:inline;opacity:0.99;fill:#ffffff;fill-opacity:1;fill-rule:nonzero;stroke:#000000;stroke-width:0.264583;stroke-linecap:butt;stroke-miterlimit:4;stroke-dasharray:none;stroke-dashoffset:0;stroke-opacity:1"
         id="circle949"
         cx="201.28722"
         cy="10.577604"
         r="1.7953868" />
    </g>
    <g
       inkscape:groupmode="layer"
       id="layer7"
       inkscape:label="RightLeg"
       style="display:inline">
      <path
         style="display:inline;opacity:0.99;fill:#ffffff;fill-opacity:1;fill-rule:nonzero;stroke:#000000;stroke-width:0.264583;stroke-linecap:butt;stroke-miterlimit:4;stroke-dasharray:none;stroke-dashoffset:0;stroke-opacity:1"
         d="m 41.64317,19.803045 c -1.219417,-0.7851 -6.715149,0.16704 -6.982417,0.7517 -0.267269,0.58465 -0.751695,1.98781 0.334086,2.12145 1.085784,0.13363 5.462323,-0.70158 6.097088,-1.48669 0.634764,-0.7851 0.551243,-1.38646 0.551243,-1.38646 z"
         id="path863"
         inkscape:connector-curvature="0" />
      <path
         style="display:inline;opacity:0.99;fill:#ffffff;fill-opacity:1;fill-rule:nonzero;stroke:#000000;stroke-width:0.264583;stroke-linecap:butt;stroke-miterlimit:4;stroke-dasharray:none;stroke-dashoffset:0;stroke-opacity:1"
         d="m 13.332233,22.492464 c 0.701583,-0.61807 0.567948,-3.69166 0.100226,-4.00905 -0.467721,-0.31738 -2.438834,0.10023 -2.405425,0.51784 0.03341,0.41761 0.868625,3.04019 1.353052,3.39098 0.484425,0.35079 0.952147,0.10023 0.952147,0.10023 z"
         id="path4616"
         inkscape:connector-curvature="0" />
      <path
         style="display:inline;opacity:0.99;fill:#ffffff;fill-opacity:1;fill-rule:nonzero;stroke:#000000;stroke-width:0.264583;stroke-linecap:butt;stroke-miterlimit:4;stroke-dasharray:none;stroke-dashoffset:0;stroke-opacity:1"
         d="m 66.245746,21.590404 c 2.422129,-3.55802 1.971112,-4.71062 1.369756,-5.34539 -0.601358,-0.63476 -3.57473,-0.0668 -3.474506,0.70158 0.312592,2.33037 1.736854,6.19062 2.10475,4.64381 z"
         id="path852"
         inkscape:connector-curvature="0"
         sodipodi:nodetypes="cccc" />
      <path
         style="display:inline;opacity:0.99;fill:#ffffff;fill-opacity:1;fill-rule:nonzero;stroke:#000000;stroke-width:0.264583;stroke-linecap:butt;stroke-miterlimit:4;stroke-dasharray:none;stroke-dashoffset:0;stroke-opacity:1"
         d="m 90.180149,17.565143 c 1.737254,0.56795 3.507915,-1.36976 3.140419,-2.37202 -0.367496,-1.002256 -2.438836,-0.4009 -2.873147,-0.0668 -0.434314,0.33409 -1.369759,1.30294 -1.269532,1.93771 0.100227,0.63476 1.00226,0.50112 1.00226,0.50112 z"
         id="path881"
         inkscape:connector-curvature="0" />
      <path
         style="display:inline;opacity:0.99;fill:#ffffff;fill-opacity:1;fill-rule:nonzero;stroke:#000000;stroke-width:0.264583;stroke-linecap:butt;stroke-miterlimit:4;stroke-dasharray:none;stroke-dashoffset:0;stroke-opacity:1"
         d="m 113.16042,18.28617 c 0.44884,1.39379 5.57515,2.26786 5.90588,0.23624 0.33072,-2.03162 -2.77202,-1.84534 -3.81146,-2.12882 -1.03943,-0.28349 -2.09442,1.89258 -2.09442,1.89258 z"
         id="path905"
         inkscape:connector-curvature="0"
         sodipodi:nodetypes="cccc" />
      <path
         inkscape:connector-curvature="0"
         id="path917"
         d="m 150.33139,12.16915 c -2.13816,-0.13364 -4.24291,2.873154 -4.24291,3.374284 0,0.50113 0.23386,2.43883 1.57021,2.30519 1.33635,-0.13363 3.0736,-3.07359 2.6727,-5.679474 z"
         style="display:inline;opacity:0.99;fill:#ffffff;fill-opacity:1;fill-rule:nonzero;stroke:#000000;stroke-width:0.264583;stroke-linecap:butt;stroke-miterlimit:4;stroke-dasharray:none;stroke-dashoffset:0;stroke-opacity:1" />
      <path
         inkscape:connector-curvature="0"
         id="path939"
         d="m 177.64005,13.58951 c -1.23612,-0.80181 -5.54584,-0.20045 -5.91334,0.96885 -0.36749,1.169314 0.63477,2.305204 1.60362,2.071344 0.96885,-0.23386 4.10927,-1.06908 4.2429,-1.83748 0.13364,-0.768404 0.0668,-1.202714 0.0668,-1.202714 z"
         style="display:inline;opacity:0.99;fill:#ffffff;fill-opacity:1;fill-rule:nonzero;stroke:#000000;stroke-width:0.264583;stroke-linecap:butt;stroke-miterlimit:4;stroke-dasharray:none;stroke-dashoffset:0;stroke-opacity:1" />
      <path
         inkscape:connector-curvature="0"
         id="path909"
         d="m 201.19286,20.736834 c 0.37797,-1.03943 -2.056,-2.48207 -2.74033,-2.85844 -1.88989,-1.03944 -2.59859,1.39378 -2.36235,1.79538 0.23623,0.4016 3.99237,2.24424 4.37035,1.91351 0.37797,-0.33073 0.73233,-0.85045 0.73233,-0.85045 z"
         style="display:inline;opacity:0.99;fill:#ffffff;fill-opacity:1;fill-rule:nonzero;stroke:#000000;stroke-width:0.264583;stroke-linecap:butt;stroke-miterlimit:4;stroke-dasharray:none;stroke-dashoffset:0;stroke-opacity:1"
         sodipodi:nodetypes="csccc" />
    </g>
    <g
       inkscape:groupmode="layer"
       id="layer9"
       inkscape:label="RightFoot"
       style="display:inline">
      <path
         style="display:inline;opacity:0.99;fill:#ffffff;fill-opacity:1;fill-rule:nonzero;stroke:#000000;stroke-width:0.264583;stroke-linecap:butt;stroke-miterlimit:4;stroke-dasharray:none;stroke-dashoffset:0;stroke-opacity:1"
         d="m 113.26613,12.89453 4.63021,3.30729 c -3.44904,-0.11812 -3.73251,1.63002 -4.63021,2.07887 -0.89769,0.44884 -1.5119,-2.92932 0,-5.38616 z"
         id="path903"
         inkscape:connector-curvature="0" />
      <path
         style="display:inline;opacity:0.99;fill:#ffffff;fill-opacity:1;fill-rule:nonzero;stroke:#000000;stroke-width:0.264583;stroke-linecap:butt;stroke-miterlimit:4;stroke-dasharray:none;stroke-dashoffset:0;stroke-opacity:1"
         d="m 7.2910134,25.651244 h 5.9767486 c 1.417411,-4.18136 -1.372265,-4.80097 -2.330826,-2.97943 -0.879514,1.67134 -3.6459226,2.97943 -3.6459226,2.97943 z"
         id="path4600"
         inkscape:connector-curvature="0"
         sodipodi:nodetypes="ccsc" />
      <path
         inkscape:connector-curvature="0"
         id="path846"
         d="m 59.770213,25.651224 h 5.976749 c 1.417411,-4.18136 0.456755,-6.18818 -0.81073,-4.56634 -2.196987,2.8112 -5.166019,4.56634 -5.166019,4.56634 z"
         style="display:inline;opacity:0.99;fill:#ffffff;fill-opacity:1;fill-rule:nonzero;stroke:#000000;stroke-width:0.264583;stroke-linecap:butt;stroke-miterlimit:4;stroke-dasharray:none;stroke-dashoffset:0;stroke-opacity:1"
         sodipodi:nodetypes="ccsc" />
      <path
         style="display:inline;opacity:0.99;fill:#ffffff;fill-opacity:1;fill-rule:nonzero;stroke:#000000;stroke-width:0.264583;stroke-linecap:butt;stroke-miterlimit:4;stroke-dasharray:none;stroke-dashoffset:0;stroke-opacity:1"
         d="m 33.558266,25.666275 h 7.583773 c 0,0 2.130362,-3.95397 0.868627,-5.57926 -0.985557,-1.26952 -1.703844,1.73726 -8.4524,5.57926 z"
         id="path859"
         inkscape:connector-curvature="0"
         sodipodi:nodetypes="ccsc" />
      <path
         style="display:inline;opacity:0.99;fill:#ffffff;fill-opacity:1;fill-rule:nonzero;stroke:#000000;stroke-width:0.264583;stroke-linecap:butt;stroke-miterlimit:4;stroke-dasharray:none;stroke-dashoffset:0;stroke-opacity:1"
         d="m 82.494472,17.500003 v -4.810846 c 3.625452,3.767596 7.851044,3.975626 7.784227,4.710616 -0.06682,0.73499 -2.739513,1.63703 -7.784227,0.10023 z"
         id="path877"
         inkscape:connector-curvature="0"
         sodipodi:nodetypes="cccc" />
      <path
         sodipodi:nodetypes="ccsc"
         inkscape:connector-curvature="0"
         id="path941"
         d="m 181.35224,13.92585 v 4.200364 c -1.38903,-1.94614 -2.91717,-1.75686 -4.15775,-3.11368 -1.19896,-1.311294 0.82682,-2.905694 4.15775,-1.086684 z"
         style="display:inline;opacity:0.99;fill:#ffffff;fill-opacity:1;fill-rule:nonzero;stroke:#000000;stroke-width:0.264583;stroke-linecap:butt;stroke-miterlimit:4;stroke-dasharray:none;stroke-dashoffset:0;stroke-opacity:1" />
      <path
         inkscape:connector-curvature="0"
         id="path957"
         d="m 197.36497,25.783694 h 5.93004 c 0,0 -0.23386,-3.87541 -1.98782,-4.91109 -1.75396,-1.03567 -0.21715,2.75623 -3.94222,4.91109 z"
         style="display:inline;opacity:0.99;fill:#ffffff;fill-opacity:1;fill-rule:nonzero;stroke:#000000;stroke-width:0.264583;stroke-linecap:butt;stroke-miterlimit:4;stroke-dasharray:none;stroke-dashoffset:0;stroke-opacity:1" />
      <path
         inkscape:connector-curvature="0"
         id="path919"
         d="m 146.92946,19.403794 3.57132,-0.20045 c 1.41741,-4.18136 0.28199,-7.714064 -0.24279,-6.838144 -2.50795,4.186114 -3.32853,7.038594 -3.32853,7.038594 z"
         style="display:inline;opacity:0.99;fill:#ffffff;fill-opacity:1;fill-rule:nonzero;stroke:#000000;stroke-width:0.264583;stroke-linecap:butt;stroke-miterlimit:4;stroke-dasharray:none;stroke-dashoffset:0;stroke-opacity:1"
         sodipodi:nodetypes="ccsc" />
    </g>
    <g
       inkscape:groupmode="layer"
       id="layer5"
       inkscape:label="RightArm"
       style="display:inline;opacity:1">
      <path
         style="display:inline;opacity:0.99;fill:#ffffff;fill-opacity:1;fill-rule:nonzero;stroke:#000000;stroke-width:0.264583;stroke-linecap:butt;stroke-miterlimit:4;stroke-dasharray:none;stroke-dashoffset:0;stroke-opacity:1"
         d="m 12.66411,13.204904 c -3.1738766,-0.76846 -6.5815626,6.31418 -5.9802066,8.92006 6.9824206,-0.23373 9.8556656,-8.38546 5.9802066,-8.92006 z"
         id="path4559"
         inkscape:connector-curvature="0" />
      <path
         style="display:inline;opacity:0.99;fill:#ffffff;fill-opacity:1;fill-rule:nonzero;stroke:#000000;stroke-width:0.264583;stroke-linecap:butt;stroke-miterlimit:4;stroke-dasharray:none;stroke-dashoffset:0;stroke-opacity:1"
         d="m 65.043033,10.93303 c -2.839738,1.00226 -5.779704,4.276314 -6.180608,9.755344 5.913338,1.1693 8.118312,-3.20724 8.619442,-4.81085 0.501131,-1.603624 0.567948,-5.245174 -2.438834,-4.944494 z"
         id="path842"
         inkscape:connector-curvature="0" />
      <path
         style="display:inline;opacity:0.99;fill:#ffffff;fill-opacity:1;fill-rule:nonzero;stroke:#000000;stroke-width:0.264583;stroke-linecap:butt;stroke-miterlimit:4;stroke-dasharray:none;stroke-dashoffset:0;stroke-opacity:1"
         d="m 40.240005,15.276165 c 1.403165,2.3052 0.267269,5.54585 -4.009043,6.24743 -4.276312,0.70158 -7.750818,-0.26727 -7.750818,-0.26727 0,0 3.474506,-8.71967 11.759861,-5.98016 z"
         id="path861"
         inkscape:connector-curvature="0" />
      <path
         style="display:inline;opacity:0.99;fill:#ffffff;fill-opacity:1;fill-rule:nonzero;stroke:#000000;stroke-width:0.264583;stroke-linecap:butt;stroke-miterlimit:4;stroke-dasharray:none;stroke-dashoffset:0;stroke-opacity:1"
         d="m 91.282636,8.9791074 c 3.289955,0.4341 4.595165,4.6380796 2.151012,6.0961856 -4.05042,2.41636 -12.141193,-4.142676 -12.308237,-5.011296 -0.167042,-0.8686296 7.562095,-1.4272996 10.157225,-1.0848896 z"
         id="path871"
         inkscape:connector-curvature="0"
         sodipodi:nodetypes="sscs" />
      <path
         style="display:inline;opacity:0.99;fill:#ffffff;fill-opacity:1;fill-rule:nonzero;stroke:#000000;stroke-width:0.264583;stroke-linecap:butt;stroke-miterlimit:4;stroke-dasharray:none;stroke-dashoffset:0;stroke-opacity:1"
         d="m 119.72721,10.98028 c 3.13725,1.08044 2.43884,7.3165 -0.50113,7.61718 -2.93997,0.30068 -9.35444,-5.31198 -10.18965,-7.21628 -0.83522,-1.9042896 5.04408,-2.3455796 10.69078,-0.4009 z"
         id="path897"
         inkscape:connector-curvature="0"
         sodipodi:nodetypes="sscs" />
      <path
         inkscape:connector-curvature="0"
         id="path925"
         d="m 145.42031,10.86621 c -2.83974,1.00226 -5.77971,4.276314 -6.18061,9.755344 5.91334,1.16931 8.11831,-3.20724 8.61944,-4.81085 0.50113,-1.603624 0.56795,-5.245174 -2.43883,-4.944494 z"
         style="display:inline;opacity:0.99;fill:#ffffff;fill-opacity:1;fill-rule:nonzero;stroke:#000000;stroke-width:0.264583;stroke-linecap:butt;stroke-miterlimit:4;stroke-dasharray:none;stroke-dashoffset:0;stroke-opacity:1" />
      <path
         sodipodi:nodetypes="sscs"
         inkscape:connector-curvature="0"
         id="path945"
         d="m 170.65763,8.9791104 c 3.28996,0.4341 4.59517,4.6380796 2.15102,6.0961936 -4.05042,2.41636 -12.14119,-4.142684 -12.30823,-5.011314 -0.16704,-0.8686196 7.56209,-1.4272996 10.15721,-1.0848796 z"
         style="display:inline;opacity:0.99;fill:#ffffff;fill-opacity:1;fill-rule:nonzero;stroke:#000000;stroke-width:0.264583;stroke-linecap:butt;stroke-miterlimit:4;stroke-dasharray:none;stroke-dashoffset:0;stroke-opacity:1" />
      <path
         sodipodi:nodetypes="sscs"
         inkscape:connector-curvature="0"
         id="path955"
         d="m 199.10222,11.05044 c 3.13724,1.08044 2.43883,7.316514 -0.50113,7.617194 -2.93997,0.30068 -9.35444,-5.311984 -10.18965,-7.216284 -0.83522,-1.9042996 5.04408,-2.3455896 10.69078,-0.40091 z"
         style="display:inline;opacity:0.99;fill:#ffffff;fill-opacity:1;fill-rule:nonzero;stroke:#000000;stroke-width:0.264583;stroke-linecap:butt;stroke-miterlimit:4;stroke-dasharray:none;stroke-dashoffset:0;stroke-opacity:1" />
    </g>
  </g>
  <g
     inkscape:groupmode="layer"
     id="layer3"
     inkscape:label="GridLayer"
     style="display:none">
    <rect
       style="opacity:0.99;fill:none;fill-opacity:0.992157;fill-rule:nonzero;stroke:#000000;stroke-width:0.682;stroke-linecap:butt;stroke-miterlimit:4;stroke-dasharray:none;stroke-dashoffset:0;stroke-opacity:1"
       id="rect4518"
       width="25.776375"
       height="25.776375"
       x="0.34098646"
       y="0.34099999" />
    <rect
       y="0.34097901"
       x="26.799313"
       height="25.776375"
       width="25.776375"
       id="rect4520"
       style="opacity:0.99;fill:none;fill-opacity:0.992157;fill-rule:nonzero;stroke:#000000;stroke-width:0.681958;stroke-linecap:butt;stroke-miterlimit:4;stroke-dasharray:none;stroke-dashoffset:0;stroke-opacity:1" />
    <rect
       style="opacity:0.99;fill:none;fill-opacity:0.992157;fill-rule:nonzero;stroke:#000000;stroke-width:0.681958;stroke-linecap:butt;stroke-miterlimit:4;stroke-dasharray:none;stroke-dashoffset:0;stroke-opacity:1"
       id="rect4522"
       width="25.776375"
       height="25.776375"
       x="53.257637"
       y="0.34097901" />
    <rect
       y="0.34097901"
       x="79.715973"
       height="25.776375"
       width="25.776375"
       id="rect4524"
       style="opacity:0.99;fill:none;fill-opacity:0.992157;fill-rule:nonzero;stroke:#000000;stroke-width:0.681958;stroke-linecap:butt;stroke-miterlimit:4;stroke-dasharray:none;stroke-dashoffset:0;stroke-opacity:1" />
    <rect
       style="opacity:0.99;fill:none;fill-opacity:0.992157;fill-rule:nonzero;stroke:#000000;stroke-width:0.681958;stroke-linecap:butt;stroke-miterlimit:4;stroke-dasharray:none;stroke-dashoffset:0;stroke-opacity:1"
       id="rect4526"
       width="25.776375"
       height="25.776375"
       x="106.17431"
       y="0.34097901" />
    <rect
       y="0.34097901"
       x="132.63263"
       height="25.776375"
       width="25.776375"
       id="rect961"
       style="opacity:0.99;fill:none;fill-opacity:0.992157;fill-rule:nonzero;stroke:#000000;stroke-width:0.681958;stroke-linecap:butt;stroke-miterlimit:4;stroke-dasharray:none;stroke-dashoffset:0;stroke-opacity:1" />
    <rect
       style="opacity:0.99;fill:none;fill-opacity:0.992157;fill-rule:nonzero;stroke:#000000;stroke-width:0.681958;stroke-linecap:butt;stroke-miterlimit:4;stroke-dasharray:none;stroke-dashoffset:0;stroke-opacity:1"
       id="rect963"
       width="25.776375"
       height="25.776375"
       x="159.09097"
       y="0.34097901" />
    <rect
       y="0.34097901"
       x="185.5493"
       height="25.776375"
       width="25.776375"
       id="rect965"
       style="opacity:0.99;fill:none;fill-opacity:0.992157;fill-rule:nonzero;stroke:#000000;stroke-width:0.681958;stroke-linecap:butt;stroke-miterlimit:4;stroke-dasharray:none;stroke-dashoffset:0;stroke-opacity:1" />
  </g>
  <g
     inkscape:groupmode="layer"
     id="layer2"
     inkscape:label="FreedrawLayer"
     style="display:inline" />
</svg>
